<?xml version="1.0" encoding="utf-8"?>
<!-- Generator: Adobe Illustrator 15.1.0, SVG Export Plug-In . SVG Version: 6.00 Build 0)  -->
<!DOCTYPE svg PUBLIC "-//W3C//DTD SVG 1.0//EN" "http://www.w3.org/TR/2001/REC-SVG-20010904/DTD/svg10.dtd">
<svg version="1.0" id="Layer_1" xmlns="http://www.w3.org/2000/svg" xmlns:xlink="http://www.w3.org/1999/xlink" x="0px" y="0px"
	 width="18.453px" height="18.453px" viewBox="0 0 18.453 18.453" enable-background="new 0 0 18.453 18.453" xml:space="preserve">
<g>
	<path fill="#C8C8C8" d="M15.905,1.674h-2.046V0.956c0-0.218-0.177-0.395-0.395-0.395S13.07,0.738,13.07,0.956v0.718H9.621V0.956
		c0-0.218-0.177-0.395-0.395-0.395S8.832,0.738,8.832,0.956v0.718H5.383V0.956c0-0.218-0.177-0.395-0.395-0.395
		S4.594,0.738,4.594,0.956v0.718H2.549c-0.789,0-1.431,0.642-1.431,1.431v13.356c0,0.789,0.642,1.43,1.431,1.43h13.356
		c0.789,0,1.43-0.642,1.43-1.43v-0.63v-1.32v-0.015c0,0.003-0.001,0.005-0.001,0.008c-0.004-0.245-0.203-0.443-0.449-0.443
		s-0.444,0.198-0.449,0.443c0-0.003-0.001-0.005-0.001-0.008v0.015v1.32v0.63c0,0.292-0.238,0.53-0.53,0.53H2.549
		c-0.292,0-0.53-0.238-0.53-0.53V3.104c0-0.292,0.238-0.53,0.53-0.53h2.045v0.718c0,0.218,0.177,0.395,0.395,0.395
		S5.383,3.51,5.383,3.292V2.574h3.449v0.718c0,0.218,0.177,0.395,0.395,0.395S9.621,3.51,9.621,3.292V2.574h3.449v0.718
		c0,0.218,0.177,0.395,0.395,0.395s0.395-0.177,0.395-0.395V2.574h2.046c0.292,0,0.53,0.238,0.53,0.53v5.979v2.641v0.129
		c0-0.023,0.01-0.042,0.013-0.065c0.033,0.217,0.211,0.386,0.437,0.386s0.404-0.169,0.437-0.386
		c0.003,0.022,0.013,0.042,0.013,0.065v-0.129V9.083V3.104C17.335,2.316,16.694,1.674,15.905,1.674z"/>
	<g>
		<g>
			<circle fill="#C8C8C8" cx="4.633" cy="6.984" r="0.813"/>
			<circle fill="#C8C8C8" cx="7.695" cy="6.984" r="0.813"/>
			<circle fill="#C8C8C8" cx="10.758" cy="6.984" r="0.813"/>
			<circle fill="#C8C8C8" cx="13.82" cy="6.984" r="0.813"/>
		</g>
		<g>
			<circle fill="#C8C8C8" cx="4.633" cy="10.438" r="0.813"/>
			<circle fill="#C8C8C8" cx="7.695" cy="10.438" r="0.813"/>
			<circle fill="#C8C8C8" cx="10.758" cy="10.438" r="0.813"/>
			<circle fill="#C8C8C8" cx="13.82" cy="10.438" r="0.813"/>
		</g>
		<g>
			<circle fill="#C8C8C8" cx="4.633" cy="13.891" r="0.813"/>
			<circle fill="#C8C8C8" cx="7.695" cy="13.891" r="0.813"/>
			<circle fill="#C8C8C8" cx="10.758" cy="13.891" r="0.813"/>
			<circle fill="#C8C8C8" cx="13.82" cy="13.891" r="0.813"/>
		</g>
	</g>
</g>
</svg>
