<?xml version="1.0" encoding="utf-8"?>
<!-- Generator: Adobe Illustrator 15.1.0, SVG Export Plug-In . SVG Version: 6.00 Build 0)  -->
<!DOCTYPE svg PUBLIC "-//W3C//DTD SVG 1.0//EN" "http://www.w3.org/TR/2001/REC-SVG-20010904/DTD/svg10.dtd">
<svg version="1.0" id="Layer_1" xmlns="http://www.w3.org/2000/svg" xmlns:xlink="http://www.w3.org/1999/xlink" x="0px" y="0px"
	 width="18.453px" height="18.453px" viewBox="0 0 18.453 18.453" enable-background="new 0 0 18.453 18.453" xml:space="preserve">
<g>
	<g>
		<g>
			<path fill="#C8C8C8" d="M9.227,1.377c-3.043,0-5.52,2.476-5.52,5.52c0,1.028,0.285,2.032,0.824,2.902l4.381,7.06
				c0.085,0.136,0.232,0.218,0.392,0.218c0.001,0,0.002,0,0.003,0c0.161-0.001,0.31-0.085,0.392-0.224l4.27-7.129
				c0.51-0.852,0.778-1.83,0.778-2.828C14.746,3.853,12.271,1.377,9.227,1.377z M13.178,9.252l-3.881,6.481l-3.984-6.42
				c-0.448-0.724-0.691-1.56-0.691-2.417c0-2.537,2.069-4.606,4.605-4.606c2.537,0,4.603,2.069,4.603,4.606
				C13.829,7.728,13.603,8.542,13.178,9.252z"/>
		</g>
	</g>
	<g>
		<g>
			<path fill="#C8C8C8" d="M9.227,4.137c-1.521,0-2.76,1.238-2.76,2.76c0,1.512,1.218,2.76,2.76,2.76c1.562,0,2.76-1.264,2.76-2.76
				C11.986,5.375,10.749,4.137,9.227,4.137z M9.227,8.742c-1.02,0-1.846-0.829-1.846-1.846c0-1.015,0.831-1.846,1.846-1.846
				s1.843,0.832,1.843,1.846C11.069,7.898,10.263,8.742,9.227,8.742z"/>
		</g>
	</g>
</g>
</svg>
