<?xml version="1.0" encoding="utf-8"?>
<!-- Generator: Adobe Illustrator 15.1.0, SVG Export Plug-In . SVG Version: 6.00 Build 0)  -->
<!DOCTYPE svg PUBLIC "-//W3C//DTD SVG 1.0//EN" "http://www.w3.org/TR/2001/REC-SVG-20010904/DTD/svg10.dtd">
<svg version="1.0" id="Layer_1" xmlns="http://www.w3.org/2000/svg" xmlns:xlink="http://www.w3.org/1999/xlink" x="0px" y="0px"
	 width="18.453px" height="18.453px" viewBox="0 0 18.453 18.453" enable-background="new 0 0 18.453 18.453" xml:space="preserve">
<g>
	<path fill="#C8C8C8" d="M9.227,9.594c2.273,0,4.116-1.843,4.116-4.115c0-2.272-1.843-4.102-4.116-4.102
		c-2.271,0-4.116,1.843-4.116,4.102C5.111,7.739,6.955,9.594,9.227,9.594z M9.227,2.449c1.667,0,3.029,1.364,3.029,3.03
		c0,1.667-1.362,3.029-3.029,3.029c-1.666,0-3.029-1.363-3.029-3.029C6.197,3.813,7.561,2.449,9.227,2.449z"/>
	<path fill="#C8C8C8" d="M2.082,17.077h14.29c0.302,0,0.542-0.274,0.542-0.619c0-3.244-2.31-5.895-5.163-5.895H6.702
		c-2.84,0-5.163,2.637-5.163,5.895C1.539,16.802,1.779,17.077,2.082,17.077z M6.702,11.802h5.049c2.071,0,3.774,1.758,4.04,4.035
		H2.663C2.928,13.575,4.631,11.802,6.702,11.802z"/>
</g>
</svg>
