<?xml version="1.0" encoding="utf-8"?>
<!-- Generator: Adobe Illustrator 15.1.0, SVG Export Plug-In . SVG Version: 6.00 Build 0)  -->
<!DOCTYPE svg PUBLIC "-//W3C//DTD SVG 1.0//EN" "http://www.w3.org/TR/2001/REC-SVG-20010904/DTD/svg10.dtd">
<svg version="1.0" id="Layer_1" xmlns="http://www.w3.org/2000/svg" xmlns:xlink="http://www.w3.org/1999/xlink" x="0px" y="0px"
	 width="18.453px" height="18.453px" viewBox="0 0 18.453 18.453" enable-background="new 0 0 18.453 18.453" xml:space="preserve">
<path fill="#C8C8C8" d="M16.243,9.156c-0.233,0-0.422,0.189-0.422,0.422v7.508h-4.522v-4.713c0-0.232-0.188-0.421-0.422-0.421H7.576
	c-0.232,0-0.422,0.189-0.422,0.421v3.738c0,0.232,0.189,0.421,0.422,0.421c0.233,0,0.422-0.188,0.422-0.421v-3.316h2.458v4.292
	H2.633V6.771l6.594-5.285l6.753,5.412c0.182,0.146,0.446,0.116,0.592-0.066s0.116-0.446-0.065-0.592L9.49,0.617
	c-0.153-0.124-0.373-0.124-0.526,0L1.947,6.24c-0.1,0.08-0.158,0.201-0.158,0.329v10.939c0,0.233,0.189,0.421,0.422,0.421h14.032
	c0.232,0,0.421-0.188,0.421-0.421V9.578C16.664,9.345,16.476,9.156,16.243,9.156z"/>
</svg>
