<?xml version="1.0" encoding="utf-8"?>
<!-- Generator: Adobe Illustrator 15.1.0, SVG Export Plug-In . SVG Version: 6.00 Build 0)  -->
<!DOCTYPE svg PUBLIC "-//W3C//DTD SVG 1.0//EN" "http://www.w3.org/TR/2001/REC-SVG-20010904/DTD/svg10.dtd">
<svg version="1.0" id="Layer_1" xmlns="http://www.w3.org/2000/svg" xmlns:xlink="http://www.w3.org/1999/xlink" x="0px" y="0px"
	 width="33px" height="40px" viewBox="0 0 33 40" enable-background="new 0 0 33 40" xml:space="preserve">
<g>
	<g>
		<g>
			<path fill="#FFFFFF" d="M20.399,11.293c-2.413,0-4.376-1.997-4.376-4.452c0-2.456,1.963-4.454,4.376-4.454
				c2.414,0,4.377,1.998,4.377,4.454C24.777,9.296,22.813,11.293,20.399,11.293z M20.399,3.687c-1.696,0-3.076,1.415-3.076,3.154
				c0,1.738,1.38,3.152,3.076,3.152c1.697,0,3.078-1.414,3.078-3.152C23.477,5.102,22.096,3.687,20.399,3.687z"/>
		</g>
		<g>
			<path fill="#FFFFFF" d="M5.457,37.612c-0.564,0-1.092-0.225-1.484-0.634c-0.485-0.503-0.679-1.218-0.548-1.887L1.994,34.27
				c-0.604-0.34-0.824-1.122-0.485-1.741l4.748-8.561c0.328-0.598,1.147-0.833,1.739-0.491l1.933,1.109l1.263-2.298
				c-0.316-0.552-0.371-1.221-0.134-1.836c1.54-3.95,4.564-7.401,5.794-8.701c0.145-0.179,0.645-0.63,0.776-0.715
				c0.928-0.708,1.652-0.784,2.084-0.83c0.191-0.021,0.305-0.026,0.412-0.026c0.365,0,0.657,0.06,0.689,0.067
				c0.648,0.103,1.336,0.392,1.902,0.81c0.19,0.117,0.488,0.385,0.938,0.791c1.309,1.179,3.745,3.374,6.116,3.622
				c1.148,0.123,1.987,1.169,1.871,2.333c-0.119,1.168-1.191,2.042-2.316,1.896c-1.906-0.201-3.431-0.663-4.771-1.464l0.31,3.634
				c0.057,0.695-0.098,1.364-0.452,1.961c0.804,1.344,2.647,4.544,5.114,10.233c0.551,1.271-0.018,2.765-1.267,3.33
				c-0.319,0.146-0.66,0.219-1.013,0.219c-0.988,0-1.884-0.593-2.281-1.51c-1.672-3.858-3.083-6.603-4.096-8.411
				c-0.598,1.127-1.364,2.639-2.111,4.113c-0.945,1.865-1.837,3.626-2.353,4.536c-0.412,0.731-1.153,1.205-1.981,1.265
				c-0.478,0.037-0.991-0.079-1.426-0.332c-1.184-0.697-1.592-2.244-0.915-3.449c0.801-1.416,2.581-4.737,4.011-7.406
				c0.469-0.875,0.893-1.666,1.217-2.267c-0.318-0.466-0.509-1-0.557-1.569l-0.296-3.478c-0.637,1.014-1.138,1.988-1.497,2.909
				c-0.23,0.588-0.711,1.04-1.294,1.237L7.331,34.6c0.372,0.792,0.225,1.76-0.411,2.402C6.527,37.396,6.008,37.612,5.457,37.612z
				 M21.415,26.03c1.036,1.757,2.7,4.841,4.744,9.555c0.259,0.598,0.986,0.887,1.564,0.624c0.608-0.275,0.882-1.005,0.612-1.629
				c-2.687-6.196-4.615-9.386-5.249-10.435l0.043-0.736c0.335-0.43,0.483-0.912,0.44-1.433l-0.428-5.019l1.058-0.559
				c0.953,0.777,2.415,1.708,5.276,2.008c0.003,0,0.007,0,0.01,0c0.485,0,0.82-0.316,0.863-0.735
				c0.045-0.454-0.275-0.862-0.714-0.909c-2.791-0.292-5.431-2.671-6.85-3.949c-0.341-0.308-0.664-0.598-0.799-0.683
				c-0.443-0.324-0.929-0.53-1.409-0.606c-0.042-0.007-0.33-0.068-0.641-0.035c-0.441,0.046-0.882,0.093-1.561,0.609
				c-0.104,0.08-0.462,0.406-0.548,0.511c-1.207,1.279-4.101,4.578-5.557,8.312c-0.117,0.304-0.053,0.641,0.167,0.879l0.092,0.754
				l-1.318,2.399l1.462-2.585l0.46-0.321c0.28-0.046,0.511-0.236,0.618-0.508c0.572-1.47,1.472-3.051,2.675-4.699l1.172,0.328
				l0.451,5.302c0.038,0.445,0.212,0.84,0.517,1.176l0.091,0.747c-0.338,0.626-0.843,1.568-1.417,2.638
				c-1.434,2.674-3.217,6.003-4.024,7.43c-0.333,0.592-0.136,1.35,0.439,1.688c0.18,0.104,0.384,0.161,0.588,0.161
				c0.479-0.032,0.833-0.259,1.031-0.611c0.501-0.885,1.387-2.634,2.325-4.484c1.011-1.995,2.057-4.059,2.691-5.177L21.415,26.03z
				 M7.348,24.605l-4.701,8.552l1.893,1.074l0.122,0.435c0.359-0.318,0.96-0.373,1.371-0.123l-0.018-0.25l4.719-8.496l-0.876,0.247
				L7.348,24.605z"/>
		</g>
	</g>
</g>
</svg>
