<?xml version="1.0" encoding="utf-8"?>
<!-- Generator: Adobe Illustrator 21.0.0, SVG Export Plug-In . SVG Version: 6.00 Build 0)  -->
<svg version="1.1" id="Layer_1" xmlns="http://www.w3.org/2000/svg" xmlns:xlink="http://www.w3.org/1999/xlink" x="0px" y="0px"
	 width="24px" height="24px" viewBox="0 0 24 24" style="enable-background:new 0 0 24 24;" xml:space="preserve">
<style type="text/css">
	.st0{fill:none;}
	.st1{display:none;}
	.st2{display:inline;}
</style>
<path class="st0" d="M0,0h24v24H0V0z"/>
<g>
	<path d="M6.5,10.1h8.1c0.2,0,0.3-0.1,0.3-0.3s-0.1-0.3-0.3-0.3H6.5c-0.2,0-0.3,0.1-0.3,0.3C6.2,9.9,6.3,10.1,6.5,10.1z"/>
	<path d="M6.5,7.5h3.2c0.2,0,0.3-0.1,0.3-0.3S9.9,6.8,9.7,6.8H6.5C6.3,6.8,6.2,7,6.2,7.1C6.2,7.3,6.3,7.5,6.5,7.5z"/>
	<path d="M6.5,12.7h8.1c0.2,0,0.3-0.1,0.3-0.3S14.8,12,14.6,12H6.5c-0.2,0-0.3,0.1-0.3,0.3S6.3,12.7,6.5,12.7z"/>
	<path d="M12,14.6H6.5c-0.2,0-0.3,0.1-0.3,0.3s0.1,0.3,0.3,0.3H12c0.2,0,0.3-0.1,0.3-0.3C12.3,14.7,12.2,14.6,12,14.6z"/>
	<path d="M11,17.2H6.5c-0.2,0-0.3,0.1-0.3,0.3c0,0.2,0.1,0.3,0.3,0.3H11c0.2,0,0.3-0.1,0.3-0.3C11.4,17.3,11.2,17.2,11,17.2z"/>
	<path d="M18.2,13.4V7l-4.7-4.7H2.9v19.5h14.3c2.3,0,4.2-1.9,4.2-4.2C21.4,15.5,20,13.9,18.2,13.4z M13.6,3.4L17,6.8h-3.4V3.4
		L13.6,3.4z M14.9,21.1H3.6V2.9H13v4.5h4.5v5.9c-0.1,0-0.2,0-0.3,0c-2.3,0-4.2,1.9-4.2,4.2c0,0.1,0,0.3,0,0.4V18
		c0,0.1,0,0.2,0.1,0.4l0,0c0,0.1,0.1,0.2,0.1,0.3v0.1c0,0.1,0.1,0.2,0.1,0.3c0,0,0,0,0,0.1s0.1,0.2,0.1,0.3c0,0,0,0,0,0.1
		c0.1,0.1,0.1,0.2,0.2,0.3c0,0,0,0,0,0.1c0.1,0.1,0.1,0.2,0.2,0.3l0,0c0.1,0.1,0.2,0.2,0.2,0.3c0,0,0,0,0.1,0.1s0.2,0.2,0.2,0.2l0,0
		c0.1,0.1,0.2,0.1,0.3,0.2C14.8,21,14.9,21,14.9,21.1L14.9,21.1z M17.2,21.1c-2,0-3.6-1.6-3.6-3.6s1.6-3.6,3.6-3.6
		c0.1,0,0.2,0,0.3,0c0.1,0,0.2,0,0.3,0h0.1c1.6,0.3,2.8,1.8,2.8,3.5C20.8,19.5,19.2,21.1,17.2,21.1z"/>
	<path d="M18.9,15.7l-1.8,2.6l-1.3-1c-0.1-0.1-0.3-0.1-0.5,0c-0.1,0.1-0.1,0.3,0,0.5l1.6,1.3c0.1,0,0.1,0.1,0.2,0.1l0,0
		c0.1,0,0.2-0.1,0.2-0.1l2-2.9c0.1-0.1,0.1-0.3-0.1-0.5C19.2,15.5,19,15.6,18.9,15.7z"/>
</g>
<g class="st1">
	<path class="st2" d="M14.6,9.4H6.5c-0.2,0-0.3,0.1-0.3,0.3S6.3,10,6.5,10h8.1c0.2,0,0.3-0.1,0.3-0.3C14.9,9.6,14.8,9.4,14.6,9.4z"
		/>
	<path class="st2" d="M6.5,7.5h3.2c0.2,0,0.3-0.1,0.3-0.3C10,7,9.9,6.9,9.7,6.9H6.5C6.3,6.8,6.2,7,6.2,7.1C6.2,7.3,6.3,7.5,6.5,7.5z
		"/>
	<path class="st2" d="M14.6,12H6.5c-0.2,0-0.3,0.1-0.3,0.3s0.1,0.3,0.3,0.3h8.1c0.2,0,0.3-0.1,0.3-0.3S14.8,12,14.6,12z"/>
	<path class="st2" d="M12,14.6H6.5c-0.2,0-0.3,0.1-0.3,0.3s0.1,0.3,0.3,0.3H12c0.2,0,0.3-0.1,0.3-0.3C12.3,14.7,12.2,14.6,12,14.6z"
		/>
	<path class="st2" d="M11,17.8c0.2,0,0.3-0.1,0.3-0.3s-0.1-0.3-0.3-0.3H6.5c-0.2,0-0.3,0.1-0.3,0.3s0.1,0.3,0.3,0.3H11z"/>
	<path class="st2" d="M3.6,2.9H13v4.5h4.5v5.8h0.6V7l-4.7-4.7H2.9v19.5h9.4v-0.6H3.6C3.6,21.1,3.6,2.9,3.6,2.9z M13.6,3.4L17,6.8
		h-3.4V3.4z"/>
	<path class="st2" d="M21.6,14.3l-0.9-0.9c-0.4-0.4-1-0.4-1.4,0l-5,5l-0.7,2.5l-0.2,0.2c-0.1,0.1-0.1,0.3,0,0.5l0,0l0,0
		c0.1,0.1,0.1,0.1,0.2,0.1c0.1,0,0.2,0,0.2-0.1l0.2-0.2l2.5-0.7l5-5c0.2-0.2,0.3-0.4,0.3-0.7S21.8,14.5,21.6,14.3z M15.1,18.6
		l3.3-3.3l1.4,1.4L16.5,20L15.1,18.6z M14.8,19.2l1,1l-1.4,0.4L14.8,19.2z M21.2,15.2l-0.9,0.9l-1.4-1.4l0.9-0.9
		c0.1-0.1,0.3-0.1,0.5,0l0.9,0.9c0.1,0.1,0.1,0.1,0.1,0.2C21.3,15.1,21.2,15.2,21.2,15.2z"/>
</g>
</svg>
