<?xml version="1.0" encoding="utf-8"?>
<!-- Generator: Adobe Illustrator 15.1.0, SVG Export Plug-In . SVG Version: 6.00 Build 0)  -->
<!DOCTYPE svg PUBLIC "-//W3C//DTD SVG 1.0//EN" "http://www.w3.org/TR/2001/REC-SVG-20010904/DTD/svg10.dtd">
<svg version="1.0" id="Layer_1" xmlns="http://www.w3.org/2000/svg" xmlns:xlink="http://www.w3.org/1999/xlink" x="0px" y="0px"
	 width="55.306px" height="55.334px" viewBox="0 0 55.306 55.334" enable-background="new 0 0 55.306 55.334" xml:space="preserve">
<circle fill="#8BC148" cx="27.653" cy="27.667" r="27.667"/>
<g>
	<g>
		<path fill="#FFFFFF" d="M40.423,47.518H14.882c-0.938,0-1.7-0.763-1.7-1.7V9.517c0-0.938,0.763-1.7,1.7-1.7h25.541
			c0.938,0,1.7,0.763,1.7,1.7v36.301C42.123,46.755,41.36,47.518,40.423,47.518z M14.882,9.217c-0.166,0-0.3,0.134-0.3,0.3v36.301
			c0,0.166,0.134,0.3,0.3,0.3h25.541c0.166,0,0.3-0.134,0.3-0.3V9.517c0-0.166-0.134-0.3-0.3-0.3H14.882z"/>
	</g>
	<polygon fill="#FFFFFF" points="25.399,31.553 20.888,26.993 18.755,29.103 25.798,36.221 36.551,20.831 34.092,19.113 	"/>
</g>
</svg>
