<?xml version="1.0" encoding="utf-8"?>
<!-- Generator: Adobe Illustrator 15.1.0, SVG Export Plug-In . SVG Version: 6.00 Build 0)  -->
<!DOCTYPE svg PUBLIC "-//W3C//DTD SVG 1.1//EN" "http://www.w3.org/Graphics/SVG/1.1/DTD/svg11.dtd">
<svg version="1.1" id="Layer_1" xmlns="http://www.w3.org/2000/svg" xmlns:xlink="http://www.w3.org/1999/xlink" x="0px" y="0px"
	 width="58.666px" height="58.666px" viewBox="0 0 58.666 58.666" enable-background="new 0 0 58.666 58.666" xml:space="preserve">
<circle fill="#273C69" cx="29.407" cy="29.163" r="29.332"/>
<g>
	<g>
		<g>
			<g>
				<path fill="#FFFFFF" d="M17.632,23.05c-2.395,0-4.343-1.949-4.343-4.344s1.948-4.344,4.343-4.344
					c2.396,0,4.344,1.949,4.344,4.344S20.028,23.05,17.632,23.05z M17.632,15.363c-1.843,0-3.343,1.5-3.343,3.344
					s1.5,3.344,3.343,3.344c1.844,0,3.344-1.5,3.344-3.344S19.476,15.363,17.632,15.363z"/>
			</g>
			<g>
				<path fill="#FFFFFF" d="M26.461,46.562h-3.834c-0.723,0-1.313-0.59-1.313-1.313v-5.396h-3.827c-2.106,0-3.82-1.713-3.82-3.818
					v-7.982c0-2.188,1.779-3.965,3.966-3.965c2.186,0,3.964,1.777,3.964,3.965v5.39h2.875c1.82,0,3.301,1.48,3.301,3.301v8.506
					C27.773,45.972,27.186,46.562,26.461,46.562z M17.633,25.087c-1.636,0-2.966,1.33-2.966,2.965v7.982
					c0,1.553,1.266,2.818,2.82,2.818h4.827v6.396c0,0.172,0.141,0.313,0.313,0.313h3.834c0.174,0,0.313-0.141,0.313-0.313v-8.506
					c0-1.27-1.031-2.301-2.301-2.301h-3.875v-6.39C20.598,26.417,19.268,25.087,17.633,25.087z"/>
			</g>
		</g>
		<g>
			<g>
				<path fill="#FFFFFF" d="M36.839,18.707c0-2.395,1.948-4.344,4.344-4.344c2.395,0,4.343,1.949,4.343,4.344
					s-1.948,4.344-4.343,4.344C38.787,23.05,36.839,21.101,36.839,18.707z M37.839,18.707c0,1.844,1.5,3.344,3.344,3.344
					c1.843,0,3.343-1.5,3.343-3.344s-1.5-3.344-3.343-3.344C39.339,15.363,37.839,16.863,37.839,18.707z"/>
			</g>
			<g>
				<path fill="#FFFFFF" d="M31.04,45.249v-8.506c0-1.82,1.481-3.301,3.303-3.301h2.874v-5.39c0-2.188,1.778-3.965,3.965-3.965
					s3.966,1.777,3.966,3.965v7.982c0,2.105-1.714,3.818-3.82,3.818h-3.826v5.396c0,0.723-0.59,1.313-1.314,1.313h-3.834
					C31.63,46.562,31.04,45.972,31.04,45.249z M38.217,28.052v6.39h-3.874c-1.27,0-2.303,1.031-2.303,2.301v8.506
					c0,0.172,0.141,0.313,0.313,0.313h3.834c0.174,0,0.314-0.141,0.314-0.313v-6.396h4.826c1.555,0,2.82-1.266,2.82-2.818v-7.982
					c0-1.635-1.33-2.965-2.966-2.965C39.547,25.087,38.217,26.417,38.217,28.052z"/>
			</g>
		</g>
	</g>
	<g>
		<path fill="#FFFFFF" d="M29.406,20.452c-2.395,0-4.343-1.948-4.343-4.343c0-2.396,1.948-4.344,4.343-4.344
			c2.396,0,4.345,1.949,4.345,4.344C33.751,18.503,31.802,20.452,29.406,20.452z M29.406,12.765c-1.843,0-3.343,1.5-3.343,3.344
			c0,1.843,1.5,3.343,3.343,3.343c1.845,0,3.345-1.5,3.345-3.343C32.751,14.265,31.251,12.765,29.406,12.765z"/>
	</g>
	<g>
		<path fill="#FFFFFF" d="M33.372,30.462h-7.93v-5.009c0-2.186,1.778-3.964,3.966-3.964c2.185,0,3.964,1.778,3.964,3.964V30.462z
			 M26.442,29.462h5.93v-4.01c0-1.635-1.33-2.964-2.964-2.964c-1.636,0-2.966,1.329-2.966,2.964V29.462z"/>
	</g>
</g>
</svg>
