<?xml version="1.0" encoding="utf-8"?>
<!-- Generator: Adobe Illustrator 15.1.0, SVG Export Plug-In . SVG Version: 6.00 Build 0)  -->
<!DOCTYPE svg PUBLIC "-//W3C//DTD SVG 1.1//EN" "http://www.w3.org/Graphics/SVG/1.1/DTD/svg11.dtd">
<svg version="1.1" id="Layer_1" xmlns="http://www.w3.org/2000/svg" xmlns:xlink="http://www.w3.org/1999/xlink" x="0px" y="0px"
	 width="58.666px" height="58.666px" viewBox="0 0 58.666 58.666" enable-background="new 0 0 58.666 58.666" xml:space="preserve">
<circle fill="#273C69" cx="29.333" cy="29.333" r="29.333"/>
<g>
	<path fill="#FFFFFF" d="M35.747,25.228H22.918c-0.282,0-0.513,0.229-0.513,0.513s0.23,0.513,0.513,0.513h12.829
		c0.282,0,0.513-0.229,0.513-0.513S36.029,25.228,35.747,25.228z"/>
	<path fill="#FFFFFF" d="M22.918,22.149h5.132c0.284,0,0.514-0.229,0.514-0.513s-0.229-0.513-0.514-0.513h-5.132
		c-0.282,0-0.513,0.229-0.513,0.513S22.636,22.149,22.918,22.149z"/>
	<path fill="#FFFFFF" d="M35.747,29.333H22.918c-0.282,0-0.513,0.229-0.513,0.513c0,0.284,0.23,0.514,0.513,0.514h12.829
		c0.282,0,0.513-0.229,0.513-0.514C36.26,29.563,36.029,29.333,35.747,29.333z"/>
	<path fill="#FFFFFF" d="M35.747,33.438H22.918c-0.282,0-0.513,0.229-0.513,0.514c0,0.283,0.23,0.513,0.513,0.513h12.829
		c0.282,0,0.513-0.229,0.513-0.513C36.26,33.667,36.029,33.438,35.747,33.438z"/>
	<path fill="#FFFFFF" d="M35.747,37.542H22.918c-0.282,0-0.513,0.229-0.513,0.514c0,0.283,0.23,0.512,0.513,0.512h12.829
		c0.282,0,0.513-0.229,0.513-0.512C36.26,37.771,36.029,37.542,35.747,37.542z"/>
	<path fill="#FFFFFF" d="M33.907,13.939H17.274v30.787h24.117V21.423L33.907,13.939z M34.208,15.692l5.432,5.432h-5.432V15.692z
		 M18.301,43.701V14.966h14.88v7.184h7.185v21.551H18.301z"/>
</g>
</svg>
