<?xml version="1.0" encoding="utf-8"?>
<!-- Generator: Adobe Illustrator 15.1.0, SVG Export Plug-In . SVG Version: 6.00 Build 0)  -->
<!DOCTYPE svg PUBLIC "-//W3C//DTD SVG 1.0//EN" "http://www.w3.org/TR/2001/REC-SVG-20010904/DTD/svg10.dtd">
<svg version="1.0" id="Layer_1" xmlns="http://www.w3.org/2000/svg" xmlns:xlink="http://www.w3.org/1999/xlink" x="0px" y="0px"
	 width="35.333px" height="35.333px" viewBox="0 0 35.333 35.333" enable-background="new 0 0 35.333 35.333" xml:space="preserve">
<path fill="#FFFFFF" d="M25.87,27.926h-1.398V25.42c0-2.537-1.391-4.867-3.918-6.564c-0.314-0.211-0.51-0.667-0.51-1.189
	s0.195-0.978,0.51-1.189c2.527-1.697,3.918-4.028,3.918-6.564V7.407h1.398c0.451,0,0.816-0.366,0.816-0.816
	s-0.365-0.816-0.816-0.816H9.465c-0.451,0-0.816,0.365-0.816,0.816s0.365,0.816,0.816,0.816h1.398v2.507
	c0,2.536,1.392,4.867,3.919,6.564c0.313,0.211,0.51,0.667,0.51,1.189c0,0.523-0.196,0.979-0.51,1.19
	c-2.527,1.697-3.919,4.028-3.919,6.564v2.506H9.465c-0.451,0-0.816,0.365-0.816,0.816s0.365,0.816,0.816,0.816H25.87
	c0.451,0,0.816-0.365,0.816-0.816S26.321,27.926,25.87,27.926z M12.495,25.42c0-2.665,2.003-4.408,3.196-5.209
	c0.771-0.518,1.232-1.469,1.232-2.545c0-1.075-0.461-2.026-1.232-2.544c-1.193-0.801-3.196-2.544-3.196-5.208V7.407H22.84
	l-0.002,2.507c0,2.665-2.002,4.407-3.195,5.208c-0.771,0.518-1.232,1.469-1.232,2.544c0,1.076,0.46,2.027,1.232,2.545
	c1.193,0.801,3.195,2.544,3.197,5.209v2.506H12.495V25.42z"/>
</svg>
