<?xml version="1.0" encoding="utf-8"?>
<!-- Generator: Adobe Illustrator 15.1.0, SVG Export Plug-In . SVG Version: 6.00 Build 0)  -->
<!DOCTYPE svg PUBLIC "-//W3C//DTD SVG 1.1//EN" "http://www.w3.org/Graphics/SVG/1.1/DTD/svg11.dtd">
<svg version="1.1" id="Layer_1" xmlns="http://www.w3.org/2000/svg" xmlns:xlink="http://www.w3.org/1999/xlink" x="0px" y="0px"
	 width="43.5px" height="43.5px" viewBox="0 0 43.5 43.5" enable-background="new 0 0 43.5 43.5" xml:space="preserve">
<g id="Layer_1_1_">
</g>
<g>
	<path fill="#253F6B" d="M21.637,43.5c-11.993,0-21.75-9.757-21.75-21.75S9.644,0,21.637,0c11.994,0,21.75,9.756,21.75,21.75
		S33.631,43.5,21.637,43.5z M21.637,1C10.196,1,0.887,10.31,0.887,21.75c0,11.441,9.309,20.75,20.75,20.75
		c11.442,0,20.75-9.309,20.75-20.75C42.388,10.31,33.079,1,21.637,1z"/>
</g>
<g>
	<path fill="#253F6B" d="M30.986,13.181c-1.143-1.281-2.719-1.986-4.436-1.986c-1.342,0-2.789,0.797-3.848,1.38
		c-0.384,0.214-0.91,0.505-1.066,0.523c-0.155-0.019-0.678-0.31-1.063-0.522c-1.054-0.583-2.5-1.381-3.851-1.381
		c-1.715,0-3.292,0.705-4.437,1.986c-1.089,1.22-1.689,2.825-1.689,4.521c0,2.421,0.869,5.867,2.326,9.214
		c0.647,1.488,1.337,2.774,1.994,3.721c0.783,1.124,1.454,1.671,2.053,1.671c0.266,0,0.751-0.112,1.025-0.867
		c0.266-0.733,0.503-1.575,0.755-2.469c0.67-2.361,1.503-5.301,2.845-5.301h0.084c0.597,0,1.13,0.509,1.631,1.561
		c0.496,1.04,0.875,2.424,1.242,3.765c0.242,0.886,0.469,1.724,0.726,2.442c0.268,0.751,0.749,0.863,1.013,0.863
		c0.595,0,1.266-0.556,2.048-1.698c0.656-0.954,1.347-2.254,1.999-3.757c1.466-3.376,2.339-6.794,2.339-9.145
		C32.677,16.006,32.076,14.4,30.986,13.181 M26.138,14.919c-0.014,0-1.401-0.067-2.663-0.4c-0.569-0.151-1.243-0.454-1.243-0.543
		c0-0.088,0.731-0.515,0.908-0.611c0.971-0.535,2.301-1.27,3.411-1.27c3.27,0,5.226,2.85,5.226,5.606
		c0,2.201-0.868,5.565-2.266,8.783c-0.619,1.432-1.299,2.713-1.914,3.608c-0.709,1.033-1.168,1.335-1.306,1.306
		c-0.085-0.017-0.096-0.077-0.163-0.265c-0.244-0.688-0.47-1.509-0.707-2.378c-0.375-1.376-0.765-2.8-1.297-3.914
		c-0.666-1.396-1.467-2.074-2.444-2.074h-0.084c-0.943,0-1.725,0.672-2.389,2.058c-0.531,1.106-0.932,2.528-1.323,3.902
		c-0.249,0.875-0.482,1.702-0.736,2.404c-0.057,0.156-0.074,0.258-0.177,0.274c-0.082,0.011-0.429-0.015-1.312-1.286
		c-0.615-0.884-1.292-2.151-1.909-3.565c-1.389-3.192-2.252-6.584-2.252-8.854c0-2.757,1.955-5.606,5.226-5.606
		c0.851,0,1.967,0.387,2.988,1.036c0.15,0.096,0.361,0.258,0.565,0.414c0.082,0.063,0.161,0.124,0.236,0.181
		c0.239,0.179,0.563,0.414,0.943,0.637c0.162,0.096,0.363,0.215,0.577,0.306c0.817,0.348,1.687,0.523,2.578,0.523
		c0.911,0,1.521-0.161,1.529-0.163c0,0,0.136-0.037,0.132-0.072C26.269,14.92,26.138,14.919,26.138,14.919z"/>
</g>
</svg>
