<?xml version="1.0" encoding="utf-8"?>
<!-- Generator: Adobe Illustrator 15.1.0, SVG Export Plug-In . SVG Version: 6.00 Build 0)  -->
<!DOCTYPE svg PUBLIC "-//W3C//DTD SVG 1.0//EN" "http://www.w3.org/TR/2001/REC-SVG-20010904/DTD/svg10.dtd">
<svg version="1.0" xmlns="http://www.w3.org/2000/svg" xmlns:xlink="http://www.w3.org/1999/xlink" x="0px" y="0px" width="19px"
	 height="19px" viewBox="0 0 19 19" enable-background="new 0 0 19 19" xml:space="preserve">
<g id="Layer_1">
	<circle fill="#4D74B2" cx="9.5" cy="9.5" r="9.5"/>
</g>
<g id="Layer_2">
	<g>
		<path fill="#FFFFFF" d="M3.692,7.419h1.536c0.346,0,0.61,0.026,0.792,0.08c0.244,0.072,0.453,0.2,0.627,0.383
			C6.82,8.065,6.953,8.291,7.044,8.556S7.18,9.15,7.18,9.54c0,0.342-0.043,0.638-0.128,0.885C6.948,10.728,6.8,10.973,6.607,11.16
			c-0.146,0.142-0.343,0.252-0.59,0.332c-0.186,0.059-0.434,0.088-0.744,0.088H3.692V7.419z M4.532,8.124v2.755h0.627
			c0.235,0,0.404-0.013,0.508-0.04c0.136-0.034,0.249-0.092,0.339-0.173c0.09-0.081,0.163-0.215,0.22-0.401
			c0.057-0.187,0.085-0.44,0.085-0.762c0-0.321-0.028-0.568-0.085-0.741C6.169,8.59,6.09,8.456,5.988,8.359
			C5.886,8.262,5.756,8.197,5.599,8.163c-0.117-0.026-0.347-0.04-0.689-0.04H4.532z"/>
		<path fill="#FFFFFF" d="M7.431,9.525c0-0.424,0.063-0.78,0.19-1.067c0.094-0.212,0.224-0.402,0.387-0.57s0.343-0.293,0.538-0.375
			c0.259-0.11,0.558-0.165,0.896-0.165c0.613,0,1.104,0.19,1.472,0.57s0.552,0.909,0.552,1.586c0,0.672-0.183,1.197-0.547,1.577
			c-0.365,0.379-0.854,0.569-1.464,0.569c-0.619,0-1.111-0.188-1.476-0.566S7.431,10.188,7.431,9.525z M8.297,9.497
			c0,0.471,0.109,0.828,0.326,1.071c0.218,0.243,0.494,0.365,0.829,0.365s0.609-0.121,0.824-0.362s0.322-0.603,0.322-1.086
			c0-0.477-0.104-0.832-0.313-1.067c-0.209-0.234-0.487-0.352-0.833-0.352S8.827,8.186,8.615,8.423S8.297,9.018,8.297,9.497z"/>
		<path fill="#FFFFFF" d="M14.494,10.05l0.814,0.258c-0.125,0.454-0.333,0.792-0.623,1.012c-0.291,0.221-0.659,0.331-1.105,0.331
			c-0.552,0-1.006-0.188-1.362-0.566c-0.356-0.377-0.534-0.894-0.534-1.548c0-0.692,0.179-1.23,0.536-1.613
			c0.358-0.383,0.828-0.575,1.411-0.575c0.509,0,0.922,0.15,1.24,0.451c0.189,0.178,0.331,0.433,0.426,0.766l-0.832,0.199
			c-0.049-0.216-0.152-0.386-0.308-0.511c-0.156-0.125-0.346-0.188-0.569-0.188c-0.309,0-0.559,0.111-0.75,0.332
			c-0.192,0.222-0.288,0.58-0.288,1.076c0,0.526,0.094,0.901,0.284,1.124c0.189,0.223,0.435,0.335,0.738,0.335
			c0.223,0,0.416-0.071,0.576-0.213C14.309,10.578,14.424,10.355,14.494,10.05z"/>
	</g>
</g>
</svg>
