<?xml version="1.0" encoding="utf-8"?>
<!-- Generator: Adobe Illustrator 15.1.0, SVG Export Plug-In . SVG Version: 6.00 Build 0)  -->
<!DOCTYPE svg PUBLIC "-//W3C//DTD SVG 1.1//EN" "http://www.w3.org/Graphics/SVG/1.1/DTD/svg11.dtd">
<svg version="1.1" id="Layer_1" xmlns="http://www.w3.org/2000/svg" xmlns:xlink="http://www.w3.org/1999/xlink" x="0px" y="0px"
	 width="142.333px" height="64px" viewBox="0 0 142.333 64" enable-background="new 0 0 142.333 64" xml:space="preserve">
<g>
	<g>
		<path fill="#5F6E9B" d="M90.54,13.478h-3.324c-0.068,0-0.129,0.024-0.197,0.038V10.02c0-2.323-1.932-4.213-4.309-4.213H53.828
			c-2.375,0-4.31,1.888-4.31,4.213v20.869c-14.695-11.241-24.164,1.827-24.092,2.121c0,0,2.693,0.318,4.643,1.471
			c8.385,4.951,15.637,5.771,19.449,5.785v0.139c-4.164,0.244-12.233-0.034-19.794-4.649c-2.381-1.459-6.652-1.31-10.573-0.344
			c0,0,1.232,1.228,1.666,1.796c1.728-0.446,3.505-0.589,5.267-0.303C30.161,50.813,42.679,50.596,46.64,49.57
			c1.018-0.262,1.969-0.596,2.878-0.965v0.715c0,2.326,1.933,4.219,4.31,4.219h5.066v1.898c0,2.239,1.859,4.064,4.146,4.064h27.5
			c2.289,0,4.149-1.822,4.149-4.064V17.539C94.689,15.3,92.829,13.478,90.54,13.478z M87.213,15.184h3.324
			c1.348,0,2.447,1.055,2.447,2.355v21.334c-0.582-0.326-1.537-0.934-2.209-1.712c-1.334-1.542-2.59-2.577-3.762-3.265V15.143
			C87.084,15.156,87.146,15.184,87.213,15.184z M89.838,39.242c0,0-1.139,0.171-2.821,0.037v-0.178
			C88.758,39.386,89.838,39.242,89.838,39.242z M51.223,40.215c0.737-0.049,1.152-0.113,1.152-0.113s-0.413,0.076-1.152,0.159
			V40.215z M53.828,51.828c-1.437,0-2.604-1.128-2.604-2.51v-1.481c6.293-3.172,9.44-8.284,9.44-8.284s-3.865-1.619-6.225-4.148
			c-1.096-1.174-2.167-2.211-3.217-3.123V10.02c0-1.384,1.17-2.51,2.605-2.51h28.882c1.436,0,2.604,1.128,2.604,2.51v23.1
			c-4.492-1.456-7.313,2.341-7.291,2.448c0,0,1.183,0.188,2.033,0.746c1.937,1.261,3.733,1.988,5.256,2.41v0.33
			c-1.658-0.311-3.574-0.934-5.416-2.171c-1.037-0.702-2.922-0.712-4.655-0.344c0,0,0.536,0.578,0.725,0.842
			c0.76-0.172,1.545-0.204,2.32-0.044c1.268,4.74,4.659,6.008,7.026,6.184v5.797c0,1.386-1.17,2.511-2.604,2.511L53.828,51.828
			L53.828,51.828z M90.54,57.794h-27.5c-1.346,0-2.441-1.06-2.441-2.36v-1.897h22.111c2.377,0,4.309-1.892,4.309-4.22v-5.861
			c0.08-0.014,0.164-0.025,0.232-0.041c2.981-0.663,4.895-2.578,5.735-3.604v15.623C92.986,56.738,91.89,57.794,90.54,57.794z"/>
		<path fill="#5F6E9B" d="M20.036,17.598c-6.217-12.5-14.775-5.94-14.786-5.759c0,0,1.357,0.583,2.196,1.487
			c5.33,5.739,10.779,6.405,10.779,6.405s-6.545-0.674-11.158-5.793c-1.016-1.13-3.271-1.718-5.47-1.823c0,0,0.454,0.837,0.592,1.2
			c0.972,0.033,1.921,0.236,2.799,0.66c-0.033,7.9,6.541,9.73,8.771,9.813c5.263,0.191,8.883-3.055,8.883-3.055
			S20.875,19.287,20.036,17.598z"/>
		<path fill="#5F6E9B" d="M30.806,6.163c4.379,0.794,6.973,4.158,6.973,4.158s-2.217-2.767-7.183-3.742
			c-0.782-0.155-1.563-0.702-1.563-0.702c-0.099,0.068-0.788,7,8.191,6.164c1.212-0.112,2.608,0.368,2.608,0.368
			s0.553-3.094-1.343-5.918c-0.801-1.198-4.044-4.188-8.371-1.483c-0.532-0.336-0.964-0.789-1.315-1.313
			c-0.247,0.048-0.86,0.084-0.86,0.084C28.748,4.95,29.837,5.988,30.806,6.163z"/>
		<path fill="#5F6E9B" d="M110.765,23.275c-9.113-1.936-9.054,5.109-8.957,5.187c0,0,0.851-0.453,1.666-0.514
			c5.174-0.373,7.702-2.88,7.702-2.88s-2.969,3.062-7.524,3.325c-1.01,0.056-2.226,0.967-3.153,2.049c0,0,0.623,0.108,0.871,0.183
			c0.405-0.479,0.896-0.884,1.471-1.157c4.178,3.248,7.775,0.642,8.709-0.462c2.203-2.605,1.926-5.785,1.926-5.785
			S111.999,23.536,110.765,23.275z"/>
		<path fill="#5F6E9B" d="M67.452,19.229c-7.618-1.616-7.569,4.274-7.488,4.339c0,0,0.711-0.38,1.392-0.431
			c4.324-0.311,6.438-2.409,6.438-2.409s-2.483,2.56-6.291,2.78c-0.844,0.047-1.857,0.808-2.638,1.713c0,0,0.522,0.09,0.731,0.154
			c0.339-0.402,0.749-0.739,1.228-0.968c3.493,2.711,6.499,0.532,7.281-0.389c1.839-2.177,1.609-4.835,1.609-4.835
			S68.48,19.448,67.452,19.229z"/>
		<path fill="#5F6E9B" d="M118.648,15.418c0,0,0.636,0.116,1.08,0.422c2.851,1.943,5.203,1.681,5.203,1.681
			s-2.813,0.369-5.295-1.379c-0.548-0.386-1.554-0.413-2.486-0.238c0,0,0.279,0.315,0.377,0.46c0.408-0.085,0.83-0.093,1.24,0.003
			c0.84,3.416,3.789,3.545,4.729,3.355c2.228-0.447,3.392-2.218,3.392-2.218s-0.896-0.446-1.431-1.093
			C121.511,11.64,118.636,15.338,118.648,15.418z"/>
		<path fill="#5F6E9B" d="M138.845,25.93c-0.386-4.87-3.919-3.788-3.943-3.73c0,0,0.354,0.363,0.507,0.762
			c0.959,2.548,2.596,3.444,2.596,3.444s-1.982-1.036-2.795-3.289c-0.178-0.498-0.813-0.97-1.494-1.28c0,0,0.035,0.331,0.035,0.468
			c0.303,0.13,0.578,0.316,0.797,0.563c-1.006,2.589,0.84,4.008,1.535,4.31c1.639,0.722,3.19,0.106,3.19,0.106
			S138.896,26.589,138.845,25.93z"/>
		<path fill="#5F6E9B" d="M129.913,33.902c0.344-0.152,0.649-0.631,0.834-1.133c0,0-0.234,0.043-0.328,0.051
			c-0.08,0.222-0.197,0.429-0.363,0.598c-1.9-0.582-2.816,0.807-2.996,1.32c-0.428,1.205,0.094,2.283,0.094,2.283
			s0.477-0.308,0.941-0.377c3.457-0.527,2.5-2.99,2.455-3.009c0,0-0.238,0.272-0.514,0.401c-1.771,0.816-2.324,2.031-2.324,2.031
			S128.345,34.602,129.913,33.902z"/>
	</g>
</g>
</svg>
