<?xml version="1.0" encoding="utf-8"?>
<!-- Generator: Adobe Illustrator 15.1.0, SVG Export Plug-In . SVG Version: 6.00 Build 0)  -->
<!DOCTYPE svg PUBLIC "-//W3C//DTD SVG 1.1//EN" "http://www.w3.org/Graphics/SVG/1.1/DTD/svg11.dtd">
<svg version="1.1" id="Layer_1" xmlns="http://www.w3.org/2000/svg" xmlns:xlink="http://www.w3.org/1999/xlink" x="0px" y="0px"
	 width="44.5px" height="44.5px" viewBox="0 0 44.5 44.5" enable-background="new 0 0 44.5 44.5" xml:space="preserve">
<g>
	<path fill="#FFFFFF" d="M43.238,19.759L24.32,4.17c-0.352-0.289-0.842-0.352-1.256-0.158c-0.412,0.193-0.676,0.615-0.676,1.071
		v8.217c-9.182,0.333-15.492,3.571-18.776,9.638c-2.826,5.23-2.8,11.43-2.773,15.529c0,0.332,0,0.648,0,0.947
		c0,0.535,0.36,1.01,0.886,1.15C1.823,40.592,1.928,40.6,2.024,40.6c0.421,0,0.816-0.221,1.027-0.598
		C9.46,28.705,14.735,28.16,22.381,28.135v8.189c0,0.455,0.262,0.877,0.684,1.07s0.904,0.131,1.266-0.158l18.908-15.641
		c0.271-0.229,0.43-0.563,0.43-0.913C43.668,20.33,43.51,19.988,43.238,19.759z M24.76,33.805v-6.855
		c0-0.316-0.123-0.613-0.352-0.834c-0.221-0.221-0.527-0.352-0.834-0.352c-4.775,0-8.436,0.131-11.99,1.791
		c-3.072,1.432-5.732,3.863-8.356,7.682c0.104-3.484,0.562-7.646,2.466-11.166c3.019-5.583,8.866-8.348,17.88-8.427
		c0.65-0.009,1.178-0.536,1.178-1.185V7.593l15.861,13.089L24.76,33.805z"/>
</g>
</svg>
