<?xml version="1.0" encoding="utf-8"?>
<!-- Generator: Adobe Illustrator 15.1.0, SVG Export Plug-In . SVG Version: 6.00 Build 0)  -->
<!DOCTYPE svg PUBLIC "-//W3C//DTD SVG 1.1//EN" "http://www.w3.org/Graphics/SVG/1.1/DTD/svg11.dtd">
<svg version="1.1" id="Layer_1" xmlns="http://www.w3.org/2000/svg" xmlns:xlink="http://www.w3.org/1999/xlink" x="0px" y="0px"
	 width="43.5px" height="43.5px" viewBox="0 0 43.5 43.5" enable-background="new 0 0 43.5 43.5" xml:space="preserve">
<g id="Layer_1_1_">
</g>
<g>
	<path fill="#253F6B" d="M21.75,43.5C9.757,43.5,0,33.742,0,21.75C0,9.756,9.757,0,21.75,0C33.744,0,43.5,9.755,43.5,21.75
		C43.5,33.744,33.744,43.5,21.75,43.5z M21.75,1C10.309,1,1,10.31,1,21.75C1,33.191,10.309,42.5,21.75,42.5
		c11.443,0,20.75-9.309,20.75-20.75C42.502,10.31,33.193,1,21.75,1z"/>
</g>
<g>
	<path fill="#253F6B" d="M20.707,14.224l-2.109-2.958h-8.413v20.968h23.132V18v-0.4v-2.574v-0.4v-0.4H20.707z M32.518,31.434H10.984
		V12.067h7.201l4.516,6.333h9.816V31.434z M32.518,17.599h-9.404l-1.835-2.574h11.24V17.599z"/>
	<g>
		<rect x="13.458" y="22.375" fill="#253F6B" width="16.125" height="1"/>
	</g>
	<g>
		<rect x="13.458" y="25.875" fill="#253F6B" width="16.125" height="1"/>
	</g>
</g>
</svg>
