<?xml version="1.0" encoding="utf-8"?>
<!-- Generator: Adobe Illustrator 15.1.0, SVG Export Plug-In . SVG Version: 6.00 Build 0)  -->
<!DOCTYPE svg PUBLIC "-//W3C//DTD SVG 1.1//EN" "http://www.w3.org/Graphics/SVG/1.1/DTD/svg11.dtd">
<svg version="1.1" id="Layer_1" xmlns="http://www.w3.org/2000/svg" xmlns:xlink="http://www.w3.org/1999/xlink" x="0px" y="0px"
	 width="19px" height="19px" viewBox="0 0 19 19" enable-background="new 0 0 19 19" xml:space="preserve">
<g id="Layer_1_1_">
	<circle fill="#313E6A" cx="9.5" cy="9.5" r="9.5"/>
</g>
<g>
	<g>
		<path fill="#FFFFFF" d="M12.875,15.4H6.124c-0.772,0-1.4-0.629-1.4-1.4V5c0-0.771,0.628-1.4,1.4-1.4h6.751
			c0.771,0,1.4,0.629,1.4,1.4v9C14.275,14.771,13.646,15.4,12.875,15.4z M6.124,4.4C5.793,4.4,5.523,4.669,5.523,5v9
			c0,0.331,0.27,0.6,0.601,0.6h6.751c0.331,0,0.6-0.269,0.6-0.6V5c0-0.331-0.269-0.6-0.6-0.6H6.124z"/>
	</g>
	<g>
		<path fill="#FFFFFF" d="M12.094,6.656c0,0.242-0.196,0.438-0.438,0.438H7.344c-0.242,0-0.438-0.195-0.438-0.438l0,0
			c0-0.242,0.195-0.438,0.438-0.438h4.313C11.897,6.219,12.094,6.414,12.094,6.656L12.094,6.656z"/>
		<path fill="#FFFFFF" d="M12.094,9.5c0,0.242-0.196,0.438-0.438,0.438H7.344c-0.242,0-0.438-0.195-0.438-0.438l0,0
			c0-0.242,0.195-0.438,0.438-0.438h4.313C11.897,9.063,12.094,9.258,12.094,9.5L12.094,9.5z"/>
		<path fill="#FFFFFF" d="M12.094,12.344c0,0.242-0.196,0.438-0.438,0.438H7.344c-0.242,0-0.438-0.195-0.438-0.438l0,0
			c0-0.242,0.195-0.438,0.438-0.438h4.313C11.897,11.906,12.094,12.102,12.094,12.344L12.094,12.344z"/>
	</g>
</g>
</svg>
