<?xml version="1.0" encoding="utf-8"?>
<!-- Generator: Adobe Illustrator 15.1.0, SVG Export Plug-In . SVG Version: 6.00 Build 0)  -->
<!DOCTYPE svg PUBLIC "-//W3C//DTD SVG 1.0//EN" "http://www.w3.org/TR/2001/REC-SVG-20010904/DTD/svg10.dtd">
<svg version="1.0" id="Layer_1" xmlns="http://www.w3.org/2000/svg" xmlns:xlink="http://www.w3.org/1999/xlink" x="0px" y="0px"
	 width="33px" height="40px" viewBox="0 0 33 40" enable-background="new 0 0 33 40" xml:space="preserve">
<g>
	<g>
		<path fill="#FFFFFF" d="M27.675,38.295H5.325c-0.96,0-1.741-0.74-1.741-1.649V3.354c0-0.91,0.781-1.65,1.741-1.65h22.35
			c0.96,0,1.741,0.74,1.741,1.65v33.292C29.416,37.555,28.635,38.295,27.675,38.295z M5.325,3.003c-0.239,0-0.441,0.16-0.441,0.35
			v33.292c0,0.19,0.202,0.351,0.441,0.351h22.35c0.239,0,0.441-0.16,0.441-0.351V3.354c0-0.19-0.202-0.35-0.441-0.35H5.325z"/>
	</g>
	<g>
		<g>
			<rect x="7.812" y="7.028" fill="#FFFFFF" width="17.377" height="1.119"/>
		</g>
		<g>
			<rect x="7.812" y="31.852" fill="#FFFFFF" width="17.377" height="1.119"/>
		</g>
		<g>
			<rect x="7.812" y="11.993" fill="#FFFFFF" width="17.377" height="1.119"/>
		</g>
		<g>
			<rect x="7.812" y="21.922" fill="#FFFFFF" width="17.377" height="1.119"/>
		</g>
		<g>
			<g>
				<rect x="7.812" y="16.958" fill="#FFFFFF" width="5.026" height="1.119"/>
			</g>
			<g>
				<rect x="14.711" y="16.958" fill="#FFFFFF" width="10.478" height="1.119"/>
			</g>
		</g>
		<g>
			<g>
				<rect x="7.812" y="26.887" fill="#FFFFFF" width="8.688" height="1.119"/>
			</g>
			<g>
				<rect x="19.311" y="26.887" fill="#FFFFFF" width="5.877" height="1.119"/>
			</g>
		</g>
	</g>
</g>
</svg>
