<?xml version="1.0" encoding="utf-8"?>
<!-- Generator: Adobe Illustrator 15.1.0, SVG Export Plug-In . SVG Version: 6.00 Build 0)  -->
<!DOCTYPE svg PUBLIC "-//W3C//DTD SVG 1.1//EN" "http://www.w3.org/Graphics/SVG/1.1/DTD/svg11.dtd">
<svg version="1.1" id="Layer_1" xmlns="http://www.w3.org/2000/svg" xmlns:xlink="http://www.w3.org/1999/xlink" x="0px" y="0px"
	 width="43.5px" height="43.5px" viewBox="0 0 43.5 43.5" enable-background="new 0 0 43.5 43.5" xml:space="preserve">
<g id="Layer_1_1_">
</g>
<g>
	<g>
		<g>
			<path fill="#253F6B" d="M21.75,43.5C9.757,43.5,0,33.743,0,21.75S9.757,0,21.75,0S43.5,9.757,43.5,21.75S33.743,43.5,21.75,43.5z
				 M21.75,1C10.309,1,1,10.309,1,21.75S10.309,42.5,21.75,42.5c11.441,0,20.75-9.309,20.75-20.75S33.191,1,21.75,1z"/>
		</g>
	</g>
	<g>
		<path fill="#253F6B" d="M21.75,25.065c-1.829,0-3.316-1.487-3.316-3.315c0-1.829,1.488-3.317,3.316-3.317
			c1.828,0,3.316,1.488,3.316,3.317C25.066,23.578,23.578,25.065,21.75,25.065z M21.75,19.232c-1.388,0-2.517,1.13-2.517,2.518
			c0,1.387,1.129,2.516,2.517,2.516s2.517-1.129,2.517-2.516C24.267,20.362,23.138,19.232,21.75,19.232z"/>
	</g>
	<g>
		<path fill="#253F6B" d="M8.792,21.833c0,0.253,0.205,0.458,0.458,0.458h9.125c0.253,0,0.458-0.205,0.458-0.458l0,0
			c0-0.253-0.205-0.458-0.458-0.458H9.25C8.997,21.375,8.792,21.58,8.792,21.833L8.792,21.833z"/>
	</g>
	<g>
		<path fill="#253F6B" d="M21.75,3.833c-0.253,0-0.458,0.306-0.458,0.684v13.631c0,0.379,0.205,0.686,0.458,0.686l0,0
			c0.253,0,0.458-0.307,0.458-0.686V4.517C22.208,4.139,22.003,3.833,21.75,3.833L21.75,3.833z"/>
	</g>
	<g>
		<path fill="#253F6B" d="M37.227,15.845c-1.301-4.042-3.915-7.66-7.36-10.189l0.475-0.645c3.578,2.628,6.295,6.389,7.647,10.59
			L37.227,15.845z"/>
		<path fill="#253F6B" d="M39.889,21.375c-0.012-3.746-1.013-7.43-2.894-10.655l0.691-0.403c1.951,3.348,2.99,7.17,3.002,11.056
			L39.889,21.375z"/>
	</g>
	<g>
		<path fill="#253F6B" d="M23.73,38.809c-4.495-0.01-8.787-1.416-12.412-4.065l0.472-0.646c3.488,2.55,7.617,3.902,11.942,3.911
			L23.73,38.809z"/>
		<path fill="#253F6B" d="M23.105,41.112h-0.094c-3.889,0-7.715-1.026-11.066-2.968l0.401-0.691
			c3.229,1.87,6.917,2.858,10.665,2.858L23.105,41.112z"/>
	</g>
</g>
</svg>
