<?xml version="1.0" encoding="utf-8"?>
<!-- Generator: Adobe Illustrator 15.1.0, SVG Export Plug-In . SVG Version: 6.00 Build 0)  -->
<!DOCTYPE svg PUBLIC "-//W3C//DTD SVG 1.0//EN" "http://www.w3.org/TR/2001/REC-SVG-20010904/DTD/svg10.dtd">
<svg version="1.0" xmlns="http://www.w3.org/2000/svg" xmlns:xlink="http://www.w3.org/1999/xlink" x="0px" y="0px" width="19px"
	 height="19px" viewBox="0 0 19 19" enable-background="new 0 0 19 19" xml:space="preserve">
<g id="Layer_1">
	<circle fill="#F15857" cx="9.5" cy="9.5" r="9.5"/>
</g>
<g id="Layer_2">
	<g>
		<path fill="#FFFFFF" d="M4.325,11.581V7.42h1.348c0.511,0,0.844,0.021,0.999,0.063C6.91,7.545,7.11,7.681,7.271,7.89
			C7.432,8.099,7.512,8.369,7.512,8.7c0,0.256-0.046,0.47-0.139,0.645C7.28,9.518,7.162,9.655,7.02,9.754
			C6.876,9.854,6.731,9.919,6.584,9.952c-0.201,0.04-0.491,0.06-0.872,0.06H5.165v1.569H4.325z M5.165,8.124v1.18h0.46
			c0.331,0,0.553-0.021,0.664-0.065C6.4,9.196,6.488,9.127,6.551,9.035c0.063-0.092,0.095-0.2,0.095-0.323
			c0-0.151-0.045-0.276-0.134-0.375c-0.089-0.098-0.201-0.16-0.337-0.184C6.075,8.133,5.874,8.124,5.571,8.124H5.165z"/>
		<path fill="#FFFFFF" d="M7.908,7.42h1.536c0.346,0,0.61,0.026,0.792,0.08c0.244,0.072,0.453,0.2,0.627,0.383
			c0.174,0.183,0.307,0.408,0.397,0.674s0.136,0.594,0.136,0.983c0,0.342-0.043,0.638-0.128,0.885
			c-0.104,0.303-0.252,0.548-0.445,0.735c-0.146,0.142-0.343,0.252-0.59,0.332c-0.186,0.059-0.434,0.088-0.744,0.088H7.908V7.42z
			 M8.748,8.124v2.755h0.627c0.235,0,0.404-0.013,0.508-0.04c0.136-0.034,0.249-0.092,0.339-0.173
			c0.09-0.081,0.163-0.215,0.22-0.401c0.057-0.187,0.085-0.44,0.085-0.762c0-0.321-0.028-0.568-0.085-0.741
			c-0.057-0.172-0.136-0.306-0.239-0.403c-0.102-0.097-0.231-0.162-0.389-0.196c-0.117-0.026-0.347-0.04-0.689-0.04H8.748z"/>
		<path fill="#FFFFFF" d="M11.824,11.581V7.42h2.852v0.704h-2.012v0.984H14.4v0.704h-1.737v1.768H11.824z"/>
	</g>
</g>
</svg>
