<?xml version="1.0" encoding="utf-8"?>
<!-- Generator: Adobe Illustrator 15.1.0, SVG Export Plug-In . SVG Version: 6.00 Build 0)  -->
<!DOCTYPE svg PUBLIC "-//W3C//DTD SVG 1.0//EN" "http://www.w3.org/TR/2001/REC-SVG-20010904/DTD/svg10.dtd">
<svg version="1.0" id="Layer_1" xmlns="http://www.w3.org/2000/svg" xmlns:xlink="http://www.w3.org/1999/xlink" x="0px" y="0px"
	 width="33px" height="40px" viewBox="0 0 33 40" enable-background="new 0 0 33 40" xml:space="preserve">
<g>
	<g>
		<path fill="#FFFFFF" d="M11.146,10.05c-2.422,0-4.392-1.971-4.392-4.393s1.97-4.393,4.392-4.393c2.422,0,4.393,1.971,4.393,4.393
			S13.568,10.05,11.146,10.05z M11.146,2.564c-1.705,0-3.092,1.388-3.092,3.093S9.441,8.75,11.146,8.75
			c1.706,0,3.093-1.388,3.093-3.093S12.852,2.564,11.146,2.564z"/>
	</g>
	<g>
		<path fill="#FFFFFF" d="M14.265,38.735c-1.218,0-2.252-0.951-2.355-2.166l-0.708-7.578l-0.532,7.553
			c-0.1,1.294-1.2,2.31-2.556,2.181c-1.288-0.101-2.264-1.241-2.166-2.541l0.997-12.893c-0.329,0.288-0.749,0.475-1.216,0.512
			L5.562,23.81c-1.088,0-2.008-0.851-2.094-1.937c-0.6-7.669,1.974-10.355,4.846-12.116c0.06-0.037,1.167-0.631,1.743-0.771
			l0.615,0.173l0.462,0.465l0.443-0.466l0.581-0.119l0.014-0.071c0.625,0.149,1.669,0.706,1.906,0.856
			c1.126,0.714,1.884,1.019,2.535,1.019c0.865,0,1.715-0.535,3.293-1.733c0.112-0.085,0.234-0.159,0.363-0.22V6.213
			c0-0.589,0.448-1.068,0.999-1.068h7.352c0.552,0,1,0.479,1,1.068v8.963c0,0.589-0.449,1.068-1,1.068h-7.352
			c-0.551,0-0.999-0.479-0.999-1.068V13.95c-1.266,0.729-2.874,1.318-4.643,1.069v6.114c0,0.245-0.047,0.961-0.241,1.459
			l1.242,13.569c0.055,0.633-0.14,1.246-0.547,1.729c-0.407,0.484-0.979,0.78-1.609,0.834
			C14.411,38.732,14.338,38.735,14.265,38.735z M11.33,23.775l0.745,0.583l1.129,12.095c0.047,0.553,0.513,0.982,1.061,0.982
			l0.079-0.003c0.299-0.026,0.557-0.16,0.741-0.378c0.184-0.218,0.271-0.494,0.247-0.777l-1.257-13.739l0.088-0.39
			c0.069-0.13,0.164-0.657,0.164-1.015v-6.911l0.819-0.627c1.77,0.479,3.262,0.104,5.406-1.363l1.017,0.537v2.176h6.751v-8.5h-6.751
			V9.36L21.031,10c-0.129,0.023-0.244,0.071-0.339,0.144c-1.591,1.208-2.733,1.999-4.081,1.999c-0.916,0-1.882-0.365-3.231-1.221
			c-0.174-0.11-0.735-0.399-1.148-0.568l-0.619,0.65l-0.932,0.01l-0.645-0.649c-0.393,0.162-0.922,0.43-1.05,0.503
			C6.474,12.41,4.218,14.8,4.764,21.77c0.033,0.415,0.384,0.74,0.798,0.74c0.507-0.037,0.838-0.424,0.804-0.867
			c-0.173-2.192-0.069-3.942,0.318-5.351l1.277,0.172v4.667c0,0.381,0.091,0.746,0.271,1.083l0.074,0.355L7.245,36.285
			C7.2,36.87,7.641,37.385,8.228,37.431c0.619-0.02,1.103-0.428,1.146-0.982l0.85-12.068l0.679-0.604
			c0.056,0.003,0.185,0.007,0.242,0.007C11.227,23.784,11.26,23.781,11.33,23.775z"/>
	</g>
</g>
</svg>
