<?xml version="1.0" encoding="utf-8"?>
<!-- Generator: Adobe Illustrator 15.1.0, SVG Export Plug-In . SVG Version: 6.00 Build 0)  -->
<!DOCTYPE svg PUBLIC "-//W3C//DTD SVG 1.0//EN" "http://www.w3.org/TR/2001/REC-SVG-20010904/DTD/svg10.dtd">
<svg version="1.0" xmlns="http://www.w3.org/2000/svg" xmlns:xlink="http://www.w3.org/1999/xlink" x="0px" y="0px" width="19px"
	 height="19px" viewBox="0 0 19 19" enable-background="new 0 0 19 19" xml:space="preserve">
<g id="Layer_1">
	<circle fill="#69C395" cx="9.5" cy="9.5" r="9.5"/>
</g>
<g id="Layer_2">
	<g>
		<path fill="#FFFFFF" d="M5.306,11.58V7.419h1.348c0.511,0,0.844,0.021,0.999,0.063C7.892,7.544,8.091,7.68,8.252,7.889
			c0.161,0.209,0.241,0.479,0.241,0.81c0,0.256-0.046,0.47-0.139,0.645c-0.093,0.174-0.211,0.311-0.354,0.41
			C7.858,9.853,7.713,9.919,7.565,9.951c-0.201,0.04-0.491,0.06-0.872,0.06H6.146v1.569H5.306z M6.146,8.124v1.18h0.46
			c0.331,0,0.553-0.021,0.664-0.065c0.112-0.043,0.199-0.112,0.263-0.205c0.063-0.092,0.095-0.2,0.095-0.323
			c0-0.151-0.045-0.276-0.134-0.375c-0.089-0.098-0.201-0.16-0.337-0.184C7.056,8.133,6.855,8.124,6.552,8.124H6.146z"/>
		<path fill="#FFFFFF" d="M8.867,11.58V7.419h0.84v4.161H8.867z"/>
		<path fill="#FFFFFF" d="M12.879,10.05l0.814,0.258c-0.125,0.454-0.333,0.792-0.623,1.012c-0.291,0.221-0.659,0.331-1.105,0.331
			c-0.552,0-1.006-0.188-1.362-0.566c-0.356-0.377-0.534-0.894-0.534-1.548c0-0.692,0.179-1.23,0.536-1.613
			c0.358-0.383,0.828-0.575,1.411-0.575c0.509,0,0.922,0.15,1.24,0.451c0.189,0.178,0.331,0.433,0.426,0.766l-0.832,0.199
			c-0.049-0.216-0.152-0.386-0.308-0.511c-0.156-0.125-0.346-0.188-0.569-0.188c-0.309,0-0.559,0.111-0.75,0.332
			c-0.192,0.222-0.288,0.58-0.288,1.076c0,0.526,0.094,0.901,0.284,1.124c0.189,0.223,0.435,0.335,0.738,0.335
			c0.223,0,0.416-0.071,0.576-0.213C12.693,10.578,12.809,10.355,12.879,10.05z"/>
	</g>
</g>
</svg>
