<?xml version="1.0" encoding="utf-8"?>
<!-- Generator: Adobe Illustrator 15.1.0, SVG Export Plug-In . SVG Version: 6.00 Build 0)  -->
<!DOCTYPE svg PUBLIC "-//W3C//DTD SVG 1.0//EN" "http://www.w3.org/TR/2001/REC-SVG-20010904/DTD/svg10.dtd">
<svg version="1.0" id="Layer_1" xmlns="http://www.w3.org/2000/svg" xmlns:xlink="http://www.w3.org/1999/xlink" x="0px" y="0px"
	 width="35.333px" height="35.333px" viewBox="0 0 35.333 35.333" enable-background="new 0 0 35.333 35.333" xml:space="preserve">
<g>
	<g>
		<path fill="#FFFFFF" d="M5.696,18.827c0.208,0,0.404-0.081,0.552-0.229l8.974-8.974l1.799,1.799c0.295,0.295,0.808,0.295,1.103,0
			l5.186-5.186v1.188c0,0.43,0.35,0.78,0.78,0.78c0.43,0,0.779-0.35,0.779-0.78l-0.001-3.03c0.012-0.22-0.07-0.435-0.226-0.592
			c-0.147-0.147-0.343-0.228-0.605-0.229H20.83c-0.43,0-0.78,0.35-0.78,0.78s0.35,0.78,0.78,0.78h1.376l-4.635,4.634L15.773,7.97
			c-0.295-0.295-0.809-0.295-1.104,0l-9.524,9.525c-0.147,0.147-0.229,0.342-0.229,0.551s0.081,0.405,0.229,0.553
			C5.293,18.746,5.489,18.827,5.696,18.827z"/>
		<path fill="#FFFFFF" d="M31.937,30.225H21.419c0.033-0.14,0.054-0.284,0.054-0.433V18.667c0-1.048-0.852-1.9-1.9-1.9h-2.441
			c-1.048,0-1.9,0.852-1.9,1.9v11.125c0,0.149,0.021,0.293,0.054,0.433h-3.7v-6.777c0-0.896-0.834-1.598-1.9-1.598H7.246
			c-1.065,0-1.9,0.702-1.9,1.598v6.777H3.687c-0.497,0-0.9,0.403-0.9,0.9s0.403,0.9,0.9,0.9h3.125
			c0.14,0.027,0.284,0.044,0.435,0.044h2.441c0.151,0,0.295-0.017,0.435-0.044h21.815c0.497,0,0.9-0.403,0.9-0.9
			S32.434,30.225,31.937,30.225z M17.033,18.667c0-0.055,0.045-0.1,0.1-0.1h2.441c0.055,0,0.1,0.045,0.1,0.1v11.125
			c0,0.055-0.045,0.1-0.1,0.1h-2.441c-0.055,0-0.1-0.045-0.1-0.1V18.667z M7.146,23.66c0.028-0.006,0.062-0.01,0.1-0.01h2.441
			c0.039,0,0.072,0.004,0.1,0.01v6.565H7.146V23.66z"/>
	</g>
	<g>
		<path fill="#ED1F24" d="M30.062,12.16c0-0.53-0.448-0.959-1-0.959h-2.441c-0.552,0-1,0.429-1,0.959v17.672
			c0,0.53,0.448,0.959,1,0.959h2.441c0.552,0,1-0.43,1-0.959V12.16z"/>
		<path fill="#FFFFFF" d="M29.062,31.692h-2.441c-1.048,0-1.9-0.834-1.9-1.859V12.16c0-1.025,0.852-1.859,1.9-1.859h2.441
			c1.048,0,1.9,0.834,1.9,1.859v17.672C30.962,30.858,30.11,31.692,29.062,31.692z M26.621,12.101c-0.064,0-0.1,0.04-0.1,0.06
			v17.672c0,0.02,0.036,0.06,0.1,0.06h2.441c0.064,0,0.1-0.04,0.1-0.06V12.16c0-0.02-0.036-0.06-0.1-0.06H26.621z"/>
	</g>
</g>
</svg>
