<?xml version="1.0" encoding="utf-8"?>
<!-- Generator: Adobe Illustrator 15.1.0, SVG Export Plug-In . SVG Version: 6.00 Build 0)  -->
<!DOCTYPE svg PUBLIC "-//W3C//DTD SVG 1.0//EN" "http://www.w3.org/TR/2001/REC-SVG-20010904/DTD/svg10.dtd">
<svg version="1.0" id="Layer_1" xmlns="http://www.w3.org/2000/svg" xmlns:xlink="http://www.w3.org/1999/xlink" x="0px" y="0px"
	 width="35.333px" height="35.333px" viewBox="0 0 35.333 35.333" enable-background="new 0 0 35.333 35.333" xml:space="preserve">
<g>
	<path fill="#FFFFFF" d="M33.964,26.673h-1.3c-0.416-1.974-2.169-3.461-4.266-3.461c-2.096,0-3.848,1.487-4.264,3.461h-2.202
		c-0.355-1.683-1.682-3.01-3.365-3.365l0-3.947c4.083-0.451,7.271-3.918,7.271-8.119c0-4.505-3.666-8.171-8.171-8.171
		c-4.505,0-8.17,3.666-8.17,8.171c0,4.201,3.188,7.669,7.271,8.119l0,3.947c-1.683,0.354-3.011,1.682-3.365,3.366H11.2
		c-0.416-1.974-2.169-3.461-4.266-3.461c-2.096,0-3.848,1.487-4.264,3.461h-1.3c-0.497,0-0.9,0.403-0.9,0.9s0.403,0.9,0.9,0.9h1.3
		c0.416,1.974,2.168,3.46,4.264,3.46c2.097,0,3.85-1.487,4.266-3.46h2.202c0.416,1.974,2.168,3.46,4.264,3.46
		c2.096,0,3.85-1.487,4.266-3.46h2.202c0.416,1.974,2.168,3.46,4.264,3.46c2.097,0,3.85-1.487,4.266-3.46h1.3
		c0.497,0,0.9-0.403,0.9-0.9S34.461,26.673,33.964,26.673z M6.934,30.134c-1.412,0-2.56-1.149-2.56-2.561
		c0-1.412,1.148-2.561,2.56-2.561c1.413,0,2.562,1.149,2.562,2.561C9.496,28.985,8.346,30.134,6.934,30.134z M11.295,11.242
		c0-3.513,2.858-6.371,6.371-6.371c3.513,0,6.372,2.858,6.372,6.371s-2.858,6.371-6.372,6.371
		C14.153,17.613,11.295,14.755,11.295,11.242z M17.666,30.134c-1.412,0-2.56-1.149-2.56-2.561c0-1.412,1.148-2.561,2.56-2.561
		c1.413,0,2.562,1.149,2.562,2.561C20.228,28.985,19.078,30.134,17.666,30.134z M28.397,30.134c-1.412,0-2.56-1.149-2.56-2.561
		c0-1.412,1.148-2.561,2.56-2.561c1.413,0,2.562,1.149,2.562,2.561C30.959,28.985,29.81,30.134,28.397,30.134z"/>
	<path fill="#FFFFFF" d="M14.706,9.492h5.922c0.276,0,0.5-0.224,0.5-0.5s-0.224-0.5-0.5-0.5h-5.922c-0.276,0-0.5,0.224-0.5,0.5
		S14.429,9.492,14.706,9.492z"/>
	<path fill="#FFFFFF" d="M14.706,11.734h5.922c0.276,0,0.5-0.224,0.5-0.5s-0.224-0.5-0.5-0.5h-5.922c-0.276,0-0.5,0.224-0.5,0.5
		S14.429,11.734,14.706,11.734z"/>
	<path fill="#FFFFFF" d="M21.127,13.492c0-0.276-0.224-0.5-0.5-0.5h-5.922c-0.276,0-0.5,0.224-0.5,0.5s0.224,0.5,0.5,0.5h5.922
		C20.904,13.992,21.127,13.769,21.127,13.492z"/>
</g>
</svg>
