<?xml version="1.0" encoding="utf-8"?>
<!-- Generator: Adobe Illustrator 15.1.0, SVG Export Plug-In . SVG Version: 6.00 Build 0)  -->
<!DOCTYPE svg PUBLIC "-//W3C//DTD SVG 1.0//EN" "http://www.w3.org/TR/2001/REC-SVG-20010904/DTD/svg10.dtd">
<svg version="1.0" id="Layer_1" xmlns="http://www.w3.org/2000/svg" xmlns:xlink="http://www.w3.org/1999/xlink" x="0px" y="0px"
	 width="33px" height="40px" viewBox="0 0 33 40" enable-background="new 0 0 33 40" xml:space="preserve">
<g>
	<g>
		<g>
			<path fill="#FFFFFF" d="M24.086,37.382c-1.312,0-2.363-0.784-2.745-2.046c-0.941-3.115-1.542-6.354-1.828-9.86
				c-0.776,2.774-1.087,5.637-0.95,8.702c0.036,0.796-0.208,1.492-0.704,2.012c-0.515,0.539-1.281,0.848-2.102,0.848
				c-1.433,0-2.927-0.962-3.01-2.801c-0.206-4.595,0.553-9.045,2.319-13.597c-2.859-0.068-4.754-0.949-5.634-2.621
				c-0.893-1.698-0.883-4.387,4.23-7.549c0.152-0.094,0.312-0.169,0.487-0.23c0.632-0.357,2.226-0.952,3.647-0.952
				c0.402,0,0.781,0.045,1.126,0.135c4.18,1.567,7.449,4.108,9.779,7.574c0.462,0.688,0.52,1.472,0.158,2.152
				c-0.403,0.758-1.276,1.267-2.171,1.267c0,0,0,0,0,0c-0.732,0-1.373-0.324-1.82-0.917c0.069,0.313,0.265,1.238,0.266,1.633
				c0.031,4.572,0.623,8.704,1.81,12.628c0.267,0.883,0.134,1.744-0.372,2.425C26.024,36.924,25.071,37.382,24.086,37.382z
				 M19.668,23.082c0.175,0.08,0.358,0.141,0.545,0.187l0.494,0.596c0.217,4.001,0.832,7.631,1.878,11.096
				c0.306,1.013,1.151,1.122,1.5,1.122c0.573,0,1.139-0.264,1.443-0.672c0.262-0.353,0.319-0.781,0.17-1.274
				c-1.224-4.045-1.834-8.297-1.865-12.998c0-0.189-0.123-0.851-0.241-1.384c-0.218-0.99-0.533-1.978-0.937-2.935l1.048-0.723
				c0.816,0.779,1.543,1.641,2.161,2.562c0.204,0.303,0.481,0.457,0.824,0.457c0.415,0,0.846-0.243,1.024-0.577
				c0.134-0.253,0.104-0.527-0.09-0.815c-2.176-3.237-5.236-5.613-9.092-7.063c-0.173-0.041-0.442-0.073-0.734-0.073
				c-1.379,0-2.877,0.696-3.056,0.801l-0.011-0.019l-0.14,0.094c-0.092,0.031-0.169,0.066-0.244,0.112
				c-2.352,1.454-4.914,3.648-3.763,5.838c0.684,1.299,2.27,1.93,4.848,1.93c1.176,0,2.333-0.133,3.326-0.258
				c0.354-0.045,0.655-0.184,0.846-0.39l0.086-0.077c0.153-0.116,0.219-0.257,0.219-0.472c0-0.115-0.055-0.269-0.144-0.403
				c-0.208-0.418-0.511-0.658-0.781-0.658c-1.927,0.237-3.212,0.294-4.604,0.173c-0.47-0.04-0.911-0.164-1.281-0.279
				c-0.032-0.01-0.063-0.02-0.093-0.029l-0.053,0.025l-0.559-0.314l0.128-0.08l-0.021-0.073l-0.14,0.058L12.5,16.5l-0.026-0.089
				l-0.157,0.028l0.005-0.07l-0.046-0.006l0.001-0.009c0.012-0.074,0.023-0.135,0.038-0.192l0.006-0.001
				c0.006-0.02,0.013-0.039,0.021-0.059l0.004-0.049l0.015,0.006c0.001-0.003,0.003-0.006,0.004-0.009l-0.009-0.031
				c0.06-0.18,0.148-0.334,0.305-0.533c0.273-0.351,0.609-0.692,1.025-1.039l0.979,0.173c0.119,0.206,0.253,0.396,0.398,0.565
				c0.09,0.107,0.176,0.214,0.261,0.322c1.078,0.036,2.25-0.032,3.764-0.222c1.712-0.21,3.009,1.42,3.008,2.862
				c0,1.506-1.099,2.656-2.735,2.863c-0.986,0.124-2.044,0.241-3.15,0.277c-1.651,4.318-2.359,8.541-2.164,12.892
				c0.076,1.694,2.13,1.894,2.873,1.113c0.249-0.26,0.365-0.615,0.345-1.055c-0.171-3.822,0.326-7.347,1.519-10.777L19.668,23.082z"
				/>
		</g>
		<g>
			<path fill="#FFFFFF" d="M13.191,10.705c-2.214,0-4.016-1.801-4.016-4.015c0-2.215,1.801-4.017,4.016-4.017
				s4.016,1.802,4.016,4.017C17.208,8.904,15.406,10.705,13.191,10.705z M13.191,3.973c-1.498,0-2.716,1.219-2.716,2.717
				c0,1.497,1.218,2.715,2.716,2.715s2.716-1.218,2.716-2.715C15.908,5.192,14.689,3.973,13.191,3.973z"/>
		</g>
		<g>
			<path fill="#FFFFFF" d="M5.188,23.938l-0.167-0.016c-0.128-0.022-0.26-0.082-0.373-0.169c-0.18-0.137-0.3-0.344-0.331-0.577
				c-0.031-0.233,0.031-0.465,0.175-0.652c0.603-0.781,1.395-1.53,2.293-2.166c0.283-0.204,0.693-0.215,0.989-0.02
				c0.037,0.023,0.071,0.049,0.103,0.077c0.775-0.514,1.497-0.93,2.19-1.265c0.434-0.206,0.972-0.009,1.173,0.409
				c0.103,0.214,0.115,0.453,0.037,0.675s-0.239,0.399-0.451,0.5c-1.209,0.583-2.324,1.359-3.159,1.971
				c-0.279,0.209-0.698,0.225-0.996,0.029c-0.002-0.001-0.004-0.003-0.007-0.004c-0.293,0.283-0.558,0.576-0.782,0.867
				C5.719,23.813,5.465,23.938,5.188,23.938z"/>
		</g>
		<g>
			<path fill="#FFFFFF" d="M3.962,30.203c-0.174,0-0.339-0.041-0.488-0.12c-0.237-0.117-0.427-0.335-0.517-0.604
				c-0.09-0.27-0.07-0.558,0.058-0.812c0.77-1.539,1.879-3.094,3.209-4.498c0.288-0.305,0.761-0.411,1.155-0.26
				c0.181,0.072,0.333,0.188,0.447,0.331c1.309-1.323,2.509-2.383,3.72-3.29c0.448-0.338,1.146-0.238,1.484,0.211
				c0.171,0.229,0.243,0.509,0.202,0.79c-0.041,0.28-0.188,0.528-0.415,0.697c-1.984,1.488-3.701,3.268-4.975,4.652
				c-0.2,0.218-0.484,0.343-0.78,0.343l0,0c-0.132,0-0.261-0.024-0.385-0.072c-0.134-0.052-0.254-0.13-0.354-0.228
				c-0.556,0.75-1.036,1.522-1.413,2.274C4.732,29.977,4.368,30.203,3.962,30.203z M6.625,25.661l0.651,0.218
				c0.002,0.038,0.004,0.075,0.006,0.113c0.043-0.046,0.087-0.093,0.131-0.14l-0.631-0.229c-0.002-0.044-0.005-0.088-0.008-0.132
				C6.725,25.547,6.675,25.604,6.625,25.661z"/>
		</g>
	</g>
</g>
</svg>
