<?xml version="1.0" encoding="utf-8"?>
<!-- Generator: Adobe Illustrator 15.1.0, SVG Export Plug-In . SVG Version: 6.00 Build 0)  -->
<!DOCTYPE svg PUBLIC "-//W3C//DTD SVG 1.1//EN" "http://www.w3.org/Graphics/SVG/1.1/DTD/svg11.dtd">
<svg version="1.1" xmlns="http://www.w3.org/2000/svg" xmlns:xlink="http://www.w3.org/1999/xlink" x="0px" y="0px" width="43.5px"
	 height="43.5px" viewBox="0 0 43.5 43.5" enable-background="new 0 0 43.5 43.5" xml:space="preserve">
<g id="Layer_1">
</g>
<g id="Layer_2">
	<g>
		<g>
			<path fill="#253F6B" d="M21.75,43.5C9.757,43.5,0,33.743,0,21.75S9.757,0,21.75,0S43.5,9.757,43.5,21.75S33.743,43.5,21.75,43.5z
				 M21.75,1C10.309,1,1,10.309,1,21.75S10.309,42.5,21.75,42.5S42.5,33.191,42.5,21.75S33.191,1,21.75,1z"/>
		</g>
		<g>
			<path fill="#253F6B" d="M26.25,7.466h-9c-1.902,0-3.45,1.548-3.45,3.45v21.667c0,1.902,1.548,3.45,3.45,3.45h9
				c1.902,0,3.45-1.548,3.45-3.45V10.916C29.7,9.014,28.152,7.466,26.25,7.466z M17.25,8.366h9c1.406,0,2.55,1.144,2.55,2.55v1.254
				H14.7v-1.254C14.7,9.51,15.844,8.366,17.25,8.366z M28.8,13.07v14.433H14.7V13.07H28.8z M26.25,35.133h-9
				c-1.406,0-2.55-1.144-2.55-2.55v-4.18h14.1v4.18C28.8,33.989,27.656,35.133,26.25,35.133z"/>
			<path fill="#253F6B" d="M21.75,29.703c-1.111,0-2.014,0.903-2.014,2.015c0,1.11,0.903,2.014,2.014,2.014s2.014-0.903,2.014-2.014
				C23.764,30.606,22.861,29.703,21.75,29.703z M21.75,33.231c-0.835,0-1.514-0.679-1.514-1.514s0.679-1.515,1.514-1.515
				s1.514,0.68,1.514,1.515S22.585,33.231,21.75,33.231z"/>
			<path fill="#253F6B" d="M20.486,11.203h2.528c0.414,0,0.75-0.337,0.75-0.75s-0.336-0.75-0.75-0.75h-2.528
				c-0.414,0-0.75,0.337-0.75,0.75S20.072,11.203,20.486,11.203z M20.486,10.203h2.528c0.138,0,0.25,0.112,0.25,0.25
				s-0.112,0.25-0.25,0.25h-2.528c-0.138,0-0.25-0.112-0.25-0.25S20.348,10.203,20.486,10.203z"/>
		</g>
	</g>
</g>
</svg>
