<?xml version="1.0" encoding="utf-8"?>
<!-- Generator: Adobe Illustrator 15.1.0, SVG Export Plug-In . SVG Version: 6.00 Build 0)  -->
<!DOCTYPE svg PUBLIC "-//W3C//DTD SVG 1.1//EN" "http://www.w3.org/Graphics/SVG/1.1/DTD/svg11.dtd">
<svg version="1.1" id="Layer_1" xmlns="http://www.w3.org/2000/svg" xmlns:xlink="http://www.w3.org/1999/xlink" x="0px" y="0px"
	 width="44.5px" height="44.5px" viewBox="0 0 44.5 44.5" enable-background="new 0 0 44.5 44.5" xml:space="preserve">
<g>
	<path fill="#FFFFFF" d="M38.667,0.994H5.833c-2.371,0-4.3,1.929-4.3,4.3v34.408c0,2.371,1.929,4.3,4.3,4.3h32.833
		c2.371,0,4.3-1.929,4.3-4.3V5.293C42.966,2.922,41.038,0.994,38.667,0.994z M5.833,3.593h32.833c0.938,0,1.7,0.763,1.7,1.7V12.2
		H4.133V5.293C4.133,4.356,4.896,3.593,5.833,3.593z M38.667,41.402H5.833c-0.938,0-1.7-0.763-1.7-1.7V14.8h36.234v24.902
		C40.367,40.639,39.604,41.402,38.667,41.402z"/>
	<path fill="#FFFFFF" d="M24.958,20.417c0,0.966-0.783,1.75-1.75,1.75h-1.667c-0.966,0-1.75-0.784-1.75-1.75l0,0
		c0-0.966,0.784-1.75,1.75-1.75h1.667C24.175,18.667,24.958,19.451,24.958,20.417L24.958,20.417z"/>
	<path fill="#FFFFFF" d="M31.729,20.417c0,0.966-0.784,1.75-1.75,1.75h-1.667c-0.966,0-1.75-0.784-1.75-1.75l0,0
		c0-0.966,0.784-1.75,1.75-1.75h1.667C30.945,18.667,31.729,19.451,31.729,20.417L31.729,20.417z"/>
	<path fill="#FFFFFF" d="M38.5,20.417c0,0.966-0.784,1.75-1.75,1.75h-1.667c-0.966,0-1.75-0.784-1.75-1.75l0,0
		c0-0.966,0.784-1.75,1.75-1.75h1.667C37.716,18.667,38.5,19.451,38.5,20.417L38.5,20.417z"/>
	<g>
		<path fill="#FFFFFF" d="M11.417,28.042c0,0.966-0.784,1.75-1.75,1.75H8c-0.966,0-1.75-0.784-1.75-1.75l0,0
			c0-0.966,0.784-1.75,1.75-1.75h1.667C10.633,26.292,11.417,27.076,11.417,28.042L11.417,28.042z"/>
		<path fill="#FFFFFF" d="M18.188,28.042c0,0.966-0.784,1.75-1.75,1.75h-1.667c-0.966,0-1.75-0.784-1.75-1.75l0,0
			c0-0.966,0.784-1.75,1.75-1.75h1.667C17.404,26.292,18.188,27.076,18.188,28.042L18.188,28.042z"/>
		<path fill="#FFFFFF" d="M24.958,28.042c0,0.966-0.783,1.75-1.75,1.75h-1.667c-0.966,0-1.75-0.784-1.75-1.75l0,0
			c0-0.966,0.784-1.75,1.75-1.75h1.667C24.175,26.292,24.958,27.076,24.958,28.042L24.958,28.042z"/>
		<path fill="#FFFFFF" d="M31.729,28.042c0,0.966-0.784,1.75-1.75,1.75h-1.667c-0.966,0-1.75-0.784-1.75-1.75l0,0
			c0-0.966,0.784-1.75,1.75-1.75h1.667C30.945,26.292,31.729,27.076,31.729,28.042L31.729,28.042z"/>
		<path fill="#FFFFFF" d="M38.5,28.042c0,0.966-0.784,1.75-1.75,1.75h-1.667c-0.966,0-1.75-0.784-1.75-1.75l0,0
			c0-0.966,0.784-1.75,1.75-1.75h1.667C37.716,26.292,38.5,27.076,38.5,28.042L38.5,28.042z"/>
	</g>
	<g>
		<path fill="#FFFFFF" d="M11.417,35.667c0,0.966-0.784,1.75-1.75,1.75H8c-0.966,0-1.75-0.784-1.75-1.75l0,0
			c0-0.966,0.784-1.75,1.75-1.75h1.667C10.633,33.917,11.417,34.701,11.417,35.667L11.417,35.667z"/>
		<path fill="#FFFFFF" d="M18.188,35.667c0,0.966-0.784,1.75-1.75,1.75h-1.667c-0.966,0-1.75-0.784-1.75-1.75l0,0
			c0-0.966,0.784-1.75,1.75-1.75h1.667C17.404,33.917,18.188,34.701,18.188,35.667L18.188,35.667z"/>
		<path fill="#FFFFFF" d="M24.958,35.667c0,0.966-0.783,1.75-1.75,1.75h-1.667c-0.966,0-1.75-0.784-1.75-1.75l0,0
			c0-0.966,0.784-1.75,1.75-1.75h1.667C24.175,33.917,24.958,34.701,24.958,35.667L24.958,35.667z"/>
		<path fill="#FFFFFF" d="M31.729,35.667c0,0.966-0.784,1.75-1.75,1.75h-1.667c-0.966,0-1.75-0.784-1.75-1.75l0,0
			c0-0.966,0.784-1.75,1.75-1.75h1.667C30.945,33.917,31.729,34.701,31.729,35.667L31.729,35.667z"/>
		<path fill="#FFFFFF" d="M38.5,35.667c0,0.966-0.784,1.75-1.75,1.75h-1.667c-0.966,0-1.75-0.784-1.75-1.75l0,0
			c0-0.966,0.784-1.75,1.75-1.75h1.667C37.716,33.917,38.5,34.701,38.5,35.667L38.5,35.667z"/>
	</g>
</g>
</svg>
