<?xml version="1.0" encoding="utf-8"?>
<!-- Generator: Adobe Illustrator 15.1.0, SVG Export Plug-In . SVG Version: 6.00 Build 0)  -->
<!DOCTYPE svg PUBLIC "-//W3C//DTD SVG 1.1//EN" "http://www.w3.org/Graphics/SVG/1.1/DTD/svg11.dtd">
<svg version="1.1" id="Layer_1" xmlns="http://www.w3.org/2000/svg" xmlns:xlink="http://www.w3.org/1999/xlink" x="0px" y="0px"
	 width="44.5px" height="44.5px" viewBox="0 0 44.5 44.5" enable-background="new 0 0 44.5 44.5" xml:space="preserve">
<g>
	<g>
		<path fill="#FFFFFF" d="M22.251,32.004c5.398,0,9.754-4.39,9.754-9.754c0-5.365-4.39-9.754-9.754-9.754
			c-5.365,0-9.754,4.389-9.754,9.754C12.497,27.614,16.851,32.004,22.251,32.004z M22.251,15.317c3.831,0,6.932,3.101,6.932,6.933
			c0,3.831-3.101,6.933-6.932,6.933c-3.833,0-6.932-3.102-6.932-6.933C15.319,18.418,18.418,15.317,22.251,15.317z"/>
		<path fill="#FFFFFF" d="M23.679,7.967V3.474c0-0.801-0.627-1.428-1.428-1.428c-0.802,0-1.429,0.627-1.429,1.428v4.493
			c0,0.801,0.627,1.428,1.429,1.428C23.052,9.396,23.679,8.769,23.679,7.967z"/>
		<path fill="#FFFFFF" d="M20.822,36.532v4.493c0,0.802,0.627,1.429,1.429,1.429c0.801,0,1.428-0.627,1.428-1.429v-4.493
			c0-0.801-0.627-1.428-1.428-1.428C21.449,35.104,20.822,35.731,20.822,36.532z"/>
		<path fill="#FFFFFF" d="M33.363,13.158l3.17-3.17c0.558-0.558,0.558-1.463,0-2.021c-0.558-0.557-1.464-0.557-2.021,0l-3.17,3.17
			c-0.558,0.557-0.558,1.463,0,2.021c0.278,0.278,0.627,0.418,1.01,0.418C32.736,13.576,33.085,13.437,33.363,13.158L33.363,13.158z
			"/>
		<path fill="#FFFFFF" d="M7.968,36.532c0.279,0.279,0.627,0.418,1.011,0.418c0.348,0,0.731-0.139,1.009-0.418l3.17-3.17
			c0.558-0.558,0.558-1.463,0-2.021c-0.557-0.558-1.463-0.558-2.02,0l-3.17,3.17C7.411,35.069,7.411,35.975,7.968,36.532z"/>
		<path fill="#FFFFFF" d="M42.454,22.25c0-0.801-0.627-1.429-1.428-1.429h-4.493c-0.802,0-1.429,0.627-1.429,1.429
			c0,0.801,0.627,1.429,1.429,1.429h4.493C41.794,23.679,42.454,23.051,42.454,22.25z"/>
		<path fill="#FFFFFF" d="M3.475,23.679h4.493c0.801,0,1.428-0.628,1.428-1.429c0-0.801-0.627-1.429-1.428-1.429H3.475
			c-0.802,0-1.429,0.627-1.429,1.429C2.046,23.051,2.708,23.679,3.475,23.679z"/>
		<path fill="#FFFFFF" d="M35.522,36.95c0.349,0,0.732-0.139,1.011-0.418c0.558-0.558,0.558-1.463,0-2.021l-3.17-3.17
			c-0.558-0.558-1.463-0.558-2.021,0s-0.558,1.463,0,2.021l3.17,3.17C34.791,36.812,35.175,36.95,35.522,36.95z"/>
		<path fill="#FFFFFF" d="M13.158,13.158c0.558-0.558,0.558-1.463,0-2.021l-3.17-3.17c-0.557-0.557-1.463-0.557-2.02,0
			c-0.558,0.558-0.558,1.463,0,2.021l3.17,3.17c0.279,0.278,0.627,0.418,1.01,0.418C12.532,13.576,12.88,13.437,13.158,13.158z"/>
	</g>
</g>
</svg>
