<?xml version="1.0" encoding="utf-8"?>
<!-- Generator: Adobe Illustrator 15.1.0, SVG Export Plug-In . SVG Version: 6.00 Build 0)  -->
<!DOCTYPE svg PUBLIC "-//W3C//DTD SVG 1.1//EN" "http://www.w3.org/Graphics/SVG/1.1/DTD/svg11.dtd">
<svg version="1.1" xmlns="http://www.w3.org/2000/svg" xmlns:xlink="http://www.w3.org/1999/xlink" x="0px" y="0px" width="43.5px"
	 height="43.5px" viewBox="0 0 43.5 43.5" enable-background="new 0 0 43.5 43.5" xml:space="preserve">
<g id="Layer_1">
</g>
<g id="Layer_2">
	<g>
		<g>
			<path fill="#253F6B" d="M21.75,43.5C9.757,43.5,0,33.743,0,21.75S9.757,0,21.75,0S43.5,9.757,43.5,21.75S33.743,43.5,21.75,43.5z
				 M21.75,1C10.309,1,1,10.309,1,21.75S10.309,42.5,21.75,42.5S42.5,33.191,42.5,21.75S33.191,1,21.75,1z"/>
		</g>
		<g>
			<g id="Shape_19_1_">
				<g>
					<path fill="#253F6B" d="M18.625,19.647c-0.421-0.99-0.785-1.845-0.546-3.271c0.435-2.584,4.929-5.51,9.847-5.26l0.042-0.813
						c-5.417-0.271-10.199,2.968-10.698,5.939c-0.278,1.659,0.168,2.708,0.601,3.722c0.326,0.765,0.662,1.554,0.717,2.668
						c0.086,1.75-5.231,4.552-8.602,5.906l0.308,0.755c0.947-0.38,9.256-3.803,9.114-6.701
						C19.344,21.335,18.963,20.438,18.625,19.647z M30.58,25.346c-0.169-2.259-1.362-4.435-3.017-5.543
						c-2.897-1.939-3.125-2.972-2.514-4.01c1.409-2.39,5.051-2.425,5.051-2.425v-0.813c0,0-4.111,0.032-5.758,2.827
						c-1.213,2.058,0.65,3.666,2.788,5.097c1.455,0.974,2.494,2.909,2.646,4.928c0.135,1.79-0.333,4.494-3.321,7.215l0.555,0.6
						C30.238,30.28,30.727,27.315,30.58,25.346z M18.947,31.015l0.191,0.792c0.018-0.004,0.443-0.106,1.037-0.378l-0.343-0.74
						C19.317,30.924,18.95,31.014,18.947,31.015z M21.669,20.075c0.331,0.581,0.677,1.205,0.965,1.891l0.757-0.313
						c-0.306-0.728-0.666-1.376-1.008-1.979L21.669,20.075z M21.402,15.998l-0.748-0.331c-0.17,0.377-0.252,0.755-0.252,1.155
						c0,0.395,0.082,0.808,0.25,1.262l0.77-0.282c-0.135-0.362-0.201-0.682-0.201-0.979C21.221,16.538,21.281,16.27,21.402,15.998z
						 M21.535,29.564l0.559,0.596c0.581-0.538,1.046-1.161,1.384-1.854l-0.738-0.354C22.447,28.553,22.042,29.095,21.535,29.564z
						 M24.027,23.822l-0.809,0.13c0.04,0.245,0.069,0.494,0.086,0.741c0.013,0.19,0.019,0.375,0.019,0.555
						c0,0.258-0.014,0.513-0.04,0.759l0.816,0.085c0.028-0.274,0.043-0.558,0.043-0.844c0-0.197-0.007-0.401-0.021-0.61
						C24.103,24.367,24.072,24.091,24.027,23.822z M23.03,13.236c-0.313,0.209-0.6,0.42-0.854,0.626l0.517,0.632
						c0.235-0.19,0.503-0.387,0.796-0.583L23.03,13.236z"/>
				</g>
			</g>
		</g>
	</g>
</g>
</svg>
