<?xml version="1.0" encoding="utf-8"?>
<!-- Generator: Adobe Illustrator 15.1.0, SVG Export Plug-In . SVG Version: 6.00 Build 0)  -->
<!DOCTYPE svg PUBLIC "-//W3C//DTD SVG 1.0//EN" "http://www.w3.org/TR/2001/REC-SVG-20010904/DTD/svg10.dtd">
<svg version="1.0" id="Layer_1" xmlns="http://www.w3.org/2000/svg" xmlns:xlink="http://www.w3.org/1999/xlink" x="0px" y="0px"
	 width="55.306px" height="55.334px" viewBox="0 0 55.306 55.334" enable-background="new 0 0 55.306 55.334" xml:space="preserve">
<g>
	<circle fill="#D52727" cx="27.653" cy="27.667" r="27.667"/>
	<g>
		<g>
			<g>
				<path fill="#FFFFFF" d="M40.424,47.518H14.883c-0.938,0-1.7-0.764-1.7-1.701v-36.3c0-0.938,0.763-1.7,1.7-1.7h25.541
					c0.938,0,1.699,0.763,1.699,1.7v36.3C42.123,46.754,41.361,47.518,40.424,47.518z M14.883,9.217c-0.166,0-0.3,0.134-0.3,0.3
					v36.3c0,0.166,0.134,0.301,0.3,0.301h25.541c0.165,0,0.299-0.135,0.299-0.301v-36.3c0-0.166-0.134-0.3-0.299-0.3H14.883z"/>
			</g>
		</g>
		<g>
			
				<rect x="26.051" y="18.755" transform="matrix(0.707 0.7072 -0.7072 0.707 27.6672 -11.45)" fill="#FFFFFF" width="3.204" height="17.825"/>
			
				<rect x="26.051" y="18.755" transform="matrix(-0.7071 0.7071 -0.7071 -0.7071 66.77 27.6774)" fill="#FFFFFF" width="3.204" height="17.825"/>
		</g>
	</g>
</g>
</svg>
