<?xml version="1.0" encoding="utf-8"?>
<!-- Generator: Adobe Illustrator 15.1.0, SVG Export Plug-In . SVG Version: 6.00 Build 0)  -->
<!DOCTYPE svg PUBLIC "-//W3C//DTD SVG 1.0//EN" "http://www.w3.org/TR/2001/REC-SVG-20010904/DTD/svg10.dtd">
<svg version="1.0" id="Layer_1" xmlns="http://www.w3.org/2000/svg" xmlns:xlink="http://www.w3.org/1999/xlink" x="0px" y="0px"
	 width="55.306px" height="55.334px" viewBox="0 0 55.306 55.334" enable-background="new 0 0 55.306 55.334" xml:space="preserve">
<g>
	<circle fill="#FBAF39" cx="27.653" cy="27.672" r="27.667"/>
	<g>
		<path fill="#FFFFFF" d="M27.653,8.521c-0.354,0-0.639,0.285-0.639,0.638v8.484c0,0.354,0.285,0.641,0.639,0.641
			s0.639-0.286,0.639-0.641V9.81c9.563,0.338,17.234,8.221,17.234,17.861c0,9.857-8.018,17.875-17.873,17.875
			S9.78,37.528,9.78,27.671c0-4.762,1.85-9.242,5.212-12.615c0.25-0.25,0.248-0.653-0.001-0.902
			c-0.251-0.248-0.654-0.248-0.903,0.002c-3.602,3.613-5.585,8.414-5.585,13.516c0,10.561,8.591,19.151,19.15,19.151
			s19.15-8.591,19.15-19.151C46.803,17.112,38.212,8.521,27.653,8.521z"/>
		<path fill="#FFFFFF" d="M26.73,29.927c0.427,0.586,1.114,0.938,1.841,0.938c0.606,0,1.178-0.238,1.607-0.667
			c0.471-0.471,0.711-1.121,0.659-1.785c-0.052-0.665-0.39-1.271-0.933-1.663l-8.262-5.978c-0.253-0.183-0.604-0.155-0.825,0.066
			c-0.222,0.223-0.249,0.571-0.067,0.825L26.73,29.927z"/>
	</g>
</g>
</svg>
