<?xml version="1.0" encoding="utf-8"?>
<!-- Generator: Adobe Illustrator 15.1.0, SVG Export Plug-In . SVG Version: 6.00 Build 0)  -->
<!DOCTYPE svg PUBLIC "-//W3C//DTD SVG 1.1//EN" "http://www.w3.org/Graphics/SVG/1.1/DTD/svg11.dtd">
<svg version="1.1" id="Layer_1" xmlns="http://www.w3.org/2000/svg" xmlns:xlink="http://www.w3.org/1999/xlink" x="0px" y="0px"
	 width="43.5px" height="43.5px" viewBox="0 0 43.5 43.5" enable-background="new 0 0 43.5 43.5" xml:space="preserve">
<g id="Layer_1_1_">
</g>
<g>
	<path fill="#253F6B" d="M21.75,43.5C9.756,43.5,0,33.744,0,21.75C0,9.757,9.756,0,21.75,0C33.743,0,43.5,9.757,43.5,21.75
		C43.5,33.744,33.743,43.5,21.75,43.5z M21.75,1C10.309,1,1,10.31,1,21.75C1,33.191,10.309,42.5,21.75,42.5S42.5,33.191,42.5,21.75
		C42.5,10.31,33.191,1,21.75,1z"/>
</g>
<g>
	<g>
		<g>
			<path fill="#253F6B" d="M11.248,32.576c-2.461-1.369-3.35-4.482-1.98-6.943l7.079-12.728c1.368-2.46,4.482-3.348,6.943-1.979
				c2.46,1.367,3.349,4.482,1.979,6.942L18.19,30.596C16.822,33.057,13.707,33.945,11.248,32.576z M22.836,11.741
				c-2.01-1.118-4.556-0.393-5.674,1.617l-7.079,12.73c-1.118,2.01-0.393,4.555,1.618,5.672c2.01,1.119,4.556,0.393,5.674-1.617
				l7.079-12.729C25.572,15.404,24.846,12.859,22.836,11.741z"/>
		</g>
		<g>
			
				<rect x="12.63" y="21.283" transform="matrix(0.874 0.4859 -0.4859 0.874 12.7451 -5.6509)" fill="#253F6B" width="9.277" height="0.934"/>
		</g>
		<g>
			<path fill="#253F6B" d="M14.842,20.835c-0.226-0.125-0.307-0.41-0.182-0.635l2.688-4.831c0.125-0.226,0.409-0.306,0.635-0.181
				c0.225,0.125,0.306,0.409,0.182,0.634l-2.688,4.833C15.352,20.88,15.066,20.961,14.842,20.835z"/>
		</g>
	</g>
	<g>
		<g>
			<path fill="#253F6B" d="M30.374,32.986c-2.482,0-4.501-2.018-4.501-4.5v-4.484c0-2.482,2.019-4.5,4.501-4.5
				s4.501,2.019,4.501,4.5v4.484C34.875,30.969,32.856,32.986,30.374,32.986z M30.374,20.201c-2.096,0-3.801,1.705-3.801,3.801
				v4.484c0,2.096,1.705,3.801,3.801,3.801s3.801-1.705,3.801-3.801v-4.484C34.175,21.906,32.47,20.201,30.374,20.201z"/>
		</g>
		<g>
			<path fill="#253F6B" d="M30.204,20.201c-0.936,0-1.696-0.609-1.696-1.357v-0.949c0-0.748,0.761-1.357,1.696-1.357
				c0.935,0,1.695,0.609,1.695,1.357v0.949C31.899,19.591,31.139,20.201,30.204,20.201z M30.204,17.237
				c-0.54,0-0.996,0.302-0.996,0.657v0.949c0,0.356,0.456,0.658,0.996,0.658c0.539,0,0.996-0.302,0.996-0.658v-0.949
				C31.2,17.539,30.743,17.237,30.204,17.237z"/>
		</g>
		<g>
			<path fill="#253F6B" d="M31.44,28.664c-1.316,0-2.607-0.477-3.175-0.807c-0.776-0.453-1.811,0.377-1.821,0.385l-0.443-0.541
				c0.057-0.049,1.421-1.148,2.617-0.449c0.664,0.387,2.614,1.053,4.07,0.51c0.723-0.271,1.23-0.818,1.505-1.629l0.663,0.225
				c-0.346,1.02-0.993,1.711-1.924,2.059C32.459,28.594,31.948,28.664,31.44,28.664z"/>
		</g>
		<g>
			<path fill="#253F6B" d="M32.858,25.525c-0.193,0-0.351-0.156-0.351-0.35v-2.662c0-0.193,0.157-0.35,0.351-0.35
				s0.35,0.157,0.35,0.35v2.662C33.208,25.369,33.052,25.525,32.858,25.525z"/>
		</g>
	</g>
</g>
</svg>
