<?xml version="1.0" encoding="utf-8"?>
<!-- Generator: Adobe Illustrator 15.1.0, SVG Export Plug-In . SVG Version: 6.00 Build 0)  -->
<!DOCTYPE svg PUBLIC "-//W3C//DTD SVG 1.1//EN" "http://www.w3.org/Graphics/SVG/1.1/DTD/svg11.dtd">
<svg version="1.1" id="Layer_1" xmlns="http://www.w3.org/2000/svg" xmlns:xlink="http://www.w3.org/1999/xlink" x="0px" y="0px"
	 width="22.5px" height="22.5px" viewBox="0 0 22.5 22.5" enable-background="new 0 0 22.5 22.5" xml:space="preserve">
<g>
	<g>
		<path fill="#5E92CD" d="M8.355,15.021H3.7l-0.902,2.861H0.111L4.675,4.618h2.724l4.546,13.265H9.258L8.355,15.021z M4.356,12.936
			H7.7L6.06,7.724H6.005L4.356,12.936z"/>
	</g>
	<g>
		<path fill="#558AC8" d="M22.389,17.883h-1.963V9.515c0-0.863-0.264-1.547-0.791-2.052c-0.528-0.505-1.225-0.758-2.09-0.758
			c-1.268,0-2.229,0.528-2.882,1.583c0.991,0.19,1.698,0.665,2.122,1.425c-1.077,0.633-1.615,1.394-1.615,2.28v5.89h-1.963v-6.017
			c0-0.887,0.432-1.583,1.297-2.09c-0.527-0.358-1.171-0.485-1.931-0.38c0.042-1.309,0.548-2.385,1.52-3.23
			c0.887-0.781,2.017-1.171,3.388-1.171c1.521,0,2.719,0.407,3.595,1.219c0.876,0.813,1.313,1.916,1.313,3.309V17.883z"/>
	</g>
</g>
</svg>
