<?xml version="1.0" encoding="utf-8"?>
<!-- Generator: Adobe Illustrator 15.1.0, SVG Export Plug-In . SVG Version: 6.00 Build 0)  -->
<!DOCTYPE svg PUBLIC "-//W3C//DTD SVG 1.1//EN" "http://www.w3.org/Graphics/SVG/1.1/DTD/svg11.dtd">
<svg version="1.1" id="Layer_1" xmlns="http://www.w3.org/2000/svg" xmlns:xlink="http://www.w3.org/1999/xlink" x="0px" y="0px"
	 width="22.5px" height="22.5px" viewBox="0 0 22.5 22.5" enable-background="new 0 0 22.5 22.5" xml:space="preserve">
<g>
	<g id="key">
		<path fill="#5E92CD" d="M14.241,2.206c-2.753,0-4.984,2.232-4.984,4.985c0,0.641,0.134,1.246,0.355,1.81l-6.056,6.055
			c-0.175,0.176-0.283,0.342-0.283,0.61v1.495c0,0.533,0.463,0.996,0.996,0.996h1.495c0.268,0,0.437-0.106,0.612-0.281l0.715-0.715
			H8.26c0.551,0,0.997-0.447,0.997-0.998v-0.996h0.997c0.551,0,0.997-0.447,0.997-0.997v-1.168l1.181-1.183
			c0.563,0.222,1.168,0.356,1.81,0.356c2.752,0,4.985-2.231,4.985-4.984S16.993,2.206,14.241,2.206z M14.241,11.178
			c-0.737,0-1.421-0.213-2.014-0.564l-0.172,0.171l-0.561,0.562l-0.949,0.95c-0.188,0.187-0.293,0.44-0.293,0.705v1.168H9.257
			c-0.551,0-0.997,0.446-0.997,0.997v0.996H7.092c-0.264,0-0.518,0.105-0.704,0.293l-0.707,0.707L4.271,17.16L4.27,15.739
			l5.815-5.806v0.002l0.732-0.732c-0.35-0.593-0.564-1.276-0.564-2.014c0-2.203,1.786-3.988,3.988-3.988s3.987,1.785,3.987,3.988
			C18.229,9.392,16.443,11.178,14.241,11.178z"/>
	</g>
	<g>
		<path fill="#5E92CD" d="M14.508,9.203c-1.289,0-2.337-1.048-2.337-2.337s1.048-2.337,2.337-2.337s2.338,1.048,2.338,2.337
			S15.797,9.203,14.508,9.203z M14.508,5.328c-0.848,0-1.537,0.69-1.537,1.538s0.689,1.538,1.537,1.538s1.538-0.69,1.538-1.538
			S15.355,5.328,14.508,5.328z"/>
	</g>
</g>
</svg>
