<?xml version="1.0" encoding="utf-8"?>
<!-- Generator: Adobe Illustrator 15.1.0, SVG Export Plug-In . SVG Version: 6.00 Build 0)  -->
<!DOCTYPE svg PUBLIC "-//W3C//DTD SVG 1.1//EN" "http://www.w3.org/Graphics/SVG/1.1/DTD/svg11.dtd">
<svg version="1.1" id="Layer_1" xmlns="http://www.w3.org/2000/svg" xmlns:xlink="http://www.w3.org/1999/xlink" x="0px" y="0px"
	 width="85px" height="85px" viewBox="0 0 85 85" enable-background="new 0 0 85 85" xml:space="preserve">
<g>
	<g>
		<path fill="#FFFFFF" d="M42.5,85C19.065,85,0,65.935,0,42.5S19.065,0,42.5,0S85,19.065,85,42.5S65.935,85,42.5,85z M42.5,1
			C19.617,1,1,19.617,1,42.5C1,65.383,19.617,84,42.5,84C65.383,84,84,65.383,84,42.5C84,19.617,65.383,1,42.5,1z"/>
	</g>
	<polygon fill="#FFFFFF" points="35.358,53.563 24.249,42.454 22.619,44.087 35.358,56.825 62.381,29.805 60.75,28.175 	"/>
</g>
</svg>
