<?xml version="1.0" encoding="utf-8"?>
<!-- Generator: Adobe Illustrator 15.1.0, SVG Export Plug-In . SVG Version: 6.00 Build 0)  -->
<!DOCTYPE svg PUBLIC "-//W3C//DTD SVG 1.1//EN" "http://www.w3.org/Graphics/SVG/1.1/DTD/svg11.dtd">
<svg version="1.1" id="Layer_1" xmlns="http://www.w3.org/2000/svg" xmlns:xlink="http://www.w3.org/1999/xlink" x="0px" y="0px"
	 width="85px" height="85px" viewBox="0 0 85 85" enable-background="new 0 0 85 85" xml:space="preserve">
<g>
	<g>
		<path fill="#FFFFFF" d="M42.5,84.999C19.066,84.999,0,65.935,0,42.5C0,19.066,19.066,0,42.5,0c23.435,0,42.501,19.066,42.501,42.5
			C85.001,65.935,65.935,84.999,42.5,84.999z M42.5,1C19.617,1,1,19.617,1,42.5c0,22.882,18.617,41.499,41.5,41.499
			c22.884,0,41.501-18.617,41.501-41.499C84.001,19.617,65.384,1,42.5,1z"/>
	</g>
	<g>
		<path fill="#FFFFFF" d="M52.13,36.337H32.871c-0.425,0-0.771,0.346-0.771,0.771s0.346,0.77,0.771,0.77H52.13
			c0.424,0,0.769-0.344,0.769-0.77S52.554,36.337,52.13,36.337z"/>
		<path fill="#FFFFFF" d="M32.871,31.716h7.704c0.425,0,0.77-0.344,0.77-0.771s-0.345-0.771-0.77-0.771h-7.704
			c-0.425,0-0.771,0.344-0.771,0.771S32.446,31.716,32.871,31.716z"/>
		<path fill="#FFFFFF" d="M52.13,42.5H32.871c-0.425,0-0.771,0.345-0.771,0.771s0.346,0.771,0.771,0.771H52.13
			c0.424,0,0.769-0.345,0.769-0.771S52.554,42.5,52.13,42.5z"/>
		<path fill="#FFFFFF" d="M52.13,48.663H32.871c-0.425,0-0.771,0.344-0.771,0.77s0.346,0.77,0.771,0.77H52.13
			c0.424,0,0.769-0.344,0.769-0.77S52.554,48.663,52.13,48.663z"/>
		<path fill="#FFFFFF" d="M52.13,54.825H32.871c-0.425,0-0.771,0.344-0.771,0.77s0.346,0.77,0.771,0.77H52.13
			c0.424,0,0.769-0.344,0.769-0.77S52.554,54.825,52.13,54.825z"/>
		<path fill="#FFFFFF" d="M49.367,19.391H24.398v46.218h36.204V30.626L49.367,19.391z M49.818,22.021l8.153,8.154h-8.153V22.021z
			 M25.938,64.067V20.932h22.339v10.784h10.785v32.352H25.938z"/>
	</g>
</g>
</svg>
