<?xml version="1.0" encoding="utf-8"?>
<!-- Generator: Adobe Illustrator 15.1.0, SVG Export Plug-In . SVG Version: 6.00 Build 0)  -->
<!DOCTYPE svg PUBLIC "-//W3C//DTD SVG 1.1//EN" "http://www.w3.org/Graphics/SVG/1.1/DTD/svg11.dtd">
<svg version="1.1" id="Layer_1" xmlns="http://www.w3.org/2000/svg" xmlns:xlink="http://www.w3.org/1999/xlink" x="0px" y="0px"
	 width="85px" height="85px" viewBox="0 0 85 85" enable-background="new 0 0 85 85" xml:space="preserve">
<g>
	<g>
		<path fill="#FFFFFF" d="M42.5,85C19.066,85,0,65.936,0,42.5C0,19.065,19.066,0,42.5,0S85,19.065,85,42.5
			C85,65.936,65.934,85,42.5,85z M42.5,1C19.617,1,1,19.616,1,42.5C1,65.383,19.617,84,42.5,84S84,65.383,84,42.5
			C84,19.616,65.383,1,42.5,1z"/>
	</g>
	<g>
		<path fill="none" d="M53.916,33.446c-4.42,0-8.02,3.597-8.02,8.017s3.598,8.016,8.02,8.016c0.832,0,1.633-0.127,2.387-0.364
			V33.809C55.549,33.575,54.748,33.446,53.916,33.446z"/>
		<path fill="none" d="M44.715,41.463c0-5.074,4.127-9.202,9.201-9.202c0.826,0,1.623,0.12,2.387,0.326v-9.362H23.26v37.574
			l2.957-2.955c0.268-0.268,0.703-0.268,0.973,0l3.645,3.643l2.266-2.264c0.135-0.135,0.311-0.203,0.486-0.203
			s0.352,0.068,0.486,0.203l2.268,2.264l2.268-2.264c0.268-0.27,0.705-0.27,0.973,0l0.891,0.891l2.268-2.27
			c0.268-0.266,0.703-0.266,0.973,0l2.266,2.27l1.578-1.578c0.27-0.271,0.705-0.271,0.973,0l1.578,1.578l3.645-3.643
			c0.268-0.271,0.703-0.271,0.973,0l1.576,1.574v-7.706c-0.764,0.206-1.561,0.325-2.387,0.325
			C48.84,50.664,44.715,46.537,44.715,41.463z M25.348,54.889c-0.379,0-0.691-0.307-0.691-0.689c0-0.379,0.305-0.688,0.684-0.688
			h0.008c0.381,0,0.688,0.309,0.688,0.688C26.035,54.582,25.729,54.889,25.348,54.889z M29.479,54.889
			c-0.379,0-0.691-0.307-0.691-0.689c0-0.379,0.305-0.688,0.686-0.688h0.006c0.379,0,0.689,0.309,0.689,0.688
			C30.166,54.582,29.857,54.889,29.479,54.889z M30.836,49.38h-1.379c-0.379,0-0.686-0.307-0.686-0.688
			c0-0.379,0.307-0.687,0.686-0.687h1.379c0.379,0,0.686,0.308,0.686,0.687C31.521,49.073,31.215,49.38,30.836,49.38z
			 M30.836,45.252h-1.379c-0.379,0-0.686-0.31-0.686-0.688c0-0.382,0.307-0.688,0.686-0.688h1.379c0.379,0,0.686,0.307,0.686,0.688
			C31.521,44.942,31.215,45.252,30.836,45.252z M30.836,41.121h-1.379c-0.379,0-0.686-0.309-0.686-0.688
			c0-0.379,0.307-0.688,0.686-0.688h1.379c0.379,0,0.686,0.31,0.686,0.688C31.521,40.813,31.215,41.121,30.836,41.121z
			 M30.836,36.99h-1.379c-0.379,0-0.686-0.307-0.686-0.688s0.307-0.688,0.686-0.688h1.379c0.379,0,0.686,0.308,0.686,0.688
			S31.215,36.99,30.836,36.99z M33.609,54.889c-0.379,0-0.691-0.307-0.691-0.689c0-0.379,0.305-0.688,0.684-0.688h0.008
			c0.379,0,0.688,0.309,0.688,0.688C34.297,54.582,33.986,54.889,33.609,54.889z M36.34,49.38h-2.752
			c-0.381,0-0.688-0.307-0.688-0.688c0-0.379,0.309-0.687,0.688-0.687h2.752c0.381,0,0.689,0.308,0.689,0.687
			C37.029,49.073,36.721,49.38,36.34,49.38z M37.738,54.889c-0.381,0-0.691-0.307-0.691-0.689c0-0.379,0.305-0.688,0.684-0.688
			h0.008c0.379,0,0.688,0.309,0.688,0.688C38.426,54.582,38.119,54.889,37.738,54.889z M39.094,45.252h-5.506
			c-0.381,0-0.688-0.31-0.688-0.688c0-0.382,0.309-0.688,0.688-0.688h5.506c0.381,0,0.688,0.307,0.688,0.688
			C39.783,44.942,39.477,45.252,39.094,45.252z M40.471,41.121h-6.883c-0.381,0-0.688-0.309-0.688-0.688
			c0-0.379,0.309-0.688,0.688-0.688h6.883c0.379,0,0.688,0.31,0.688,0.688C41.158,40.813,40.852,41.121,40.471,41.121z M32.9,36.303
			c0-0.381,0.309-0.688,0.688-0.688h4.131c0.379,0,0.686,0.308,0.686,0.688s-0.307,0.688-0.686,0.688h-4.131
			C33.207,36.99,32.9,36.684,32.9,36.303z M40.471,30.108H29.457c-0.379,0-0.688-0.308-0.688-0.688c0-0.379,0.309-0.688,0.688-0.688
			h11.014c0.379,0,0.688,0.31,0.688,0.688C41.158,29.801,40.852,30.108,40.471,30.108z M41.867,54.889
			c-0.379,0-0.691-0.307-0.691-0.689c0-0.379,0.307-0.688,0.686-0.688h0.006c0.381,0,0.689,0.309,0.689,0.688
			C42.557,54.582,42.248,54.889,41.867,54.889z M45.998,54.889c-0.379,0-0.691-0.307-0.691-0.689c0-0.379,0.307-0.688,0.686-0.688
			h0.006c0.379,0,0.689,0.309,0.689,0.688C46.688,54.582,46.377,54.889,45.998,54.889z M50.127,54.889
			c-0.379,0-0.689-0.307-0.689-0.689c0-0.379,0.305-0.688,0.684-0.688h0.006c0.381,0,0.691,0.309,0.691,0.688
			C50.818,54.582,50.508,54.889,50.127,54.889z M54.258,53.512c0.379,0,0.688,0.309,0.688,0.688c0,0.383-0.309,0.689-0.688,0.689
			s-0.691-0.307-0.691-0.689c0-0.379,0.303-0.688,0.686-0.688H54.258z"/>
		<path fill="none" d="M61.932,41.463c0-3.06-1.725-5.725-4.252-7.074v14.148C60.207,47.185,61.932,44.521,61.932,41.463z"/>
		<path fill="#FFFFFF" d="M29.479,53.512h-0.006c-0.381,0-0.686,0.309-0.686,0.688c0,0.383,0.313,0.689,0.691,0.689
			s0.689-0.307,0.689-0.689C30.166,53.82,29.857,53.512,29.479,53.512z"/>
		<path fill="#FFFFFF" d="M33.609,53.512h-0.008c-0.379,0-0.684,0.309-0.684,0.688c0,0.383,0.313,0.689,0.691,0.689
			s0.688-0.307,0.688-0.689C34.297,53.82,33.986,53.512,33.609,53.512z"/>
		<path fill="#FFFFFF" d="M39.094,43.875h-5.506c-0.381,0-0.688,0.31-0.688,0.688s0.309,0.688,0.688,0.688h5.506
			c0.381,0,0.688-0.31,0.688-0.688C39.783,44.185,39.477,43.875,39.094,43.875z"/>
		<path fill="#FFFFFF" d="M36.34,48.006h-2.752c-0.381,0-0.688,0.309-0.688,0.688c0,0.379,0.309,0.688,0.688,0.688h2.752
			c0.381,0,0.689-0.31,0.689-0.688C37.029,48.314,36.721,48.006,36.34,48.006z"/>
		<path fill="#FFFFFF" d="M45.998,53.512h-0.006c-0.379,0-0.686,0.309-0.686,0.688c0,0.383,0.313,0.689,0.691,0.689
			s0.689-0.307,0.689-0.689C46.688,53.82,46.377,53.512,45.998,53.512z"/>
		<path fill="#FFFFFF" d="M53.566,54.199c0,0.383,0.313,0.689,0.691,0.689s0.688-0.307,0.688-0.689c0-0.379-0.309-0.688-0.688-0.688
			h-0.006C53.869,53.512,53.566,53.82,53.566,54.199z"/>
		<path fill="#FFFFFF" d="M50.127,53.512h-0.006c-0.379,0-0.684,0.309-0.684,0.688c0,0.383,0.311,0.689,0.689,0.689
			c0.381,0,0.691-0.307,0.691-0.689C50.818,53.82,50.508,53.512,50.127,53.512z"/>
		<path fill="#FFFFFF" d="M37.738,53.512H37.73c-0.379,0-0.684,0.309-0.684,0.688c0,0.383,0.311,0.689,0.691,0.689
			c0.379,0,0.688-0.307,0.688-0.689C38.426,53.82,38.119,53.512,37.738,53.512z"/>
		<path fill="#FFFFFF" d="M30.836,43.875h-1.379c-0.379,0-0.686,0.31-0.686,0.688s0.307,0.688,0.686,0.688h1.379
			c0.379,0,0.686-0.31,0.686-0.688S31.215,43.875,30.836,43.875z"/>
		<path fill="#FFFFFF" d="M30.836,48.006h-1.379c-0.379,0-0.686,0.309-0.686,0.688c0,0.379,0.307,0.688,0.686,0.688h1.379
			c0.379,0,0.686-0.31,0.686-0.688C31.521,48.314,31.215,48.006,30.836,48.006z"/>
		<path fill="#FFFFFF" d="M25.348,53.512H25.34c-0.379,0-0.684,0.309-0.684,0.688c0,0.383,0.311,0.689,0.691,0.689
			s0.688-0.307,0.688-0.689C26.035,53.82,25.729,53.512,25.348,53.512z"/>
		<path fill="#FFFFFF" d="M30.836,39.745h-1.379c-0.379,0-0.686,0.31-0.686,0.688c0,0.381,0.307,0.688,0.686,0.688h1.379
			c0.379,0,0.686-0.308,0.686-0.688C31.521,40.055,31.215,39.745,30.836,39.745z"/>
		<path fill="#FFFFFF" d="M41.867,53.512h-0.006c-0.379,0-0.686,0.309-0.686,0.688c0,0.383,0.313,0.689,0.691,0.689
			c0.381,0,0.689-0.307,0.689-0.689C42.557,53.82,42.248,53.512,41.867,53.512z"/>
		<path fill="#FFFFFF" d="M33.588,36.99h4.131c0.379,0,0.686-0.307,0.686-0.688s-0.307-0.688-0.686-0.688h-4.131
			c-0.381,0-0.688,0.308-0.688,0.688S33.207,36.99,33.588,36.99z"/>
		<path fill="#FFFFFF" d="M30.836,35.615h-1.379c-0.379,0-0.686,0.309-0.686,0.688c0,0.382,0.307,0.688,0.686,0.688h1.379
			c0.379,0,0.686-0.307,0.686-0.688C31.521,35.924,31.215,35.615,30.836,35.615z"/>
		<path fill="#FFFFFF" d="M40.471,39.745h-6.883c-0.381,0-0.688,0.31-0.688,0.688c0,0.381,0.309,0.688,0.688,0.688h6.883
			c0.379,0,0.688-0.308,0.688-0.688C41.158,40.055,40.852,39.745,40.471,39.745z"/>
		<path fill="#FFFFFF" d="M40.471,28.731H29.457c-0.379,0-0.688,0.31-0.688,0.688c0,0.381,0.309,0.688,0.688,0.688h11.014
			c0.379,0,0.688-0.308,0.688-0.688C41.158,29.041,40.852,28.731,40.471,28.731z"/>
		<g>
			<path fill="#FFFFFF" d="M54.258,37.682c0.758,0,1.377,0.616,1.377,1.376c0,0.381,0.307,0.689,0.686,0.689
				c0.381,0,0.688-0.309,0.688-0.689c0-1.278-0.879-2.348-2.064-2.654v-0.1c0-0.38-0.307-0.688-0.686-0.688
				c-0.383,0-0.689,0.309-0.689,0.688v0.1c-1.186,0.307-2.068,1.376-2.068,2.654c0,1.517,1.236,2.752,2.756,2.752
				c0.76,0,1.375,0.618,1.375,1.379c0,0.759-0.615,1.375-1.375,1.375c-0.762,0-1.381-0.616-1.381-1.375
				c0-0.381-0.307-0.69-0.686-0.69c-0.383,0-0.689,0.31-0.689,0.69c0,1.278,0.879,2.348,2.066,2.654v0.098
				c0,0.379,0.307,0.688,0.689,0.688c0.379,0,0.686-0.31,0.686-0.688v-0.098c1.188-0.307,2.066-1.376,2.066-2.654
				c0-1.52-1.234-2.755-2.75-2.755c-0.762,0-1.381-0.616-1.381-1.376S53.496,37.682,54.258,37.682z"/>
			<path fill="#FFFFFF" d="M57.68,33.074V22.537c0-0.38-0.307-0.688-0.689-0.688H22.574c-0.381,0-0.689,0.309-0.689,0.688v39.924
				c0,0.279,0.168,0.529,0.426,0.637c0.086,0.035,0.174,0.053,0.264,0.053c0.178,0,0.354-0.07,0.486-0.203l3.643-3.643l3.643,3.643
				c0.27,0.27,0.705,0.27,0.975,0l2.266-2.268l2.266,2.268c0.27,0.27,0.705,0.27,0.975,0l2.268-2.268l0.889,0.893
				c0.27,0.27,0.703,0.27,0.973,0l2.268-2.268l2.268,2.268c0.268,0.27,0.705,0.27,0.971,0l1.582-1.578l1.576,1.578
				c0.268,0.27,0.707,0.27,0.973,0l3.645-3.643l2.266,2.266c0.014,0.014,0.029,0.029,0.043,0.039c0,0.002,0.002,0.002,0.002,0.002
				c0.113,0.094,0.254,0.152,0.412,0.16c0.025,0,0.049,0,0.076-0.002h0.002c0.139-0.01,0.266-0.061,0.371-0.143
				c0.037-0.027,0.072-0.059,0.102-0.094c0.104-0.121,0.166-0.277,0.166-0.449v-0.002v-9.858c3.203-1.44,5.439-4.654,5.439-8.386
				C63.115,37.729,60.879,34.517,57.68,33.074z M56.303,58.045l-1.576-1.578c-0.273-0.268-0.707-0.268-0.975,0l-3.643,3.646
				l-1.578-1.578c-0.27-0.271-0.705-0.271-0.973,0l-1.578,1.578l-2.268-2.27c-0.268-0.268-0.705-0.268-0.973,0l-2.268,2.27
				l-0.891-0.893c-0.268-0.271-0.703-0.271-0.973,0l-2.266,2.266l-2.268-2.266c-0.133-0.135-0.311-0.201-0.488-0.201
				c-0.174,0-0.352,0.066-0.484,0.201l-2.268,2.266l-3.643-3.645c-0.27-0.266-0.705-0.266-0.973,0l-2.957,2.957V23.223h33.041v9.363
				c-0.762-0.207-1.561-0.326-2.387-0.326c-5.074,0-9.201,4.128-9.201,9.201c0,5.076,4.127,9.201,9.201,9.201
				c0.828,0,1.625-0.119,2.387-0.326v7.709H56.303z M57.68,48.535c-0.438,0.234-0.896,0.43-1.375,0.579
				c-0.754,0.237-1.557,0.364-2.389,0.364c-4.42,0-8.016-3.596-8.016-8.016s3.596-8.017,8.016-8.017
				c0.832,0,1.635,0.129,2.389,0.362c0.479,0.151,0.938,0.347,1.375,0.58c2.527,1.35,4.252,4.015,4.252,7.074
				C61.932,44.521,60.207,47.185,57.68,48.535z"/>
		</g>
	</g>
</g>
</svg>
