<?xml version="1.0" encoding="utf-8"?>
<!-- Generator: Adobe Illustrator 15.1.0, SVG Export Plug-In . SVG Version: 6.00 Build 0)  -->
<!DOCTYPE svg PUBLIC "-//W3C//DTD SVG 1.1//EN" "http://www.w3.org/Graphics/SVG/1.1/DTD/svg11.dtd">
<svg version="1.1" id="Layer_1" xmlns="http://www.w3.org/2000/svg" xmlns:xlink="http://www.w3.org/1999/xlink" x="0px" y="0px"
	 width="85px" height="85px" viewBox="0 0 85 85" enable-background="new 0 0 85 85" xml:space="preserve">
<g>
	<g>
		<path fill="#FFFFFF" d="M42.5,85C19.066,85,0,65.936,0,42.5C0,19.066,19.066,0,42.5,0C65.934,0,85,19.066,85,42.5
			C85,65.936,65.934,85,42.5,85z M42.5,1C19.617,1,1,19.617,1,42.5S19.617,84,42.5,84C65.383,84,84,65.383,84,42.5S65.383,1,42.5,1z
			"/>
	</g>
	<g>
		<g>
			<path fill="#FFFFFF" d="M36.281,30.947c-2.814,0-5.102-2.29-5.102-5.101s2.289-5.1,5.102-5.1c2.811,0,5.099,2.289,5.099,5.1
				S39.092,30.947,36.281,30.947z M36.281,22.254c-1.98,0-3.591,1.612-3.591,3.592c0,1.979,1.61,3.59,3.591,3.59
				c1.979,0,3.59-1.611,3.59-3.59C39.871,23.866,38.261,22.254,36.281,22.254z"/>
		</g>
		<g>
			<path fill="#FFFFFF" d="M39.904,64.252c-1.417,0-2.617-1.102-2.737-2.516l-0.823-8.797l-0.615,8.77
				c-0.119,1.502-1.395,2.684-2.971,2.533c-1.494-0.117-2.627-1.443-2.513-2.953l1.157-14.967c-0.38,0.334-0.871,0.549-1.413,0.592
				l-0.192,0.01c-1.263,0-2.332-0.988-2.432-2.251c-0.695-8.903,2.293-12.022,5.627-14.067c0.07-0.042,1.355-0.732,2.023-0.895
				l0.713,0.199l0.537,0.541l0.516-0.541l0.676-0.139l0.016-0.082c0.723,0.173,1.938,0.819,2.213,0.994
				c1.307,0.83,2.188,1.181,2.945,1.181c1.006,0,1.99-0.62,3.825-2.011c0.128-0.101,0.271-0.184,0.423-0.256V26.49
				c0-0.686,0.518-1.24,1.158-1.24h8.54c0.639,0,1.16,0.557,1.16,1.24v10.407c0,0.687-0.521,1.239-1.16,1.239h-8.54
				c-0.639,0-1.158-0.555-1.158-1.239v-1.421c-1.472,0.844-3.339,1.529-5.395,1.24v7.098c0,0.285-0.053,1.117-0.279,1.693
				l1.441,15.76c0.064,0.73-0.162,1.445-0.633,2.008c-0.475,0.563-1.139,0.902-1.871,0.967
				C40.072,64.25,39.988,64.252,39.904,64.252z M36.496,46.883l0.863,0.678l1.311,14.041c0.054,0.643,0.594,1.145,1.232,1.145
				l0.091-0.004c0.347-0.033,0.645-0.188,0.86-0.436c0.215-0.256,0.314-0.578,0.287-0.904l-1.459-15.953l0.101-0.452
				c0.081-0.153,0.192-0.765,0.192-1.179v-8.025l0.953-0.727c2.053,0.557,3.787,0.12,6.275-1.582l1.182,0.625v2.524h7.838v-9.87
				h-7.838v3.385l-0.627,0.744c-0.146,0.027-0.281,0.082-0.393,0.166c-1.846,1.402-3.173,2.322-4.738,2.322
				c-1.064,0-2.188-0.425-3.753-1.419c-0.202-0.128-0.854-0.464-1.334-0.661l-0.718,0.758l-1.082,0.01l-0.75-0.753
				c-0.457,0.188-1.07,0.499-1.219,0.584c-2.917,1.789-5.537,4.563-4.902,12.657c0.037,0.483,0.445,0.861,0.926,0.861
				c0.59-0.044,0.973-0.492,0.936-1.008c-0.203-2.545-0.082-4.576,0.367-6.213l1.484,0.199v5.418c0,0.443,0.104,0.867,0.313,1.258
				l0.087,0.412L31.75,61.412c-0.053,0.68,0.459,1.281,1.142,1.334c0.72-0.025,1.28-0.502,1.331-1.145l0.984-14.011l0.789-0.7
				c0.064,0.002,0.215,0.007,0.281,0.007C36.375,46.893,36.412,46.889,36.496,46.883z"/>
		</g>
	</g>
</g>
</svg>
