<?xml version="1.0" encoding="utf-8"?>
<!-- Generator: Adobe Illustrator 15.1.0, SVG Export Plug-In . SVG Version: 6.00 Build 0)  -->
<!DOCTYPE svg PUBLIC "-//W3C//DTD SVG 1.1//EN" "http://www.w3.org/Graphics/SVG/1.1/DTD/svg11.dtd">
<svg version="1.1" xmlns="http://www.w3.org/2000/svg" xmlns:xlink="http://www.w3.org/1999/xlink" x="0px" y="0px" width="85px"
	 height="85px" viewBox="0 0 85 85" enable-background="new 0 0 85 85" xml:space="preserve">
<g id="Layer_2">
</g>
<g id="Layer_1">
	<g>
		<path fill="#FFFFFF" d="M42.5,85C19.066,85,0,65.936,0,42.5C0,19.066,19.066,0,42.5,0c23.436,0,42.501,19.066,42.501,42.5
			C85.001,65.936,65.936,85,42.5,85z M42.5,1C19.617,1,1,19.617,1,42.5S19.617,84,42.5,84c22.884,0,41.501-18.617,41.501-41.5
			S65.384,1,42.5,1z"/>
	</g>
	<g>
		<g>
			<path fill="#FFFFFF" d="M56.648,48.632h-2.961c-0.41,0-0.742,0.331-0.742,0.74h-7.402c-0.197,0-0.386,0.077-0.523,0.217
				l-4.171,4.171l-14.684-2.555c-0.704-0.12-1.424,0.072-1.973,0.532c-0.546,0.461-0.861,1.137-0.861,1.853
				c0,0.856,0.459,1.657,1.2,2.091l16.153,9.421c0.376,0.22,0.796,0.331,1.218,0.33c0.37,0,0.74-0.085,1.083-0.257l7.916-3.957
				h2.045c0,0.408,0.332,0.741,0.742,0.741h2.961c0.409,0,0.74-0.333,0.74-0.741V49.372C57.389,48.963,57.058,48.632,56.648,48.632z
				 M52.945,59.737h-2.221c-0.113,0-0.229,0.026-0.33,0.077l-8.073,4.037c-0.286,0.143-0.619,0.131-0.893-0.029l-16.15-9.421
				c-0.288-0.168-0.467-0.479-0.467-0.812c0-0.277,0.122-0.54,0.334-0.719c0.213-0.179,0.491-0.254,0.766-0.206l13.656,2.374
				l-0.6,0.601c-0.534,0.535-0.83,1.246-0.83,2.003c0,1.563,1.272,2.835,2.834,2.835c0.758,0,1.469-0.294,2.004-0.831l3.829-3.828
				l-1.046-1.048l-3.83,3.83c-0.252,0.252-0.6,0.396-0.958,0.396c-0.747,0-1.354-0.606-1.354-1.354c0-0.36,0.142-0.702,0.396-0.957
				l5.834-5.833h7.096V59.737z M55.908,60.478h-1.48V50.112h1.48V60.478z"/>
		</g>
	</g>
	<g>
		<g>
			<g>
				<path fill="#FFFFFF" d="M51.945,20.175c-4.249,0-7.706,3.457-7.706,7.707c0,4.249,3.457,7.706,7.706,7.706
					c4.25,0,7.707-3.457,7.707-7.706C59.652,23.632,56.195,20.175,51.945,20.175z M51.945,33.727c-3.223,0-5.845-2.622-5.845-5.845
					s2.622-5.846,5.845-5.846s5.846,2.623,5.846,5.846S55.168,33.727,51.945,33.727z"/>
			</g>
		</g>
		<g>
			<g>
				<path fill="#FFFFFF" d="M51.945,26.951c-0.133,0-0.242-0.108-0.242-0.242s0.109-0.242,0.242-0.242h1.173
					c0.515,0,0.931-0.417,0.931-0.931s-0.416-0.931-0.931-0.931h-0.242v-0.078c0-0.515-0.417-0.931-0.931-0.931
					s-0.93,0.416-0.93,0.931v0.296c-0.695,0.344-1.174,1.061-1.174,1.886c0,1.159,0.943,2.104,2.104,2.104
					c0.134,0,0.242,0.108,0.242,0.241c0,0.135-0.108,0.242-0.242,0.242h-1.172c-0.515,0-0.932,0.417-0.932,0.932
					c0,0.514,0.417,0.93,0.932,0.93h0.242v0.078c0,0.515,0.416,0.932,0.93,0.932s0.931-0.417,0.931-0.932V30.94
					c0.694-0.345,1.173-1.061,1.173-1.887C54.049,27.895,53.105,26.951,51.945,26.951z"/>
			</g>
		</g>
	</g>
	<g>
		<g>
			<g>
				<path fill="#FFFFFF" d="M29.839,26.381c-5.077,0-9.207,4.13-9.207,9.206c0,5.077,4.13,9.207,9.207,9.207
					c5.075,0,9.206-4.13,9.206-9.207C39.044,30.511,34.914,26.381,29.839,26.381z M29.839,42.57c-3.851,0-6.983-3.132-6.983-6.982
					c0-3.851,3.133-6.983,6.983-6.983c3.85,0,6.981,3.132,6.981,6.983C36.82,39.438,33.688,42.57,29.839,42.57z"/>
			</g>
		</g>
		<g>
			<g>
				<path fill="#FFFFFF" d="M29.839,34.476c-0.161,0-0.289-0.13-0.289-0.289c0-0.16,0.128-0.29,0.289-0.29h1.4
					c0.613,0,1.111-0.498,1.111-1.112c0-0.614-0.498-1.112-1.111-1.112h-0.29v-0.093c0-0.614-0.496-1.112-1.11-1.112
					s-1.113,0.498-1.113,1.112v0.354c-0.828,0.411-1.399,1.266-1.399,2.253c0,1.385,1.127,2.513,2.513,2.513
					c0.159,0,0.288,0.129,0.288,0.289c0,0.16-0.129,0.289-0.288,0.289h-1.402c-0.613,0-1.11,0.498-1.11,1.112
					c0,0.614,0.497,1.112,1.11,1.112h0.289v0.093c0,0.614,0.499,1.112,1.113,1.112s1.11-0.498,1.11-1.112v-0.354
					c0.83-0.411,1.401-1.266,1.401-2.253C32.351,35.603,31.224,34.476,29.839,34.476z"/>
			</g>
		</g>
	</g>
</g>
</svg>
