<?xml version="1.0" encoding="utf-8"?>
<!-- Generator: Adobe Illustrator 15.1.0, SVG Export Plug-In . SVG Version: 6.00 Build 0)  -->
<!DOCTYPE svg PUBLIC "-//W3C//DTD SVG 1.1//EN" "http://www.w3.org/Graphics/SVG/1.1/DTD/svg11.dtd">
<svg version="1.1" id="Layer_1" xmlns="http://www.w3.org/2000/svg" xmlns:xlink="http://www.w3.org/1999/xlink" x="0px" y="0px"
	 width="85px" height="85px" viewBox="0 0 85 85" enable-background="new 0 0 85 85" xml:space="preserve">
<g>
	<g>
		<path fill="#FFFFFF" d="M42.5,85C19.066,85,0,65.936,0,42.5C0,19.066,19.066,0,42.5,0c23.435,0,42.501,19.066,42.501,42.5
			C85.001,65.936,65.935,85,42.5,85z M42.5,1C19.617,1,1,19.617,1,42.5C1,65.383,19.617,84,42.5,84
			c22.884,0,41.501-18.617,41.501-41.5C84.001,19.617,65.384,1,42.5,1z"/>
	</g>
	<g>
		<path fill="#FFFFFF" d="M46.832,59.881h4.131c0.379,0,0.686-0.307,0.686-0.688s-0.307-0.688-0.686-0.688h-4.131
			c-0.381,0-0.688,0.307-0.688,0.688S46.451,59.881,46.832,59.881z"/>
		<g>
			<g>
				<path fill="#FFFFFF" d="M50.961,32.32h-1.379c-0.379,0-0.686,0.309-0.686,0.688c0,0.383,0.307,0.689,0.686,0.689h1.379
					c0.379,0,0.686-0.307,0.686-0.689C51.646,32.628,51.34,32.32,50.961,32.32z"/>
				<path fill="#FFFFFF" d="M45.056,32.32H34.042c-0.379,0-0.688,0.309-0.688,0.688c0,0.381,0.309,0.689,0.688,0.689h11.014
					c0.379,0,0.688-0.309,0.688-0.689C45.743,32.628,45.437,32.32,45.056,32.32z"/>
			</g>
			<g>
				<path fill="#FFFFFF" d="M50.961,37.527h-1.379c-0.379,0-0.686,0.309-0.686,0.688c0,0.383,0.307,0.689,0.686,0.689h1.379
					c0.379,0,0.686-0.307,0.686-0.689C51.646,37.835,51.34,37.527,50.961,37.527z"/>
				<path fill="#FFFFFF" d="M45.056,37.527H34.042c-0.379,0-0.688,0.309-0.688,0.688c0,0.381,0.309,0.689,0.688,0.689h11.014
					c0.379,0,0.688-0.309,0.688-0.689C45.743,37.835,45.437,37.527,45.056,37.527z"/>
			</g>
			<g>
				<path fill="#FFFFFF" d="M50.961,42.734h-1.379c-0.379,0-0.686,0.309-0.686,0.689s0.307,0.688,0.686,0.688h1.379
					c0.379,0,0.686-0.307,0.686-0.688S51.34,42.734,50.961,42.734z"/>
				<path fill="#FFFFFF" d="M45.056,42.734H34.042c-0.379,0-0.688,0.311-0.688,0.689c0,0.381,0.309,0.688,0.688,0.688h11.014
					c0.379,0,0.688-0.307,0.688-0.688C45.743,43.044,45.437,42.734,45.056,42.734z"/>
			</g>
			<g>
				<path fill="#FFFFFF" d="M50.961,47.943h-1.379c-0.379,0-0.686,0.309-0.686,0.688c0,0.383,0.307,0.689,0.686,0.689h1.379
					c0.379,0,0.686-0.307,0.686-0.689C51.646,48.251,51.34,47.943,50.961,47.943z"/>
				<path fill="#FFFFFF" d="M45.056,47.943H34.042c-0.379,0-0.688,0.309-0.688,0.688c0,0.381,0.309,0.689,0.688,0.689h11.014
					c0.379,0,0.688-0.309,0.688-0.689C45.743,48.251,45.437,47.943,45.056,47.943z"/>
			</g>
		</g>
		<path fill="#FFFFFF" d="M29.693,20.175v7v1.33v24.346v1.33v10.645h25.613V54.182v-1.33V28.505v-1.33v-7H29.693z M53.807,63.326
			H31.193v-9.145h22.613V63.326z M53.807,52.852H31.193V28.505h22.613V52.852z M31.193,27.175v-5.5h22.613v5.5H31.193z"/>
	</g>
</g>
</svg>
