<?xml version="1.0" encoding="utf-8"?>
<!-- Generator: Adobe Illustrator 15.1.0, SVG Export Plug-In . SVG Version: 6.00 Build 0)  -->
<!DOCTYPE svg PUBLIC "-//W3C//DTD SVG 1.1//EN" "http://www.w3.org/Graphics/SVG/1.1/DTD/svg11.dtd">
<svg version="1.1" id="Layer_1" xmlns="http://www.w3.org/2000/svg" xmlns:xlink="http://www.w3.org/1999/xlink" x="0px" y="0px"
	 width="290px" height="67.791px" viewBox="0 0 290 67.791" enable-background="new 0 0 290 67.791" xml:space="preserve">
<g>
	<path fill="#FFFFFF" d="M31.969,65.52c-0.391-1.232-0.651-2.663-0.781-4.289c-1.496,1.691-3.478,3.04-5.948,4.046
		c-2.471,1.008-5.33,1.514-8.579,1.514c-5.526,0-9.573-1.221-12.14-3.658c-2.569-2.437-3.851-5.607-3.851-9.505
		c0-3.445,0.551-6.192,1.657-8.239c1.104-2.048,2.632-3.656,4.583-4.827c1.951-1.17,4.274-2.031,6.972-2.583
		c2.696-0.554,5.638-1.057,8.823-1.512c3.185-0.455,5.33-1.057,6.436-1.804c1.105-0.748,1.658-1.966,1.658-3.657
		c0-1.56-0.732-2.778-2.193-3.656c-1.464-0.878-3.43-1.315-5.9-1.315c-2.924,0-5.021,0.649-6.288,1.948
		c-1.269,1.302-2.065,3.023-2.39,5.169H2.231c0.063-2.47,0.47-4.744,1.217-6.825c0.747-2.079,1.95-3.866,3.608-5.361
		c1.658-1.497,3.817-2.65,6.483-3.463c2.665-0.812,5.915-1.219,9.751-1.219c3.769,0,6.971,0.424,9.603,1.269
		c2.633,0.845,4.745,2.063,6.337,3.655c1.592,1.595,2.746,3.576,3.462,5.947c0.713,2.375,1.072,5.056,1.072,8.046v30.32H31.969z
		 M31.091,42.025c-0.651,0.649-1.594,1.169-2.829,1.559c-1.235,0.39-3.022,0.814-5.363,1.268c-3.641,0.717-6.141,1.627-7.507,2.73
		c-1.365,1.106-2.046,2.698-2.046,4.778c0,3.575,2.046,5.36,6.142,5.36c1.624,0,3.136-0.272,4.533-0.827
		c1.397-0.553,2.599-1.3,3.608-2.243c1.006-0.94,1.818-2.047,2.437-3.313c0.617-1.27,0.927-2.618,0.927-4.047L31.091,42.025z"/>
	<polygon fill="#FFFFFF" points="61.51,65.52 44.351,17.551 58.487,17.551 68.53,49.239 78.671,17.551 92.028,17.551 74.771,65.52 	
		"/>
	<path fill="#FFFFFF" d="M121.182,65.52c-0.391-1.232-0.651-2.663-0.782-4.289c-1.496,1.691-3.476,3.04-5.948,4.046
		c-2.47,1.008-5.33,1.514-8.579,1.514c-5.526,0-9.572-1.221-12.139-3.658c-2.569-2.437-3.851-5.607-3.851-9.505
		c0-3.445,0.551-6.192,1.657-8.239c1.103-2.048,2.631-3.656,4.582-4.827c1.95-1.17,4.275-2.031,6.971-2.583
		c2.698-0.554,5.639-1.057,8.824-1.512s5.329-1.057,6.436-1.804c1.104-0.748,1.658-1.966,1.658-3.657
		c0-1.56-0.732-2.778-2.194-3.656c-1.464-0.878-3.43-1.315-5.9-1.315c-2.925,0-5.021,0.649-6.288,1.948
		c-1.268,1.302-2.065,3.023-2.389,5.169H91.444c0.063-2.47,0.468-4.744,1.216-6.825c0.747-2.079,1.951-3.866,3.608-5.361
		c1.658-1.497,3.818-2.65,6.484-3.463c2.664-0.812,5.914-1.219,9.75-1.219c3.77,0,6.972,0.424,9.604,1.269
		c2.632,0.845,4.745,2.063,6.338,3.655c1.592,1.595,2.746,3.576,3.461,5.947c0.714,2.375,1.072,5.056,1.072,8.046v30.32H121.182z
		 M120.304,42.025c-0.652,0.649-1.595,1.169-2.829,1.559c-1.234,0.39-3.023,0.814-5.363,1.268c-3.641,0.717-6.141,1.627-7.507,2.73
		c-1.364,1.106-2.046,2.698-2.046,4.778c0,3.575,2.046,5.36,6.141,5.36c1.625,0,3.137-0.272,4.534-0.827
		c1.397-0.553,2.599-1.3,3.607-2.243c1.006-0.94,1.819-2.047,2.438-3.313c0.618-1.27,0.927-2.618,0.927-4.047L120.304,42.025z"/>
	<rect x="138.048" fill="#FFFFFF" width="12.675" height="65.52"/>
	<path fill="#FFFFFF" d="M185.727,65.52c-0.391-1.232-0.65-2.663-0.781-4.289c-1.496,1.691-3.477,3.04-5.948,4.046
		c-2.47,1.008-5.329,1.514-8.579,1.514c-5.525,0-9.571-1.221-12.139-3.658c-2.568-2.437-3.851-5.607-3.851-9.505
		c0-3.445,0.552-6.192,1.657-8.239c1.104-2.048,2.632-3.656,4.582-4.827c1.949-1.17,4.273-2.031,6.972-2.583
		c2.696-0.554,5.639-1.057,8.823-1.512c3.187-0.455,5.33-1.057,6.435-1.804c1.106-0.748,1.659-1.966,1.659-3.657
		c0-1.56-0.731-2.778-2.194-3.656c-1.462-0.878-3.43-1.315-5.899-1.315c-2.924,0-5.021,0.649-6.287,1.948
		c-1.269,1.302-2.066,3.023-2.39,5.169h-11.798c0.064-2.47,0.471-4.744,1.218-6.825c0.747-2.079,1.949-3.866,3.607-5.361
		c1.659-1.497,3.818-2.65,6.484-3.463c2.664-0.812,5.914-1.219,9.751-1.219c3.768,0,6.971,0.424,9.604,1.269
		c2.631,0.845,4.744,2.063,6.339,3.655c1.591,1.595,2.745,3.576,3.46,5.947c0.716,2.375,1.074,5.056,1.074,8.046v30.32H185.727z
		 M184.85,42.025c-0.65,0.649-1.596,1.169-2.828,1.559c-1.236,0.39-3.024,0.814-5.363,1.268c-3.642,0.717-6.142,1.627-7.508,2.73
		c-1.364,1.106-2.047,2.698-2.047,4.778c0,3.575,2.047,5.36,6.143,5.36c1.625,0,3.138-0.272,4.534-0.827
		c1.397-0.553,2.599-1.3,3.607-2.243c1.005-0.94,1.818-2.047,2.438-3.313c0.616-1.27,0.927-2.618,0.927-4.047L184.85,42.025z"/>
	<path fill="#FFFFFF" d="M233.307,65.52V36.466c0-3.704-0.618-6.207-1.853-7.508c-1.237-1.3-3.35-1.95-6.339-1.95
		c-6.566,0-9.847,3.674-9.847,11.017V65.52h-12.675V17.551h12.089v7.019c1.495-2.73,3.477-4.792,5.948-6.19
		c2.47-1.398,5.654-2.097,9.555-2.097c2.276,0,4.389,0.342,6.338,1.024c1.95,0.683,3.623,1.707,5.022,3.072
		c1.396,1.364,2.5,3.04,3.315,5.021c0.811,1.984,1.217,4.275,1.217,6.874V65.52H233.307z"/>
	<path fill="#FFFFFF" d="M278.35,33.929h11.797v13.652c0,2.535-0.373,4.957-1.121,7.264c-0.748,2.309-1.919,4.356-3.511,6.143
		c-1.593,1.787-3.606,3.202-6.044,4.241c-2.438,1.04-5.348,1.562-8.727,1.562c-3.51,0-6.499-0.521-8.971-1.562
		c-2.471-1.039-4.501-2.438-6.092-4.193c-1.596-1.754-2.747-3.801-3.464-6.141c-0.715-2.342-1.07-4.811-1.07-7.413V4.583h12.479
		v12.967h26.521v8.97h-26.521v19.696c0,3.056,0.568,5.41,1.707,7.068c1.137,1.657,3.006,2.486,5.605,2.486
		c2.535,0,4.402-0.812,5.608-2.438c1.2-1.625,1.803-3.932,1.803-6.921V33.929z"/>
</g>
</svg>
