<?xml version="1.0" encoding="utf-8"?>
<!-- Generator: Adobe Illustrator 15.1.0, SVG Export Plug-In . SVG Version: 6.00 Build 0)  -->
<!DOCTYPE svg PUBLIC "-//W3C//DTD SVG 1.1//EN" "http://www.w3.org/Graphics/SVG/1.1/DTD/svg11.dtd">
<svg version="1.1" id="Layer_1" xmlns="http://www.w3.org/2000/svg" xmlns:xlink="http://www.w3.org/1999/xlink" x="0px" y="0px"
	 width="56.25px" height="56.167px" viewBox="0 0 56.25 56.167" enable-background="new 0 0 56.25 56.167" xml:space="preserve">
<g>
	<path fill="#FFFFFF" d="M56.291,56.25H-0.042V-0.083h56.333V56.25z M1.95,54.259h52.351V1.907H1.95V54.259z"/>
</g>
<path fill="#FFFFFF" d="M43.156,27.372L18.097,10.089c-0.265-0.183-0.608-0.201-0.893-0.054c-0.284,0.15-0.462,0.443-0.462,0.766
	v34.563c0,0.323,0.178,0.617,0.462,0.766c0.127,0.066,0.265,0.1,0.402,0.1c0.172,0,0.343-0.052,0.49-0.153l25.059-17.282
	c0.234-0.162,0.373-0.427,0.373-0.711S43.389,27.533,43.156,27.372z M18.471,43.718V12.447l22.673,15.637L18.471,43.718z"/>
</svg>
