<?xml version="1.0" encoding="utf-8"?>
<!-- Generator: Adobe Illustrator 15.1.0, SVG Export Plug-In . SVG Version: 6.00 Build 0)  -->
<!DOCTYPE svg PUBLIC "-//W3C//DTD SVG 1.1//EN" "http://www.w3.org/Graphics/SVG/1.1/DTD/svg11.dtd">
<svg version="1.1" id="Layer_1" xmlns="http://www.w3.org/2000/svg" xmlns:xlink="http://www.w3.org/1999/xlink" x="0px" y="0px"
	 width="91.75px" height="60px" viewBox="0 0 91.75 60" enable-background="new 0 0 91.75 60" xml:space="preserve">
<g>
	<path fill="#FFFFFF" d="M32.19,36.482h14.336c-2.518,7.114-9.332,12.214-17.311,12.156c-9.68-0.072-17.684-7.816-18.06-17.489
		c-0.403-10.369,7.917-18.934,18.198-18.934c4.701,0,8.991,1.791,12.224,4.726c0.768,0.696,1.933,0.7,2.687-0.009l5.264-4.956
		c0.824-0.775,0.828-2.084,0.006-2.861C44.405,4.257,37.524,1.228,29.938,1.08C13.753,0.764,0.113,14.032,0,30.218
		C-0.113,46.525,13.073,59.78,29.353,59.78c15.658,0,28.448-12.259,29.305-27.701c0.022-0.194,0.037-6.738,0.037-6.738H32.19
		c-1.086,0-1.967,0.881-1.967,1.967v7.208C30.224,35.604,31.104,36.482,32.19,36.482z"/>
	<path fill="#FFFFFF" d="M82.984,25.996v-7.042c0-0.952-0.772-1.723-1.724-1.723h-5.929c-0.951,0-1.723,0.771-1.723,1.723v7.042
		h-7.043c-0.952,0-1.724,0.771-1.724,1.724v5.927c0,0.953,0.771,1.724,1.724,1.724h7.043v7.042c0,0.953,0.771,1.724,1.723,1.724
		h5.929c0.951,0,1.724-0.771,1.724-1.724V35.37h7.042c0.953,0,1.724-0.771,1.724-1.724V27.72c0-0.953-0.771-1.724-1.724-1.724
		H82.984L82.984,25.996z"/>
</g>
</svg>
