<?xml version="1.0" encoding="utf-8"?>
<!-- Generator: Adobe Illustrator 15.1.0, SVG Export Plug-In . SVG Version: 6.00 Build 0)  -->
<!DOCTYPE svg PUBLIC "-//W3C//DTD SVG 1.1//EN" "http://www.w3.org/Graphics/SVG/1.1/DTD/svg11.dtd">
<svg version="1.1" id="Layer_1" xmlns="http://www.w3.org/2000/svg" xmlns:xlink="http://www.w3.org/1999/xlink" x="0px" y="0px"
	 width="60px" height="60px" viewBox="0 0 60 60" enable-background="new 0 0 60 60" xml:space="preserve">
<g>
	<g>
		<path fill="#FFFFFF" d="M50.17,35.455c0-1.988-0.254-3.721-0.762-5.201s-1.205-2.707-2.094-3.68
			c-0.887-0.973-1.934-1.691-3.139-2.156s-2.527-0.697-3.965-0.697c-1.142,0-2.135,0.137-2.98,0.412
			c-0.846,0.274-1.575,0.635-2.188,1.078c-0.613,0.443-1.132,0.92-1.555,1.427c-0.423,0.508-0.782,0.973-1.078,1.396v-3.679h-8.625
			c0.041,0.719,0.063,2.114,0.063,4.187v7.865c0,0-0.021,4.672-0.063,14.016h8.625V35.834c0-0.379,0.021-0.75,0.063-1.109
			s0.127-0.688,0.253-0.982c0.339-0.762,0.857-1.48,1.555-2.156c0.697-0.678,1.66-1.016,2.886-1.016
			c1.564,0,2.685,0.539,3.361,1.617s1.015,2.506,1.015,4.281v13.953h8.627V35.455L50.17,35.455z M14.651,20.803
			c1.522,0,2.728-0.443,3.615-1.332c0.888-0.888,1.311-1.945,1.269-3.171c0-1.269-0.434-2.337-1.301-3.203s-2.04-1.3-3.52-1.3
			c-1.48,0-2.664,0.434-3.553,1.3c-0.887,0.866-1.331,1.935-1.331,3.203c0,1.226,0.423,2.283,1.269,3.171
			c0.846,0.889,2.008,1.332,3.488,1.332H14.651L14.651,20.803z M18.964,24.354h-8.626v26.067h8.626V24.354z M58.225,0
			c0.422,0,0.781,0.137,1.078,0.412c0.295,0.274,0.443,0.623,0.443,1.047v57.082c0,0.424-0.148,0.771-0.443,1.047
			C59.006,59.863,58.646,60,58.225,60H1.775c-0.422,0-0.781-0.137-1.078-0.412c-0.295-0.275-0.443-0.623-0.443-1.047V1.459
			c0-0.424,0.148-0.772,0.443-1.047C0.994,0.137,1.354,0,1.775,0H58.225L58.225,0z"/>
	</g>
</g>
</svg>
