<?xml version="1.0" encoding="utf-8"?>
<!-- Generator: Adobe Illustrator 15.1.0, SVG Export Plug-In . SVG Version: 6.00 Build 0)  -->
<!DOCTYPE svg PUBLIC "-//W3C//DTD SVG 1.1//EN" "http://www.w3.org/Graphics/SVG/1.1/DTD/svg11.dtd">
<svg version="1.1" id="Layer_1" xmlns="http://www.w3.org/2000/svg" xmlns:xlink="http://www.w3.org/1999/xlink" x="0px" y="0px"
	 width="105.504px" height="144.586px" viewBox="0 0 105.504 144.586" enable-background="new 0 0 105.504 144.586"
	 xml:space="preserve">
<g>
	<g>
		<g>
			<path fill="#FFFFFF" d="M73.389,133.418h-45.5c-6.065,0-11-4.935-11-11v-98c0-6.065,4.935-11,11-11h45.5c6.065,0,11,4.935,11,11
				v98C84.389,128.483,79.455,133.418,73.389,133.418z M27.889,15.418c-4.962,0-9,4.038-9,9v98c0,4.963,4.038,9,9,9h45.5
				c4.963,0,9-4.037,9-9v-98c0-4.962-4.037-9-9-9H27.889z"/>
		</g>
		<g>
			<rect x="17.889" y="31.418" fill="#FFFFFF" width="65.5" height="2"/>
		</g>
		<g>
			<rect x="17.889" y="110.918" fill="#FFFFFF" width="65.5" height="2"/>
		</g>
	</g>
	<g>
		<path fill="#FFFFFF" d="M50.639,127.918c-3.309,0-6-2.691-6-6s2.691-6,6-6s6,2.691,6,6S53.948,127.918,50.639,127.918z
			 M50.639,117.918c-2.206,0-4,1.795-4,4s1.794,4,4,4s4-1.795,4-4S52.845,117.918,50.639,117.918z"/>
	</g>
	<path fill="#FFFFFF" d="M91.514,41.576h-32c-5.523,0-10,4.477-10,10v15.5c0,4.942,3.588,9.036,8.299,9.844l-0.02,0.008v8.49
		l8.771-8.342h24.949c5.523,0,10-4.478,10-10v-15.5C101.514,46.053,97.038,41.576,91.514,41.576z"/>
	<path fill="#FFFFFF" d="M11.783,65.997h24.938c4.304,0,7.793,3.489,7.793,7.793v12.08c0,3.852-2.796,7.042-6.467,7.672l0.016,0.006
		v6.616l-6.836-6.501H11.783c-4.304,0-7.793-3.489-7.793-7.793V73.79C3.99,69.485,7.479,65.997,11.783,65.997z"/>
	<rect x="56.827" y="51.411" fill="#3BA4DC" width="37.375" height="2.007"/>
	<rect x="56.827" y="58.161" fill="#3BA4DC" width="37.375" height="2.007"/>
	<rect x="56.827" y="64.993" fill="#3BA4DC" width="37.375" height="2.007"/>
</g>
</svg>
