<?xml version="1.0" encoding="utf-8"?>
<!-- Generator: Adobe Illustrator 15.1.0, SVG Export Plug-In . SVG Version: 6.00 Build 0)  -->
<!DOCTYPE svg PUBLIC "-//W3C//DTD SVG 1.1//EN" "http://www.w3.org/Graphics/SVG/1.1/DTD/svg11.dtd">
<svg version="1.1" id="Layer_1" xmlns="http://www.w3.org/2000/svg" xmlns:xlink="http://www.w3.org/1999/xlink" x="0px" y="0px"
	 width="40px" height="40px" viewBox="0 0 40 40" enable-background="new 0 0 40 40" xml:space="preserve">
<g>
	<g>
		<path fill="#FFFFFF" d="M33.129,37.639H6.871v-20.73h1.958v-3.473c0-6.107,4.967-11.074,11.071-11.074
			c6.105,0,11.074,4.967,11.074,11.074v3.473h2.154V37.639z M8.871,35.639h22.258v-16.73h-2.154v-5.473
			c0-5.004-4.07-9.074-9.074-9.074c-5.002,0-9.071,4.07-9.071,9.074v5.473H8.871V35.639z M20.406,34.43
			c-1.582,0-2.869-1.287-2.869-2.869v-3.529c-0.688-0.729-1.074-1.684-1.074-2.686c0-2.174,1.77-3.941,3.945-3.941
			c2.172,0,3.938,1.768,3.938,3.941c0.002,1-0.383,1.957-1.072,2.686v3.529C23.273,33.143,21.988,34.43,20.406,34.43z
			 M20.408,23.404c-1.072,0-1.945,0.871-1.945,1.941c0,0.57,0.26,1.111,0.711,1.484l0.363,0.299v4.432
			c0,0.48,0.39,0.869,0.869,0.869c0.479,0,0.869-0.389,0.869-0.869v-4.432l0.361-0.299c0.453-0.375,0.711-0.914,0.709-1.482
			C22.346,24.275,21.477,23.404,20.408,23.404z M27.314,18.908h-14.82v-5.473c0-4.086,3.324-7.412,7.411-7.412
			c4.085,0,7.409,3.326,7.409,7.412V18.908z M14.494,16.908h10.818l0.002-3.473c0-2.984-2.426-5.412-5.409-5.412
			s-5.411,2.428-5.411,5.412V16.908z"/>
	</g>
</g>
</svg>
