<?xml version="1.0" encoding="utf-8"?>
<!-- Generator: Adobe Illustrator 15.1.0, SVG Export Plug-In . SVG Version: 6.00 Build 0)  -->
<!DOCTYPE svg PUBLIC "-//W3C//DTD SVG 1.1//EN" "http://www.w3.org/Graphics/SVG/1.1/DTD/svg11.dtd">
<svg version="1.1" id="Layer_1" xmlns="http://www.w3.org/2000/svg" xmlns:xlink="http://www.w3.org/1999/xlink" x="0px" y="0px"
	 width="40px" height="40px" viewBox="0 0 40 40" enable-background="new 0 0 40 40" xml:space="preserve">
<g>
	<g>
		<path fill="#ffffff" d="M38.52,35.801H1.479l0.045-1.043c0.252-5.816,3.756-7.182,7.813-8.761c0.37-0.146,0.749-0.291,1.137-0.446
			c1.757-0.703,5.026-2.018,5.302-3.675c0.167-1.002-0.215-1.644-0.697-2.457c-0.275-0.461-0.559-0.938-0.745-1.504
			c-1.093-3.313-1.342-8.234,0.692-11.213c1.043-1.526,2.584-2.389,4.457-2.489c2.203-0.126,3.986,0.696,5.187,2.342
			c2.135,2.927,1.947,7.81,0.813,11.353c-0.225,0.701-0.543,1.255-0.823,1.744c-0.435,0.758-0.722,1.26-0.615,2.077
			c0.267,2.057,3.297,3.137,6.229,4.18c2.607,0.928,5.072,1.803,6.336,3.482c0.853,1.133,1.119,2.492,1.459,4.213
			c0.063,0.315,0.127,0.646,0.199,0.992L38.52,35.801z M3.615,33.801h32.453c-0.28-1.431-0.506-2.477-1.057-3.207
			c-0.902-1.199-3.193-2.015-5.408-2.804c-3.502-1.244-7.123-2.53-7.545-5.808c-0.19-1.483,0.369-2.462,0.865-3.327
			c0.254-0.441,0.494-0.86,0.654-1.36c1.158-3.619,0.943-7.551-0.523-9.563c-0.809-1.106-1.936-1.609-3.464-1.523
			c-1.262,0.068-2.215,0.598-2.913,1.62c-1.577,2.311-1.418,6.507-0.444,9.458c0.118,0.358,0.335,0.723,0.564,1.109
			c0.552,0.929,1.238,2.085,0.951,3.804c-0.459,2.771-4.113,4.236-6.531,5.205c-0.395,0.158-0.779,0.309-1.154,0.453
			C6.432,29.273,4.122,30.174,3.615,33.801z"/>
	</g>
</g>
</svg>
