<?xml version="1.0" encoding="UTF-8" standalone="no"?>
<!-- Created with Inkscape (http://www.inkscape.org/) -->

<svg
   xmlns:dc="http://purl.org/dc/elements/1.1/"
   xmlns:cc="http://creativecommons.org/ns#"
   xmlns:rdf="http://www.w3.org/1999/02/22-rdf-syntax-ns#"
   xmlns:svg="http://www.w3.org/2000/svg"
   xmlns="http://www.w3.org/2000/svg"
   xmlns:sodipodi="http://sodipodi.sourceforge.net/DTD/sodipodi-0.dtd"
   xmlns:inkscape="http://www.inkscape.org/namespaces/inkscape"
   width="28"
   height="28"
   viewBox="0 0 7.4083331 7.4083334"
   version="1.1"
   id="svg8"
   inkscape:version="0.92.1 r15371"
   sodipodi:docname="u-white.svg">
  <defs
     id="defs2" />
  <sodipodi:namedview
     id="base"
     pagecolor="#ffffff"
     bordercolor="#666666"
     borderopacity="1.0"
     inkscape:pageopacity="0.0"
     inkscape:pageshadow="2"
     inkscape:zoom="22.333332"
     inkscape:cx="12.067164"
     inkscape:cy="15.582091"
     inkscape:document-units="px"
     inkscape:current-layer="layer1"
     showgrid="false"
     inkscape:window-width="1366"
     inkscape:window-height="705"
     inkscape:window-x="1272"
     inkscape:window-y="248"
     inkscape:window-maximized="1"
     units="px"
     width="32in"
     showguides="true"
     inkscape:guide-bbox="true" />
  <metadata
     id="metadata5">
    <rdf:RDF>
      <cc:Work
         rdf:about="">
        <dc:format>image/svg+xml</dc:format>
        <dc:type
           rdf:resource="http://purl.org/dc/dcmitype/StillImage" />
        <dc:title></dc:title>
      </cc:Work>
    </rdf:RDF>
  </metadata>
  <g
     inkscape:groupmode="layer"
     id="layer1"
     inkscape:label="Layer 4"
     style="display:none"
     transform="translate(0,1.0583333)">
    <rect
       style="fill:#000000;stroke-width:0.30056006"
       id="rect21"
       width="7.4083333"
       height="7.4083333"
       x="0"
       y="-1.0583333" />
  </g>
  <g
     inkscape:groupmode="layer"
     id="layer3"
     inkscape:label="Layer 3"
     transform="translate(0,-289.59166)"
     style="display:inline">
    <path
       style="fill:#ffffff;stroke-width:0.16877389"
       d="m 2.0117042,296.56303 c -0.6776347,-0.35637 -1.0616045,-0.70685 -1.4341715,-1.30917 -0.48292124,-0.7807 -0.51164139,-0.92902 -0.5650101,-2.91809 -0.06269133,-2.33652 0.08596047,-2.74411 1.0008032,-2.74411 0.7718102,0 0.9957733,0.51926 0.9957733,2.30872 0,1.8054 0.1744242,2.30242 0.9346896,2.66337 0.6845066,0.32503 0.8206352,0.32503 1.5051417,0 0.7602661,-0.36095 0.9346905,-0.85797 0.9346905,-2.66337 0,-1.78946 0.2239622,-2.30872 0.9957731,-2.30872 0.8688199,0 1.0289392,0.39972 1.0289392,2.56855 0,1.80797 -0.034584,2.01732 -0.4714579,2.85409 -0.6184651,1.18453 -1.6831345,1.87332 -3.0426725,1.96841 -0.8062652,0.0564 -1.1029563,-0.0105 -1.8824986,-0.41968 z"
       id="path304"
       inkscape:connector-curvature="0" />
  </g>
</svg>
