<?xml version="1.0" encoding="utf-8"?>
<!-- Generator: Adobe Illustrator 15.1.0, SVG Export Plug-In . SVG Version: 6.00 Build 0)  -->
<!DOCTYPE svg PUBLIC "-//W3C//DTD SVG 1.1//EN" "http://www.w3.org/Graphics/SVG/1.1/DTD/svg11.dtd">
<svg version="1.1" id="Layer_1" xmlns="http://www.w3.org/2000/svg" xmlns:xlink="http://www.w3.org/1999/xlink" x="0px" y="0px"
	 width="49.333px" height="50.5px" viewBox="0 0 49.333 50.5" enable-background="new 0 0 49.333 50.5" xml:space="preserve">
<g>
	<path fill="#FFFFFF" d="M24.666,49.917C11.066,49.917,0,38.85,0,25.249C0,11.647,11.066,0.583,24.666,0.583
		c13.6,0,24.666,11.065,24.666,24.667C49.332,38.85,38.266,49.917,24.666,49.917z M24.666,1.583C11.617,1.583,1,12.199,1,25.249
		s10.617,23.667,23.666,23.667s23.666-10.617,23.666-23.667S37.715,1.583,24.666,1.583z"/>
</g>
<g>
	<path fill="#FFFFFF" d="M31.057,21.159H18.275c-0.283,0-0.512,0.229-0.512,0.512c0,0.282,0.229,0.512,0.512,0.512h12.781
		c0.283,0,0.512-0.229,0.512-0.512C31.568,21.388,31.34,21.159,31.057,21.159z"/>
	<path fill="#FFFFFF" d="M18.275,18.092h5.113c0.281,0,0.511-0.229,0.511-0.512c0-0.282-0.229-0.511-0.511-0.511h-5.113
		c-0.283,0-0.512,0.229-0.512,0.511C17.764,17.863,17.992,18.092,18.275,18.092z"/>
	<path fill="#FFFFFF" d="M31.057,25.249H18.275c-0.283,0-0.512,0.229-0.512,0.512c0,0.282,0.229,0.512,0.512,0.512h12.781
		c0.283,0,0.512-0.229,0.512-0.512C31.568,25.478,31.34,25.249,31.057,25.249z"/>
	<path fill="#FFFFFF" d="M31.057,29.34H18.275c-0.283,0-0.512,0.228-0.512,0.511s0.229,0.512,0.512,0.512h12.781
		c0.283,0,0.512-0.229,0.512-0.512S31.34,29.34,31.057,29.34z"/>
	<path fill="#FFFFFF" d="M31.057,33.431H18.275c-0.283,0-0.512,0.229-0.512,0.511s0.229,0.511,0.512,0.511h12.781
		c0.283,0,0.512-0.229,0.512-0.511S31.34,33.431,31.057,33.431z"/>
	<path fill="#FFFFFF" d="M29.224,9.911H12.651v30.677h24.03v-23.22L29.224,9.911z M29.523,11.656l5.412,5.413h-5.412V11.656z
		 M13.674,39.564V10.934h14.827v7.158h7.158v21.473H13.674z"/>
</g>
</svg>
