<?xml version="1.0" encoding="utf-8"?>
<!-- Generator: Adobe Illustrator 15.1.0, SVG Export Plug-In . SVG Version: 6.00 Build 0)  -->
<!DOCTYPE svg PUBLIC "-//W3C//DTD SVG 1.1//EN" "http://www.w3.org/Graphics/SVG/1.1/DTD/svg11.dtd">
<svg version="1.1" id="Layer_1" xmlns="http://www.w3.org/2000/svg" xmlns:xlink="http://www.w3.org/1999/xlink" x="0px" y="0px"
	 width="49.333px" height="50.5px" viewBox="0 0 49.333 50.5" enable-background="new 0 0 49.333 50.5" xml:space="preserve">
<g>
	<path fill="#FFFFFF" d="M24.666,49.918C11.065,49.918,0,38.851,0,25.25C0,11.648,11.065,0.583,24.666,0.583
		c13.6,0,24.666,11.065,24.666,24.667C49.332,38.851,38.266,49.918,24.666,49.918z M24.666,1.583C11.617,1.583,1,12.2,1,25.25
		s10.617,23.667,23.666,23.667c13.049,0,23.666-10.617,23.666-23.667S37.715,1.583,24.666,1.583z"/>
</g>
<g>
	<path fill="none" d="M32.373,19.138c-2.984,0-5.413,2.429-5.413,5.413s2.428,5.412,5.413,5.412c0.562,0,1.103-0.086,1.612-0.246
		V19.383C33.476,19.225,32.935,19.138,32.373,19.138z"/>
	<path fill="none" d="M26.161,24.551c0-3.426,2.787-6.213,6.212-6.213c0.559,0,1.097,0.081,1.612,0.22v-6.321H11.676v25.369
		l1.996-1.995c0.181-0.181,0.475-0.181,0.657,0l2.46,2.46l1.53-1.529c0.09-0.091,0.21-0.137,0.328-0.137
		c0.119,0,0.238,0.046,0.329,0.137l1.531,1.529l1.53-1.529c0.182-0.183,0.476-0.183,0.657,0l0.601,0.601l1.531-1.531
		c0.181-0.181,0.476-0.181,0.657,0l1.53,1.531l1.066-1.065c0.181-0.183,0.475-0.183,0.657,0l1.065,1.065l2.46-2.46
		c0.182-0.182,0.475-0.182,0.657,0l1.065,1.064v-5.203c-0.515,0.139-1.054,0.22-1.612,0.22
		C28.947,30.763,26.161,27.977,26.161,24.551z M13.085,33.615c-0.256,0-0.467-0.207-0.467-0.465c0-0.256,0.206-0.465,0.462-0.465
		h0.005c0.257,0,0.464,0.209,0.464,0.465C13.549,33.408,13.342,33.615,13.085,33.615z M15.874,33.615
		c-0.256,0-0.467-0.207-0.467-0.465c0-0.256,0.206-0.465,0.463-0.465h0.004c0.256,0,0.465,0.209,0.465,0.465
		C16.338,33.408,16.13,33.615,15.874,33.615z M16.79,29.897h-0.93c-0.256,0-0.464-0.208-0.464-0.465
		c0-0.256,0.208-0.464,0.464-0.464h0.93c0.257,0,0.464,0.208,0.464,0.464C17.254,29.689,17.046,29.897,16.79,29.897z M16.79,27.109
		h-0.93c-0.256,0-0.464-0.209-0.464-0.465c0-0.257,0.208-0.465,0.464-0.465h0.93c0.257,0,0.464,0.208,0.464,0.465
		C17.254,26.9,17.046,27.109,16.79,27.109z M16.79,24.32h-0.93c-0.256,0-0.464-0.208-0.464-0.465c0-0.256,0.208-0.465,0.464-0.465
		h0.93c0.257,0,0.464,0.209,0.464,0.465C17.254,24.112,17.046,24.32,16.79,24.32z M16.79,21.531h-0.93
		c-0.256,0-0.464-0.207-0.464-0.464s0.208-0.465,0.464-0.465h0.93c0.257,0,0.464,0.208,0.464,0.465S17.046,21.531,16.79,21.531z
		 M18.663,33.615c-0.256,0-0.467-0.207-0.467-0.465c0-0.256,0.206-0.465,0.462-0.465h0.005c0.256,0,0.464,0.209,0.464,0.465
		C19.127,33.408,18.918,33.615,18.663,33.615z M20.507,29.897h-1.859c-0.257,0-0.464-0.208-0.464-0.465
		c0-0.256,0.208-0.464,0.464-0.464h1.859c0.257,0,0.465,0.208,0.465,0.464C20.972,29.689,20.764,29.897,20.507,29.897z
		 M21.45,33.615c-0.256,0-0.466-0.207-0.466-0.465c0-0.256,0.206-0.465,0.462-0.465h0.004c0.257,0,0.465,0.209,0.465,0.465
		C21.915,33.408,21.708,33.615,21.45,33.615z M22.366,27.109h-3.718c-0.257,0-0.464-0.209-0.464-0.465
		c0-0.257,0.208-0.465,0.464-0.465h3.718c0.257,0,0.464,0.208,0.464,0.465C22.831,26.9,22.624,27.109,22.366,27.109z M23.295,24.32
		h-4.647c-0.257,0-0.464-0.208-0.464-0.465c0-0.256,0.208-0.465,0.464-0.465h4.647c0.257,0,0.465,0.209,0.465,0.465
		C23.76,24.112,23.553,24.32,23.295,24.32z M18.184,21.067c0-0.257,0.208-0.465,0.464-0.465h2.789c0.257,0,0.464,0.208,0.464,0.465
		s-0.208,0.464-0.464,0.464h-2.789C18.391,21.531,18.184,21.324,18.184,21.067z M23.295,16.885h-7.436
		c-0.256,0-0.464-0.208-0.464-0.465c0-0.256,0.208-0.465,0.464-0.465h7.436c0.257,0,0.465,0.209,0.465,0.465
		C23.76,16.677,23.553,16.885,23.295,16.885z M24.239,33.615c-0.256,0-0.467-0.207-0.467-0.465c0-0.256,0.206-0.465,0.463-0.465
		h0.004c0.256,0,0.465,0.209,0.465,0.465C24.704,33.408,24.496,33.615,24.239,33.615z M27.028,33.615
		c-0.257,0-0.467-0.207-0.467-0.465c0-0.256,0.206-0.465,0.462-0.465h0.005c0.256,0,0.465,0.209,0.465,0.465
		C27.493,33.408,27.284,33.615,27.028,33.615z M29.816,33.615c-0.256,0-0.466-0.207-0.466-0.465c0-0.256,0.206-0.465,0.462-0.465
		h0.004c0.257,0,0.465,0.209,0.465,0.465C30.281,33.408,30.073,33.615,29.816,33.615z M32.605,32.686
		c0.256,0,0.464,0.209,0.464,0.465c0,0.258-0.208,0.465-0.464,0.465c-0.256,0-0.468-0.207-0.468-0.465
		c0-0.256,0.206-0.465,0.463-0.465H32.605z"/>
	<path fill="none" d="M37.786,24.551c0-2.066-1.165-3.865-2.871-4.776v9.552C36.621,28.414,37.786,26.616,37.786,24.551z"/>
	<path fill="#FFFFFF" d="M15.874,32.686h-0.004c-0.257,0-0.463,0.209-0.463,0.465c0,0.258,0.211,0.465,0.467,0.465
		s0.465-0.207,0.465-0.465C16.338,32.895,16.13,32.686,15.874,32.686z"/>
	<path fill="#FFFFFF" d="M18.663,32.686h-0.005c-0.256,0-0.462,0.209-0.462,0.465c0,0.258,0.211,0.465,0.467,0.465
		c0.256,0,0.464-0.207,0.464-0.465C19.127,32.895,18.918,32.686,18.663,32.686z"/>
	<path fill="#FFFFFF" d="M22.366,26.18h-3.718c-0.257,0-0.464,0.208-0.464,0.465c0,0.256,0.208,0.465,0.464,0.465h3.718
		c0.257,0,0.464-0.209,0.464-0.465C22.831,26.388,22.624,26.18,22.366,26.18z"/>
	<path fill="#FFFFFF" d="M20.507,28.969h-1.859c-0.257,0-0.464,0.208-0.464,0.464c0,0.257,0.208,0.465,0.464,0.465h1.859
		c0.257,0,0.465-0.208,0.465-0.465C20.972,29.177,20.764,28.969,20.507,28.969z"/>
	<path fill="#FFFFFF" d="M27.028,32.686h-0.005c-0.256,0-0.462,0.209-0.462,0.465c0,0.258,0.21,0.465,0.467,0.465
		c0.256,0,0.465-0.207,0.465-0.465C27.493,32.895,27.284,32.686,27.028,32.686z"/>
	<path fill="#FFFFFF" d="M32.137,33.15c0,0.258,0.211,0.465,0.468,0.465c0.256,0,0.464-0.207,0.464-0.465
		c0-0.256-0.208-0.465-0.464-0.465H32.6C32.343,32.686,32.137,32.895,32.137,33.15z"/>
	<path fill="#FFFFFF" d="M29.816,32.686h-0.004c-0.256,0-0.462,0.209-0.462,0.465c0,0.258,0.21,0.465,0.466,0.465
		c0.257,0,0.465-0.207,0.465-0.465C30.281,32.895,30.073,32.686,29.816,32.686z"/>
	<path fill="#FFFFFF" d="M21.45,32.686h-0.004c-0.256,0-0.462,0.209-0.462,0.465c0,0.258,0.21,0.465,0.466,0.465
		c0.257,0,0.465-0.207,0.465-0.465C21.915,32.895,21.708,32.686,21.45,32.686z"/>
	<path fill="#FFFFFF" d="M16.79,26.18h-0.93c-0.256,0-0.464,0.208-0.464,0.465c0,0.256,0.208,0.465,0.464,0.465h0.93
		c0.257,0,0.464-0.209,0.464-0.465C17.254,26.388,17.046,26.18,16.79,26.18z"/>
	<path fill="#FFFFFF" d="M16.79,28.969h-0.93c-0.256,0-0.464,0.208-0.464,0.464c0,0.257,0.208,0.465,0.464,0.465h0.93
		c0.257,0,0.464-0.208,0.464-0.465C17.254,29.177,17.046,28.969,16.79,28.969z"/>
	<path fill="#FFFFFF" d="M13.085,32.686H13.08c-0.256,0-0.462,0.209-0.462,0.465c0,0.258,0.21,0.465,0.467,0.465
		c0.257,0,0.464-0.207,0.464-0.465C13.549,32.895,13.342,32.686,13.085,32.686z"/>
	<path fill="#FFFFFF" d="M16.79,23.391h-0.93c-0.256,0-0.464,0.209-0.464,0.465c0,0.257,0.208,0.465,0.464,0.465h0.93
		c0.257,0,0.464-0.208,0.464-0.465C17.254,23.6,17.046,23.391,16.79,23.391z"/>
	<path fill="#FFFFFF" d="M24.239,32.686h-0.004c-0.257,0-0.463,0.209-0.463,0.465c0,0.258,0.211,0.465,0.467,0.465
		s0.465-0.207,0.465-0.465C24.704,32.895,24.496,32.686,24.239,32.686z"/>
	<path fill="#FFFFFF" d="M18.648,21.531h2.789c0.257,0,0.464-0.207,0.464-0.464s-0.208-0.465-0.464-0.465h-2.789
		c-0.257,0-0.464,0.208-0.464,0.465S18.391,21.531,18.648,21.531z"/>
	<path fill="#FFFFFF" d="M16.79,20.603h-0.93c-0.256,0-0.464,0.208-0.464,0.465s0.208,0.464,0.464,0.464h0.93
		c0.257,0,0.464-0.207,0.464-0.464S17.046,20.603,16.79,20.603z"/>
	<path fill="#FFFFFF" d="M23.295,23.391h-4.647c-0.257,0-0.464,0.209-0.464,0.465c0,0.257,0.208,0.465,0.464,0.465h4.647
		c0.257,0,0.465-0.208,0.465-0.465C23.76,23.6,23.553,23.391,23.295,23.391z"/>
	<path fill="#FFFFFF" d="M23.295,15.955h-7.436c-0.256,0-0.464,0.209-0.464,0.465c0,0.257,0.208,0.465,0.464,0.465h7.436
		c0.257,0,0.465-0.208,0.465-0.465C23.76,16.164,23.553,15.955,23.295,15.955z"/>
	<g>
		<path fill="#FFFFFF" d="M32.604,21.998c0.512,0,0.929,0.416,0.929,0.929c0,0.257,0.208,0.465,0.464,0.465
			c0.258,0,0.465-0.208,0.465-0.465c0-0.863-0.594-1.585-1.395-1.792v-0.067c0-0.257-0.207-0.465-0.463-0.465
			c-0.258,0-0.465,0.208-0.465,0.465v0.067c-0.801,0.207-1.396,0.929-1.396,1.792c0,1.024,0.834,1.858,1.86,1.858
			c0.512,0,0.929,0.417,0.929,0.931c0,0.513-0.417,0.929-0.929,0.929c-0.514,0-0.932-0.416-0.932-0.929
			c0-0.257-0.207-0.466-0.464-0.466s-0.465,0.209-0.465,0.466c0,0.863,0.595,1.585,1.396,1.792v0.066
			c0,0.256,0.207,0.465,0.465,0.465c0.256,0,0.463-0.209,0.463-0.465v-0.066c0.801-0.207,1.395-0.929,1.395-1.792
			c0-1.026-0.833-1.86-1.857-1.86c-0.514,0-0.932-0.416-0.932-0.929S32.091,21.998,32.604,21.998z"/>
		<path fill="#FFFFFF" d="M34.915,18.887v-7.114c0-0.257-0.208-0.465-0.465-0.465H11.212c-0.257,0-0.465,0.208-0.465,0.465v26.956
			c0,0.188,0.114,0.357,0.287,0.429c0.058,0.024,0.118,0.036,0.178,0.036c0.121,0,0.239-0.048,0.329-0.137L14,36.597l2.46,2.46
			c0.181,0.182,0.476,0.182,0.657,0l1.53-1.531l1.53,1.531c0.182,0.182,0.476,0.182,0.658,0l1.53-1.531l0.601,0.602
			c0.182,0.182,0.475,0.182,0.657,0l1.531-1.53l1.53,1.53c0.182,0.182,0.476,0.182,0.657,0l1.067-1.066l1.065,1.066
			c0.181,0.182,0.476,0.182,0.657,0l2.46-2.459l1.53,1.529c0.009,0.01,0.019,0.02,0.029,0.027c0,0.001,0.001,0.001,0.001,0.001
			c0.076,0.063,0.172,0.103,0.278,0.108c0.017,0,0.034,0,0.052-0.001h0.001c0.094-0.007,0.18-0.041,0.251-0.096
			c0.024-0.019,0.048-0.04,0.067-0.063c0.07-0.082,0.113-0.188,0.114-0.304v-0.001v-6.656c2.161-0.973,3.671-3.143,3.671-5.662
			C38.585,22.03,37.075,19.861,34.915,18.887z M33.985,35.746l-1.065-1.064c-0.183-0.182-0.476-0.182-0.657,0l-2.46,2.46
			l-1.065-1.065c-0.182-0.183-0.476-0.183-0.657,0l-1.066,1.065l-1.53-1.531c-0.181-0.181-0.476-0.181-0.657,0l-1.531,1.531
			l-0.601-0.601c-0.181-0.183-0.475-0.183-0.657,0l-1.53,1.529l-1.531-1.529c-0.09-0.091-0.209-0.137-0.329-0.137
			c-0.118,0-0.238,0.046-0.328,0.137l-1.53,1.529l-2.46-2.46c-0.182-0.181-0.476-0.181-0.657,0l-1.996,1.995V12.236h22.309v6.321
			c-0.515-0.139-1.054-0.22-1.612-0.22c-3.426,0-6.212,2.787-6.212,6.213s2.787,6.212,6.212,6.212c0.559,0,1.097-0.081,1.612-0.22
			V35.746z M34.915,29.326c-0.295,0.158-0.605,0.29-0.929,0.391c-0.509,0.16-1.051,0.246-1.612,0.246
			c-2.984,0-5.413-2.428-5.413-5.412s2.428-5.413,5.413-5.413c0.562,0,1.103,0.087,1.612,0.245c0.324,0.102,0.634,0.234,0.929,0.392
			c1.707,0.911,2.871,2.71,2.871,4.776C37.786,26.616,36.621,28.414,34.915,29.326z"/>
	</g>
</g>
</svg>
