<?xml version="1.0" encoding="utf-8"?>
<!-- Generator: Adobe Illustrator 15.1.0, SVG Export Plug-In . SVG Version: 6.00 Build 0)  -->
<!DOCTYPE svg PUBLIC "-//W3C//DTD SVG 1.1//EN" "http://www.w3.org/Graphics/SVG/1.1/DTD/svg11.dtd">
<svg version="1.1" id="Layer_1" xmlns="http://www.w3.org/2000/svg" xmlns:xlink="http://www.w3.org/1999/xlink" x="0px" y="0px"
	 width="49.333px" height="50.5px" viewBox="0 0 49.333 50.5" enable-background="new 0 0 49.333 50.5" xml:space="preserve">
<g>
	<path fill="#3F5A8F" d="M24.666,49.917C11.065,49.917,0,38.851,0,25.25C0,11.648,11.065,0.583,24.666,0.583
		c13.6,0,24.666,11.065,24.666,24.667C49.332,38.851,38.266,49.917,24.666,49.917z M24.666,1.583C11.617,1.583,1,12.2,1,25.25
		s10.617,23.667,23.666,23.667c13.049,0,23.666-10.617,23.666-23.667S37.715,1.583,24.666,1.583z"/>
</g>
<g>
	<g>
		<path fill="#FFFFFF" d="M20.771,18.012c-1.762,0-3.195-1.434-3.195-3.195s1.434-3.195,3.195-3.195s3.195,1.434,3.195,3.195
			S22.533,18.012,20.771,18.012z M20.771,12.566c-1.24,0-2.249,1.01-2.249,2.25s1.009,2.25,2.249,2.25s2.249-1.01,2.249-2.25
			S22.012,12.566,20.771,12.566z"/>
	</g>
	<g>
		<path fill="#FFFFFF" d="M23.041,38.878c-0.887,0-1.639-0.691-1.715-1.576l-0.515-5.511l-0.386,5.493
			c-0.074,0.941-0.873,1.682-1.861,1.586c-0.936-0.072-1.646-0.902-1.574-1.848l0.725-9.378c-0.238,0.209-0.545,0.345-0.885,0.371
			l-0.121,0.006c-0.791,0-1.461-0.619-1.523-1.409c-0.436-5.579,1.436-7.532,3.525-8.813c0.044-0.027,0.849-0.459,1.268-0.561
			l0.447,0.125l0.336,0.339l0.323-0.339l0.423-0.087l0.01-0.052c0.453,0.109,1.214,0.514,1.387,0.623
			c0.818,0.52,1.37,0.74,1.845,0.74c0.629,0,1.247-0.389,2.396-1.26c0.08-0.063,0.17-0.115,0.264-0.16v-1.947
			c0-0.429,0.326-0.777,0.726-0.777h5.35c0.4,0,0.728,0.349,0.728,0.777v6.52c0,0.43-0.327,0.777-0.728,0.777h-5.35
			c-0.399,0-0.726-0.348-0.726-0.777V20.85c-0.921,0.529-2.091,0.958-3.379,0.777v4.447c0,0.178-0.033,0.699-0.174,1.061
			l0.903,9.872c0.04,0.459-0.103,0.906-0.397,1.258c-0.297,0.352-0.713,0.566-1.172,0.605
			C23.146,38.876,23.094,38.878,23.041,38.878z M20.906,27.996l0.541,0.424l0.821,8.798c0.034,0.402,0.372,0.715,0.772,0.715
			l0.057-0.002c0.217-0.02,0.404-0.117,0.539-0.273c0.135-0.16,0.197-0.361,0.18-0.566l-0.914-9.995l0.063-0.283
			c0.051-0.095,0.121-0.479,0.121-0.738v-5.027l0.596-0.456c1.287,0.349,2.373,0.075,3.932-0.991l0.74,0.391v1.582h4.911v-6.184
			h-4.911v2.121l-0.392,0.466c-0.093,0.017-0.177,0.052-0.246,0.104c-1.156,0.879-1.988,1.455-2.969,1.455
			c-0.667,0-1.37-0.266-2.351-0.889c-0.127-0.08-0.535-0.291-0.836-0.414l-0.449,0.474l-0.678,0.007l-0.47-0.472
			c-0.286,0.118-0.671,0.313-0.764,0.366c-1.827,1.121-3.469,2.859-3.071,7.93c0.023,0.303,0.279,0.539,0.58,0.539
			c0.369-0.027,0.609-0.309,0.586-0.631c-0.127-1.595-0.051-2.867,0.23-3.893l0.93,0.125v3.395c0,0.277,0.065,0.543,0.197,0.788
			l0.054,0.258l-0.772,9.979c-0.033,0.426,0.287,0.801,0.715,0.834c0.451-0.016,0.802-0.313,0.834-0.715l0.617-8.778l0.494-0.439
			c0.041,0.001,0.135,0.004,0.176,0.004C20.83,28.002,20.854,28,20.906,27.996z"/>
	</g>
</g>
</svg>
