<svg width="49" height="49" viewBox="0 0 49 49" fill="none" xmlns="http://www.w3.org/2000/svg">
<path d="M47.4651 2.8253H45.2772C44.9494 1.21526 43.5239 0 41.8201 0C40.1162 0 38.6908 1.21526 38.363 2.8253H33.4541C33.1263 1.21526 31.7009 0 29.997 0C28.2932 0 26.8677 1.21526 26.5399 2.8253H21.631C21.3032 1.21526 19.8778 0 18.1739 0C16.4701 0 15.0446 1.21526 14.7168 2.8253H9.80792C9.47994 1.21526 8.05449 0 6.35063 0C4.64678 0 3.22132 1.21526 2.89354 2.8253H0.705626C0.315932 2.8253 0 3.14145 0 3.53163V47.5121C0 47.9023 0.315932 48.2185 0.705626 48.2185H47.4651C47.8549 48.2185 48.1707 47.9023 48.1707 47.5121V3.53163C48.1707 3.14145 47.8549 2.8253 47.4651 2.8253ZM41.8201 1.41265C42.74 1.41265 43.5243 2.00323 43.8156 2.8253H39.8246C40.1159 2.00323 40.9002 1.41265 41.8201 1.41265ZM29.9969 1.41265C30.9168 1.41265 31.7011 2.00323 31.9924 2.8253H28.0014C28.2927 2.00323 29.0771 1.41265 29.9969 1.41265ZM18.1738 1.41265C19.0937 1.41265 19.878 2.00323 20.1693 2.8253H16.1783C16.4696 2.00323 17.2539 1.41265 18.1738 1.41265ZM6.35063 1.41265C7.27049 1.41265 8.05486 2.00323 8.34614 2.8253H4.35512C4.64641 2.00323 5.43078 1.41265 6.35063 1.41265ZM46.7595 43.9805H42.0484C41.6586 43.9805 41.3428 44.2967 41.3428 44.6868C41.3428 45.077 41.6586 45.3932 42.0484 45.3932H46.7595V46.8058H1.41125V45.3932H38.0612C38.2447 45.392 38.4118 45.3207 38.5367 45.2046C38.5458 45.1962 38.5508 45.1913 38.5558 45.1864L46.7595 36.9744V43.9805ZM38.7624 42.9817V35.9755H45.7616L38.7624 42.9817ZM46.7595 34.5629H38.0568C37.667 34.5629 37.3511 34.879 37.3511 35.2692V43.9805H1.41125V9.88855H46.7595V34.5629ZM46.7595 8.4759H1.41125V4.23795H2.89354C3.22132 5.848 4.64678 7.06325 6.35063 7.06325C6.74033 7.06325 7.05626 6.7471 7.05626 6.35693C7.05626 5.96675 6.74033 5.6506 6.35063 5.6506C5.43078 5.6506 4.64641 5.06002 4.35512 4.23795H14.7166C15.0444 5.848 16.4699 7.06325 18.1737 7.06325C18.5634 7.06325 18.8794 6.7471 18.8794 6.35693C18.8794 5.96675 18.5634 5.6506 18.1737 5.6506C17.2539 5.6506 16.4695 5.06002 16.1782 4.23795H26.5397C26.8675 5.848 28.293 7.06325 29.9968 7.06325C30.3866 7.06325 30.7024 6.7471 30.7024 6.35693C30.7024 5.96675 30.3866 5.6506 29.9968 5.6506C29.077 5.6506 28.2926 5.06002 28.0013 4.23795H38.3628C38.6906 5.848 40.1161 7.06325 41.8199 7.06325C42.2097 7.06325 42.5255 6.7471 42.5255 6.35693C42.5255 5.96675 42.2097 5.6506 41.8199 5.6506C40.9001 5.6506 40.1157 5.06002 39.8244 4.23795H46.7595V8.4759Z" fill="#273D6A"/>
<path d="M36.1751 0H0.705626C0.315932 0 0 0.316151 0 0.706325V24.9097C0 25.2999 0.315932 25.6161 0.705626 25.6161H29.5893C29.979 25.6161 30.2949 25.2999 30.2949 24.9097C30.2949 24.5196 29.979 24.2034 29.5893 24.2034H28.0134V17.5482H35.4695V18.3174C35.4695 18.7075 35.7853 19.0237 36.1751 19.0237C36.5649 19.0237 36.8807 18.7075 36.8807 18.3174V0.706325C36.8807 0.316151 36.5649 0 36.1751 0ZM8.86737 24.2034H1.41125V17.5482H8.86737V24.2034ZM8.86737 16.1356H1.41125V9.48049H8.86737V16.1356ZM8.86737 8.06784H1.41125V1.41265H8.86737V8.06784ZM17.7347 24.2034H10.2786V17.5482H17.7347V24.2034ZM17.7347 16.1356H10.2786V9.48049H17.7347V16.1356ZM17.7347 8.06784H10.2786V1.41265H17.7347V8.06784ZM26.6021 24.2034H19.146V17.5482H26.6021V24.2034ZM26.6021 16.1356H19.146V9.48049H24.4852C24.875 9.48049 25.1908 9.16434 25.1908 8.77416C25.1908 8.38399 24.875 8.06784 24.4852 8.06784H19.146V1.41265H26.6021V16.1356ZM35.4695 16.1356H28.0134V9.48049H35.4695V16.1356ZM35.4695 8.06784H28.0134V1.41265H35.4695V8.06784Z" transform="translate(5.64502 14.126)" fill="#273D6A"/>
</svg>
