<svg width="53" height="52" viewBox="0 0 53 52" fill="none" xmlns="http://www.w3.org/2000/svg">
<path d="M33.931 -1.98307e-08V1.70511H36.9976L19.401 19.2448L10.8583 10.7193L-1.59159e-07 21.5426L1.19953 22.7486L10.8583 13.1314L19.401 21.6465L38.2075 2.91116V5.95747H39.9182V-1.98307e-08H33.931Z" transform="translate(5.38232)" fill="#273D6A"/>
<path d="M51.2772 37.4811V1.58645e-07H42.7345V37.4811H41.0238V5.11532H32.4811V37.4915H30.7705V17.0407H22.2173V37.4811H20.5067V11.9253H11.964V37.4811H10.2533V25.5558H1.71063V37.4811H0V39.1862H52.9878V37.4811H51.2772ZM8.55315 37.4811H3.42126V27.2609H8.55315V37.4811ZM18.8065 37.4811H13.6746V13.6304H18.8065V37.4811ZM29.0598 37.4915H23.928V18.7458H29.0598V37.4915ZM39.3132 37.4915H34.1813V6.82042H39.3132V37.4915ZM49.577 37.4811H44.4451V1.70511H49.577V37.4811Z" transform="translate(0 11.9258)" fill="#273D6A"/>
</svg>
