<svg width="50" height="50" viewBox="0 0 50 50" fill="none" xmlns="http://www.w3.org/2000/svg">
<path d="M25 0C11.215 0 0 11.215 0 25C0 38.785 11.215 50 25 50C38.785 50 50 38.785 50 25C50 11.215 38.785 0 25 0ZM25 48.3333C12.1342 48.3333 1.66667 37.8658 1.66667 25C1.66667 12.1342 12.1342 1.66667 25 1.66667C37.8658 1.66667 48.3333 12.1342 48.3333 25C48.3333 37.8658 37.8658 48.3333 25 48.3333Z" fill="#273D6A"/>
<path d="M10.8333 9.285V0.833333C10.8333 0.3725 10.46 -2.41597e-07 10 -2.41597e-07C9.54 -2.41597e-07 9.16667 0.3725 9.16667 0.833333V9.285C8.00083 9.58833 7.08833 10.5008 6.785 11.6667H0.833333C0.373333 11.6667 0 12.0392 0 12.5C0 12.9608 0.373333 13.3333 0.833333 13.3333H6.785C7.1575 14.7667 8.45167 15.8333 10 15.8333C11.8383 15.8333 13.3333 14.3383 13.3333 12.5C13.3333 10.9508 12.2667 9.6575 10.8333 9.285ZM10 14.1667C9.08083 14.1667 8.33333 13.4192 8.33333 12.5C8.33333 11.5808 9.08083 10.8333 10 10.8333C10.9192 10.8333 11.6667 11.5808 11.6667 12.5C11.6667 13.4192 10.9192 14.1667 10 14.1667Z" transform="translate(15 12.3994)" fill="#273D6A"/>
<path d="M0.833333 2.5C1.29333 2.5 1.66667 2.1275 1.66667 1.66667V0.833334C1.66667 0.3725 1.29333 1.55767e-07 0.833333 1.55767e-07C0.373333 1.55767e-07 0 0.3725 0 0.833334V1.66667C0 2.1275 0.373333 2.5 0.833333 2.5Z" transform="translate(24.1667 5.73242)" fill="#273D6A"/>
<path d="M0.833333 1.34786e-06C0.373333 1.34786e-06 0 0.372501 0 0.833335V1.66667C0 2.1275 0.373333 2.5 0.833333 2.5C1.29333 2.5 1.66667 2.1275 1.66667 1.66667V0.833335C1.66667 0.372501 1.29333 1.34786e-06 0.833333 1.34786e-06Z" transform="translate(24.1667 41.5654)" fill="#273D6A"/>
<path d="M1.66667 -2.41597e-07H0.833333C0.373333 -2.41597e-07 0 0.3725 0 0.833333C0 1.29417 0.373333 1.66667 0.833333 1.66667H1.66667C2.12667 1.66667 2.5 1.29417 2.5 0.833333C2.5 0.3725 2.12667 -2.41597e-07 1.66667 -2.41597e-07Z" transform="translate(41.6667 24.0654)" fill="#273D6A"/>
<path d="M1.66667 -2.41597e-07H0.833333C0.373333 -2.41597e-07 0 0.3725 0 0.833333C0 1.29417 0.373333 1.66667 0.833333 1.66667H1.66667C2.12667 1.66667 2.5 1.29417 2.5 0.833333C2.5 0.3725 2.12667 -2.41597e-07 1.66667 -2.41597e-07Z" transform="translate(5.83325 24.0654)" fill="#273D6A"/>
<path d="M0.833541 0.244062L0.244374 0.833229C-0.0814598 1.15906 -0.0814598 1.68573 0.244374 2.01156C0.406874 2.17406 0.620207 2.25573 0.833541 2.25573C1.04687 2.25573 1.26021 2.17406 1.42271 2.01156L2.01188 1.4224C2.33771 1.09656 2.33771 0.569896 2.01188 0.244062C1.68604 -0.0817709 1.15937 -0.0809376 0.833541 0.244062Z" transform="translate(36.5405 11.1016)" fill="#273D6A"/>
<path d="M0.833542 0.244063L0.244375 0.83323C-0.0814579 1.15906 -0.0814579 1.68573 0.244375 2.01156C0.406875 2.17406 0.620209 2.25573 0.833542 2.25573C1.04688 2.25573 1.26021 2.17406 1.42271 2.01156L2.01187 1.4224C2.33771 1.09656 2.33771 0.569896 2.01187 0.244063C1.68604 -0.0817708 1.15854 -0.0809375 0.833542 0.244063Z" transform="translate(11.2031 36.4404)" fill="#273D6A"/>
<path d="M1.42271 0.244375C1.09687 -0.0814584 0.570207 -0.0814584 0.244374 0.244375C-0.0814598 0.570208 -0.0814598 1.09688 0.244374 1.42271L0.833541 2.01187C0.996041 2.17437 1.20937 2.25604 1.42271 2.25604C1.63604 2.25604 1.84938 2.17437 2.01188 2.01187C2.33771 1.68604 2.33771 1.15938 2.01188 0.833542L1.42271 0.244375Z" transform="translate(36.5405 36.4395)" fill="#273D6A"/>
<path d="M1.42271 0.244375C1.09687 -0.0814585 0.570209 -0.0814585 0.244375 0.244375C-0.0814579 0.570208 -0.0814579 1.09688 0.244375 1.42271L0.833542 2.01188C0.996042 2.17438 1.20937 2.25604 1.42271 2.25604C1.63604 2.25604 1.84937 2.17438 2.01187 2.01188C2.33771 1.68604 2.33771 1.15937 2.01187 0.833541L1.42271 0.244375Z" transform="translate(11.2031 11.1016)" fill="#273D6A"/>
</svg>
