<svg width="51" height="52" viewBox="0 0 51 52" fill="none" xmlns="http://www.w3.org/2000/svg">
<path d="M22.2811 3.24126L19.7813 0.741405C18.7916 -0.247134 17.0666 -0.247134 16.0769 0.741405L2.57268 14.2415L0.711694 21.0648L0.256319 21.52C-0.0841161 21.8604 -0.084994 22.4094 0.251054 22.7524L0.246668 22.77L0.263338 22.7656C0.433555 22.9322 0.654662 23.0182 0.876647 23.0182C1.10126 23.0182 1.32588 22.9322 1.49698 22.7612L1.95323 22.3051L8.77772 20.4447L22.2811 6.94455C23.3024 5.92268 23.3024 4.26225 22.2811 3.24126ZM4.59862 14.6967L13.5859 5.71217L17.3088 9.43388L8.32147 18.4185L4.59862 14.6967ZM3.8072 16.3861L6.63246 19.2105L2.74729 20.2701L3.8072 16.3861ZM21.0404 5.7034L18.5494 8.1936L14.8266 4.47189L17.3176 1.98168C17.644 1.65451 18.2134 1.65451 18.5398 1.98168L21.0404 4.48154C21.3773 4.81748 21.3773 5.36657 21.0404 5.7034Z" transform="translate(27.0139 28.6758)" fill="#273D6A"/>
<path d="M0.87741 1.75428H23.6901C24.1744 1.75428 24.5675 1.3622 24.5675 0.877142C24.5675 0.392083 24.1744 0 23.6901 0H0.87741C0.39308 0 2.00823e-07 0.392083 2.00823e-07 0.877142C2.00823e-07 1.3622 0.39308 1.75428 0.87741 1.75428Z" transform="translate(6.19116 30.4043)" fill="#273D6A"/>
<path d="M20.1804 0H0.87741C0.39308 0 2.00823e-07 0.392083 2.00823e-07 0.877142C2.00823e-07 1.3622 0.39308 1.75428 0.87741 1.75428H20.1804C20.6648 1.75428 21.0578 1.3622 21.0578 0.877142C21.0578 0.392083 20.6656 0 20.1804 0Z" transform="translate(6.19116 35.667)" fill="#273D6A"/>
<path d="M0.87741 1.75428H12.2837C12.7681 1.75428 13.1612 1.3622 13.1612 0.877142C13.1612 0.392083 12.7681 0 12.2837 0H0.87741C0.39308 0 2.00823e-07 0.392083 2.00823e-07 0.877142C2.00823e-07 1.3622 0.39308 1.75428 0.87741 1.75428Z" transform="translate(6.19116 14.6162)" fill="#273D6A"/>
<path d="M12.2837 1.75428C12.7681 1.75428 13.1612 1.3622 13.1612 0.877142C13.1612 0.392083 12.7681 0 12.2837 0H0.87741C0.39308 0 2.00823e-07 0.392083 2.00823e-07 0.877142C2.00823e-07 1.3622 0.39308 1.75428 0.87741 1.75428H12.2837Z" transform="translate(6.19116 40.9307)" fill="#273D6A"/>
<path d="M26.3223 0H0.87741C0.39308 0 2.00823e-07 0.392083 2.00823e-07 0.877142C2.00823e-07 1.3622 0.39308 1.75428 0.87741 1.75428H26.3223C26.8066 1.75428 27.1997 1.3622 27.1997 0.877142C27.1997 0.392083 26.8075 0 26.3223 0Z" transform="translate(6.19116 19.8789)" fill="#273D6A"/>
<path d="M0.87741 1.75428H13.1612C13.6455 1.75428 14.0386 1.3622 14.0386 0.877142C14.0386 0.392083 13.6455 0 13.1612 0H0.87741C0.39308 0 2.00823e-07 0.392083 2.00823e-07 0.877142C2.00823e-07 1.3622 0.39308 1.75428 0.87741 1.75428Z" transform="translate(6.19116 25.1426)" fill="#273D6A"/>
<path d="M7.89669 0.877142C7.89669 0.392083 7.50361 0 7.01928 0H0.87741C0.39308 0 2.00823e-07 0.392083 2.00823e-07 0.877142C2.00823e-07 1.3622 0.39308 1.75428 0.87741 1.75428H7.01928C7.50449 1.75428 7.89669 1.3622 7.89669 0.877142Z" transform="translate(25.4944 25.1426)" fill="#273D6A"/>
<path d="M1.50037 1.48895C1.6583 1.32317 1.75482 1.09424 1.75482 0.866178C1.75482 0.638121 1.6583 0.410064 1.50037 0.243407C1.16695 -0.081136 0.57909 -0.081136 0.254448 0.243407C0.0965144 0.410064 2.00823e-07 0.638121 2.00823e-07 0.866178C2.00823e-07 1.10388 0.0965144 1.32317 0.254448 1.48895C0.421156 1.64771 0.649284 1.74332 0.87741 1.74332C1.10554 1.74332 1.33454 1.64771 1.50037 1.48895Z" transform="translate(21.9846 25.1523)" fill="#273D6A"/>
<path d="M21.9353 49.12H1.75482V7.01714H7.89669V8.77142C7.89669 9.25648 8.28977 9.64857 8.7741 9.64857H28.9545C29.4389 9.64857 29.8319 9.25648 29.8319 8.77142V7.01714H35.9738V26.3143C35.9738 26.7993 36.3669 27.1914 36.8512 27.1914C37.3356 27.1914 37.7286 26.7993 37.7286 26.3143V6.14C37.7286 5.65494 37.3356 5.26285 36.8512 5.26285H29.8319V3.50857C29.8319 3.02351 29.4389 2.63143 28.9545 2.63143H23.6901V0.877142C23.6901 0.392083 23.297 0 22.8127 0H14.916C14.4316 0 14.0386 0.392083 14.0386 0.877142V2.63143H8.7741C8.28977 2.63143 7.89669 3.02351 7.89669 3.50857V5.26285H0.87741C0.39308 5.26285 -8.36764e-09 5.65494 -8.36764e-09 6.14V49.9971C-8.36764e-09 50.4822 0.39308 50.8743 0.87741 50.8743H21.9353C22.4196 50.8743 22.8127 50.4822 22.8127 49.9971C22.8127 49.5121 22.4205 49.12 21.9353 49.12ZM15.7934 1.75428H21.9353V3.50857V5.26285H15.7934V3.50857V1.75428ZM9.65151 4.38571H14.0386V6.14C14.0386 6.62506 14.4316 7.01714 14.916 7.01714H22.8127C23.297 7.01714 23.6901 6.62506 23.6901 6.14V4.38571H28.0771V6.14V7.89428H9.65151V6.14V4.38571Z" transform="translate(0.926758 0.582031)" fill="#273D6A"/>
</svg>
