<svg width="47" height="45" viewBox="0 0 47 45" fill="none" xmlns="http://www.w3.org/2000/svg">
<path d="M44.5494 2.00302e-08H1.69449C0.760139 2.00302e-08 0 0.759145 0 1.69227V12.1737C0 13.1068 0.760139 13.866 1.69449 13.866H44.5494C45.4838 13.866 46.2439 13.1068 46.2439 12.1737V1.69227C46.244 0.759145 45.4839 2.00302e-08 44.5494 2.00302e-08ZM11.3697 12.2282H1.69459C1.66446 12.2282 1.63989 12.2038 1.63989 12.1736V1.69217C1.63989 1.66208 1.66436 1.63754 1.69459 1.63754H11.3697V12.2282ZM44.6041 12.1737C44.6041 12.2038 44.5796 12.2283 44.5494 12.2283H13.0095V1.63764H44.5494C44.5794 1.63764 44.6041 1.66208 44.6041 1.69227V12.1737Z" transform="translate(0.000244141)" fill="#273D6A"/>
<path d="M15.6879 -1.72568e-07H0.819894C0.367026 -1.72568e-07 3.08561e-07 0.366647 3.08561e-07 0.818822C3.08561e-07 1.271 0.367127 1.63764 0.819894 1.63764H15.6879C16.1408 1.63764 16.5078 1.271 16.5078 0.818822C16.5078 0.366647 16.1408 -1.72568e-07 15.6879 -1.72568e-07Z" transform="translate(14.8679 4.36719)" fill="#273D6A"/>
<path d="M18.3118 -2.71178e-07H0.819894C0.366925 -2.71178e-07 2.09821e-07 0.366647 2.09821e-07 0.818822C2.09821e-07 1.271 0.367127 1.63764 0.819894 1.63764H18.3118C18.7647 1.63764 19.1317 1.271 19.1317 0.818822C19.1317 0.366647 18.7646 -2.71178e-07 18.3118 -2.71178e-07Z" transform="translate(22.7393 7.86035)" fill="#273D6A"/>
<path d="M5.19307 -2.71178e-07H0.819894C0.367026 -2.71178e-07 3.08561e-07 0.366647 3.08561e-07 0.818822C3.08561e-07 1.271 0.367127 1.63764 0.819894 1.63764H5.19307C5.64594 1.63764 6.01296 1.271 6.01296 0.818822C6.01296 0.366647 5.64584 -2.71178e-07 5.19307 -2.71178e-07Z" transform="translate(14.8679 7.86035)" fill="#273D6A"/>
<path d="M3.00638 -9.55287e-08C1.34859 -9.55287e-08 -1.5428e-07 1.34693 -1.5428e-07 3.00245C-1.5428e-07 3.45472 0.367127 3.82127 0.819894 3.82127C1.27266 3.82127 1.63979 3.45462 1.63979 3.00245C1.63979 2.24987 2.25281 1.63764 3.00638 1.63764C3.75995 1.63764 4.37297 2.24997 4.37297 3.00245C4.37297 3.75493 3.75995 4.36725 3.00638 4.36725C2.55351 4.36725 2.18649 4.7339 2.18649 5.18608C2.18649 5.63825 2.55361 6.0049 3.00638 6.0049C4.66417 6.0049 6.01276 4.65807 6.01276 3.00245C6.01276 1.34683 4.66417 -9.55287e-08 3.00638 -9.55287e-08Z" transform="translate(3.49829 2.62012)" fill="#273D6A"/>
<path d="M0.824242 3.69789e-08H0.815547C0.362679 3.69789e-08 1.01825e-07 0.366647 1.01825e-07 0.818822C1.01825e-07 1.271 0.371475 1.63764 0.824343 1.63764C1.27721 1.63764 1.64424 1.271 1.64424 0.818822C1.64424 0.366647 1.27701 3.69789e-08 0.824242 3.69789e-08Z" transform="translate(5.68921 9.60742)" fill="#273D6A"/>
<path d="M44.5494 2.00302e-08H1.69449C0.760139 2.00302e-08 0 0.759145 0 1.69227V12.1737C0 13.1068 0.760139 13.866 1.69449 13.866H44.5494C45.4838 13.866 46.2439 13.1068 46.2439 12.1737V1.69227C46.244 0.759145 45.4839 2.00302e-08 44.5494 2.00302e-08ZM11.3697 12.2282H1.69459C1.66446 12.2282 1.63989 12.2038 1.63989 12.1736V1.69217C1.63989 1.66208 1.66436 1.63754 1.69459 1.63754H11.3697V12.2282ZM44.6041 12.1737C44.6041 12.2038 44.5796 12.2283 44.5494 12.2283H13.0095V1.63764H44.5494C44.5794 1.63764 44.6041 1.66208 44.6041 1.69227V12.1737Z" transform="translate(0 15.2471)" fill="#273D6A"/>
<path d="M15.6879 -1.72568e-07H0.819894C0.367026 -1.72568e-07 3.08561e-07 0.366647 3.08561e-07 0.818822C3.08561e-07 1.271 0.367127 1.63764 0.819894 1.63764H15.6879C16.1408 1.63764 16.5078 1.271 16.5078 0.818822C16.5078 0.366647 16.1408 -1.72568e-07 15.6879 -1.72568e-07Z" transform="translate(14.8679 19.6143)" fill="#273D6A"/>
<path d="M18.3118 -2.71178e-07H0.819894C0.366925 -2.71178e-07 2.09821e-07 0.366647 2.09821e-07 0.818822C2.09821e-07 1.271 0.367127 1.63764 0.819894 1.63764H18.3118C18.7647 1.63764 19.1317 1.271 19.1317 0.818822C19.1317 0.366647 18.7646 -2.71178e-07 18.3118 -2.71178e-07Z" transform="translate(22.7393 23.1074)" fill="#273D6A"/>
<path d="M5.19307 -2.71178e-07H0.819894C0.367026 -2.71178e-07 3.08561e-07 0.366647 3.08561e-07 0.818822C3.08561e-07 1.271 0.367127 1.63764 0.819894 1.63764H5.19307C5.64594 1.63764 6.01296 1.271 6.01296 0.818822C6.01296 0.366647 5.64584 -2.71178e-07 5.19307 -2.71178e-07Z" transform="translate(14.8679 23.1074)" fill="#273D6A"/>
<path d="M3.00638 -9.55287e-08C1.34859 -9.55287e-08 -1.5428e-07 1.34693 -1.5428e-07 3.00245C-1.5428e-07 3.45472 0.367127 3.82127 0.819894 3.82127C1.27266 3.82127 1.63979 3.45462 1.63979 3.00245C1.63979 2.24987 2.25281 1.63764 3.00638 1.63764C3.75995 1.63764 4.37297 2.24997 4.37297 3.00245C4.37297 3.75493 3.75995 4.36725 3.00638 4.36725C2.55351 4.36725 2.18649 4.7339 2.18649 5.18608C2.18649 5.63825 2.55361 6.0049 3.00638 6.0049C4.66417 6.0049 6.01276 4.65807 6.01276 3.00245C6.01276 1.34683 4.66417 -9.55287e-08 3.00638 -9.55287e-08Z" transform="translate(3.49829 17.8682)" fill="#273D6A"/>
<path d="M0.824242 3.69789e-08H0.815547C0.362679 3.69789e-08 1.01825e-07 0.366647 1.01825e-07 0.818822C1.01825e-07 1.271 0.371475 1.63764 0.824343 1.63764C1.27721 1.63764 1.64424 1.271 1.64424 0.818822C1.64424 0.366647 1.27701 3.69789e-08 0.824242 3.69789e-08Z" transform="translate(5.68921 24.8545)" fill="#273D6A"/>
<path d="M44.5494 2.00302e-08H1.69449C0.760139 2.00302e-08 0 0.759145 0 1.69227V12.1737C0 13.1068 0.760139 13.866 1.69449 13.866H44.5494C45.4838 13.866 46.2439 13.1068 46.2439 12.1737V1.69227C46.244 0.759145 45.4839 2.00302e-08 44.5494 2.00302e-08ZM11.3697 12.2282H1.69459C1.66446 12.2282 1.63989 12.2038 1.63989 12.1736V1.69217C1.63989 1.66208 1.66436 1.63754 1.69459 1.63754H11.3697V12.2282ZM44.6041 12.1737C44.6041 12.2038 44.5796 12.2283 44.5494 12.2283H13.0095V1.63764H44.5494C44.5794 1.63764 44.6041 1.66208 44.6041 1.69227V12.1737Z" transform="translate(0 30.4941)" fill="#273D6A"/>
<path d="M15.6879 -1.72568e-07H0.819894C0.367026 -1.72568e-07 3.08561e-07 0.366647 3.08561e-07 0.818822C3.08561e-07 1.271 0.367127 1.63764 0.819894 1.63764H15.6879C16.1408 1.63764 16.5078 1.271 16.5078 0.818822C16.5078 0.366647 16.1408 -1.72568e-07 15.6879 -1.72568e-07Z" transform="translate(14.8679 34.8623)" fill="#273D6A"/>
<path d="M18.3118 -2.71178e-07H0.819894C0.366925 -2.71178e-07 2.09821e-07 0.366647 2.09821e-07 0.818822C2.09821e-07 1.271 0.367127 1.63764 0.819894 1.63764H18.3118C18.7647 1.63764 19.1317 1.271 19.1317 0.818822C19.1317 0.366647 18.7646 -2.71178e-07 18.3118 -2.71178e-07Z" transform="translate(22.7393 38.3545)" fill="#273D6A"/>
<path d="M5.19307 -2.71178e-07H0.819894C0.367026 -2.71178e-07 3.08561e-07 0.366647 3.08561e-07 0.818822C3.08561e-07 1.271 0.367127 1.63764 0.819894 1.63764H5.19307C5.64594 1.63764 6.01296 1.271 6.01296 0.818822C6.01296 0.366647 5.64584 -2.71178e-07 5.19307 -2.71178e-07Z" transform="translate(14.8679 38.3545)" fill="#273D6A"/>
<path d="M3.00638 -9.55287e-08C1.34859 -9.55287e-08 -1.5428e-07 1.34693 -1.5428e-07 3.00245C-1.5428e-07 3.45472 0.367127 3.82127 0.819894 3.82127C1.27266 3.82127 1.63979 3.45462 1.63979 3.00245C1.63979 2.24987 2.25281 1.63764 3.00638 1.63764C3.75995 1.63764 4.37297 2.24997 4.37297 3.00245C4.37297 3.75493 3.75995 4.36725 3.00638 4.36725C2.55351 4.36725 2.18649 4.7339 2.18649 5.18608C2.18649 5.63825 2.55361 6.0049 3.00638 6.0049C4.66417 6.0049 6.01276 4.65807 6.01276 3.00245C6.01276 1.34683 4.66417 -9.55287e-08 3.00638 -9.55287e-08Z" transform="translate(3.49829 33.1152)" fill="#273D6A"/>
<path d="M0.824242 3.69789e-08H0.815547C0.362679 3.69789e-08 1.01825e-07 0.366647 1.01825e-07 0.818822C1.01825e-07 1.271 0.371475 1.63764 0.824343 1.63764C1.27721 1.63764 1.64424 1.271 1.64424 0.818822C1.64424 0.366647 1.27701 3.69789e-08 0.824242 3.69789e-08Z" transform="translate(5.68921 40.1016)" fill="#273D6A"/>
</svg>
