<svg width="57" height="49" viewBox="0 0 57 49" fill="none" xmlns="http://www.w3.org/2000/svg">
<mask id="path-1-outside-1" maskUnits="userSpaceOnUse" x="-1" y="-1" width="24" height="28" fill="black">
<rect fill="white" x="-1" y="-1" width="24" height="28"/>
<path d="M22.2591 24.7277C22.1445 22.7327 20.8422 21.0513 19.0515 20.383C19.8654 17.4879 20.0046 14.3514 19.4525 11.2912C19.0087 8.83072 18.2536 7.15881 18.0657 6.82568L19.9245 4.96436C20.1658 4.72275 20.2955 4.38807 20.2803 4.04625C20.2653 3.70763 20.1084 3.3893 19.85 3.17294C17.4065 1.12682 14.311 0 11.1336 0C7.95626 0 4.86074 1.12682 2.41727 3.17289C2.1589 3.38925 2.00205 3.70753 1.98701 4.04619C1.97182 4.38802 2.1015 4.72265 2.34282 4.96431L4.2419 6.86603C4.02311 7.27796 3.30533 8.91748 2.87714 11.2912C2.3264 14.3442 2.46377 17.4729 3.27253 20.3622C1.4526 21.016 0.124046 22.7117 0.00821455 24.7278C0.00284145 24.7536 8.35636e-08 24.7802 8.35636e-08 24.8076V25.0146C8.35636e-08 25.0826 0.0174626 25.1466 0.0482029 25.2022C0.224792 25.9107 0.865843 26.4373 1.62738 26.4373H7.61326C7.61502 26.4373 7.61673 26.4376 7.61848 26.4376C7.6205 26.4376 7.62251 26.4373 7.62448 26.4373H14.619C14.6211 26.4373 14.6232 26.4376 14.6254 26.4376C14.6272 26.4376 14.6289 26.4373 14.6307 26.4373H20.6398C21.4014 26.4373 22.0424 25.9107 22.219 25.2021C22.2498 25.1465 22.2672 25.0825 22.2672 25.0145V24.8076C22.2673 24.7802 22.2645 24.7535 22.2591 24.7277ZM18.69 11.4291C19.0629 13.4964 19.2903 16.6694 18.3059 20.1702C18.0037 20.1095 17.6917 20.0767 17.3726 20.0742C17.2801 19.8984 17.1245 19.7602 16.9364 19.6912L14.9101 18.9533C14.8343 18.9255 14.7556 18.9103 14.6767 18.9061C14.4375 18.4273 14.4368 17.8045 14.4368 17.2475C14.4368 17.2186 14.4334 17.1904 14.4274 17.1633C14.7142 16.8913 14.9943 16.5891 15.2629 16.2586C16.5432 14.6831 17.3076 12.773 17.3076 11.1492C17.3076 9.90425 16.7729 9.2219 15.4008 8.71566C14.6228 8.42862 13.7273 8.38004 12.7793 8.32862C11.0051 8.23239 9.17213 8.13207 7.81894 6.48194C8.84928 5.99857 9.97701 5.74273 11.1336 5.74273C13.1225 5.74273 15.0266 6.49777 16.4953 7.86873C16.5698 7.93832 16.6647 7.97293 16.7595 7.97293C16.8588 7.97293 16.958 7.9349 17.0335 7.85927L17.4892 7.40295C17.7468 7.9541 18.3275 9.41984 18.69 11.4291ZM13.1464 25.6612C13.7341 23.4248 14.3461 20.9347 14.6094 19.701C14.6102 19.6977 14.612 19.6889 14.6222 19.6833C14.6321 19.6778 14.6401 19.6807 14.6444 19.6823L16.6706 20.4202C16.6809 20.4239 16.6859 20.4312 16.6883 20.4366C16.6919 20.4448 16.69 20.4495 16.6891 20.4517C16.0563 21.9958 15.2298 23.9641 14.3863 25.6612H13.1464ZM9.84573 25.6612C9.4242 24.0643 8.98475 22.3141 8.66711 20.9765C9.32155 21.4955 10.1969 21.8069 11.1336 21.8069C12.0262 21.8069 12.8632 21.5242 13.5064 21.0485C13.1902 22.3766 12.7589 24.0926 12.3449 25.6612H9.84573ZM7.85443 25.6612C7.12555 24.2354 6.33473 22.4848 5.50153 20.4517C5.5006 20.4495 5.49869 20.4448 5.50231 20.4366C5.50469 20.4312 5.5097 20.4239 5.51915 20.4205L7.54708 19.6819C7.55049 19.6807 7.5585 19.6778 7.56847 19.6833C7.5786 19.6889 7.58046 19.6977 7.58118 19.7009C7.84451 20.9346 8.45653 23.4248 9.04421 25.6612H7.85443ZM5.7347 7.899C5.74751 7.88969 5.76006 7.8798 5.77194 7.86873C6.18945 7.479 6.64223 7.1392 7.12209 6.85222C8.69956 8.88395 10.8443 9.00083 12.7373 9.10352C13.6254 9.15169 14.4643 9.19722 15.1328 9.44384C16.3231 9.88298 16.5326 10.3436 16.5326 11.1492C16.5326 12.6002 15.8332 14.3272 14.6618 15.7688C13.5413 17.1476 12.1894 18.0042 11.1336 18.0042C10.0779 18.0042 8.72596 17.1476 7.60546 15.7688C6.43408 14.3272 5.7347 12.6003 5.7347 11.1492V7.899ZM11.1336 18.7803C11.9272 18.7803 12.8102 18.4298 13.6694 17.7992C13.6872 18.2592 13.7485 18.7491 13.9549 19.1932C13.9189 19.2324 13.8901 19.2793 13.8722 19.3331C13.539 20.3327 12.4128 21.0308 11.1337 21.0308C9.85452 21.0308 8.72834 20.3327 8.39515 19.3331C8.3796 19.2865 8.35584 19.2451 8.32639 19.2094C8.53708 18.7661 8.60088 18.2762 8.61974 17.8152C9.47199 18.4358 10.3468 18.7803 11.1336 18.7803ZM2.7612 4.0807C2.76668 3.95731 2.82108 3.84634 2.91439 3.76822C5.21872 1.83871 8.13771 0.776045 11.1336 0.776045C14.1295 0.776045 17.0486 1.83871 19.3529 3.76822C19.4462 3.84634 19.5006 3.95731 19.5061 4.0807C19.5117 4.2073 19.4657 4.32624 19.3765 4.41554L16.7445 7.05119C15.1733 5.70419 13.1952 4.96669 11.1336 4.96669C9.07201 4.96669 7.09399 5.70419 5.52277 7.05125L2.89078 4.41554C2.80155 4.32624 2.75557 4.2073 2.7612 4.0807ZM3.6397 11.4291C3.99319 9.46976 4.55416 8.02725 4.8207 7.44563L4.95973 7.58486V11.1492C4.95973 12.773 5.72405 14.683 7.0044 16.2586C7.27889 16.5964 7.56537 16.9048 7.85883 17.1814C7.85521 17.2026 7.85294 17.2243 7.85294 17.2466C7.85294 17.8039 7.85221 18.4272 7.61161 18.9064C7.50064 18.8987 7.38806 18.9139 7.28132 18.953L5.25339 19.6915C5.06574 19.7604 4.90998 19.8989 4.81755 20.0751C4.5459 20.0815 4.27972 20.1102 4.02052 20.159C3.03973 16.6626 3.26715 13.4942 3.6397 11.4291ZM0.777342 24.872C0.851377 22.6763 2.63111 20.9076 4.82835 20.8524C5.58621 22.696 6.31029 24.3102 6.9857 25.6612H1.62738C1.17898 25.6612 0.810304 25.3127 0.777342 24.872ZM20.6399 25.6612H15.25C16.0259 24.0642 16.7741 22.2861 17.3633 20.8505C19.5953 20.8663 21.4151 22.6511 21.49 24.872C21.4569 25.3127 21.0883 25.6612 20.6399 25.6612Z"/>
</mask>
<path d="M22.2591 24.7277C22.1445 22.7327 20.8422 21.0513 19.0515 20.383C19.8654 17.4879 20.0046 14.3514 19.4525 11.2912C19.0087 8.83072 18.2536 7.15881 18.0657 6.82568L19.9245 4.96436C20.1658 4.72275 20.2955 4.38807 20.2803 4.04625C20.2653 3.70763 20.1084 3.3893 19.85 3.17294C17.4065 1.12682 14.311 0 11.1336 0C7.95626 0 4.86074 1.12682 2.41727 3.17289C2.1589 3.38925 2.00205 3.70753 1.98701 4.04619C1.97182 4.38802 2.1015 4.72265 2.34282 4.96431L4.2419 6.86603C4.02311 7.27796 3.30533 8.91748 2.87714 11.2912C2.3264 14.3442 2.46377 17.4729 3.27253 20.3622C1.4526 21.016 0.124046 22.7117 0.00821455 24.7278C0.00284145 24.7536 8.35636e-08 24.7802 8.35636e-08 24.8076V25.0146C8.35636e-08 25.0826 0.0174626 25.1466 0.0482029 25.2022C0.224792 25.9107 0.865843 26.4373 1.62738 26.4373H7.61326C7.61502 26.4373 7.61673 26.4376 7.61848 26.4376C7.6205 26.4376 7.62251 26.4373 7.62448 26.4373H14.619C14.6211 26.4373 14.6232 26.4376 14.6254 26.4376C14.6272 26.4376 14.6289 26.4373 14.6307 26.4373H20.6398C21.4014 26.4373 22.0424 25.9107 22.219 25.2021C22.2498 25.1465 22.2672 25.0825 22.2672 25.0145V24.8076C22.2673 24.7802 22.2645 24.7535 22.2591 24.7277ZM18.69 11.4291C19.0629 13.4964 19.2903 16.6694 18.3059 20.1702C18.0037 20.1095 17.6917 20.0767 17.3726 20.0742C17.2801 19.8984 17.1245 19.7602 16.9364 19.6912L14.9101 18.9533C14.8343 18.9255 14.7556 18.9103 14.6767 18.9061C14.4375 18.4273 14.4368 17.8045 14.4368 17.2475C14.4368 17.2186 14.4334 17.1904 14.4274 17.1633C14.7142 16.8913 14.9943 16.5891 15.2629 16.2586C16.5432 14.6831 17.3076 12.773 17.3076 11.1492C17.3076 9.90425 16.7729 9.2219 15.4008 8.71566C14.6228 8.42862 13.7273 8.38004 12.7793 8.32862C11.0051 8.23239 9.17213 8.13207 7.81894 6.48194C8.84928 5.99857 9.97701 5.74273 11.1336 5.74273C13.1225 5.74273 15.0266 6.49777 16.4953 7.86873C16.5698 7.93832 16.6647 7.97293 16.7595 7.97293C16.8588 7.97293 16.958 7.9349 17.0335 7.85927L17.4892 7.40295C17.7468 7.9541 18.3275 9.41984 18.69 11.4291ZM13.1464 25.6612C13.7341 23.4248 14.3461 20.9347 14.6094 19.701C14.6102 19.6977 14.612 19.6889 14.6222 19.6833C14.6321 19.6778 14.6401 19.6807 14.6444 19.6823L16.6706 20.4202C16.6809 20.4239 16.6859 20.4312 16.6883 20.4366C16.6919 20.4448 16.69 20.4495 16.6891 20.4517C16.0563 21.9958 15.2298 23.9641 14.3863 25.6612H13.1464ZM9.84573 25.6612C9.4242 24.0643 8.98475 22.3141 8.66711 20.9765C9.32155 21.4955 10.1969 21.8069 11.1336 21.8069C12.0262 21.8069 12.8632 21.5242 13.5064 21.0485C13.1902 22.3766 12.7589 24.0926 12.3449 25.6612H9.84573ZM7.85443 25.6612C7.12555 24.2354 6.33473 22.4848 5.50153 20.4517C5.5006 20.4495 5.49869 20.4448 5.50231 20.4366C5.50469 20.4312 5.5097 20.4239 5.51915 20.4205L7.54708 19.6819C7.55049 19.6807 7.5585 19.6778 7.56847 19.6833C7.5786 19.6889 7.58046 19.6977 7.58118 19.7009C7.84451 20.9346 8.45653 23.4248 9.04421 25.6612H7.85443ZM5.7347 7.899C5.74751 7.88969 5.76006 7.8798 5.77194 7.86873C6.18945 7.479 6.64223 7.1392 7.12209 6.85222C8.69956 8.88395 10.8443 9.00083 12.7373 9.10352C13.6254 9.15169 14.4643 9.19722 15.1328 9.44384C16.3231 9.88298 16.5326 10.3436 16.5326 11.1492C16.5326 12.6002 15.8332 14.3272 14.6618 15.7688C13.5413 17.1476 12.1894 18.0042 11.1336 18.0042C10.0779 18.0042 8.72596 17.1476 7.60546 15.7688C6.43408 14.3272 5.7347 12.6003 5.7347 11.1492V7.899ZM11.1336 18.7803C11.9272 18.7803 12.8102 18.4298 13.6694 17.7992C13.6872 18.2592 13.7485 18.7491 13.9549 19.1932C13.9189 19.2324 13.8901 19.2793 13.8722 19.3331C13.539 20.3327 12.4128 21.0308 11.1337 21.0308C9.85452 21.0308 8.72834 20.3327 8.39515 19.3331C8.3796 19.2865 8.35584 19.2451 8.32639 19.2094C8.53708 18.7661 8.60088 18.2762 8.61974 17.8152C9.47199 18.4358 10.3468 18.7803 11.1336 18.7803ZM2.7612 4.0807C2.76668 3.95731 2.82108 3.84634 2.91439 3.76822C5.21872 1.83871 8.13771 0.776045 11.1336 0.776045C14.1295 0.776045 17.0486 1.83871 19.3529 3.76822C19.4462 3.84634 19.5006 3.95731 19.5061 4.0807C19.5117 4.2073 19.4657 4.32624 19.3765 4.41554L16.7445 7.05119C15.1733 5.70419 13.1952 4.96669 11.1336 4.96669C9.07201 4.96669 7.09399 5.70419 5.52277 7.05125L2.89078 4.41554C2.80155 4.32624 2.75557 4.2073 2.7612 4.0807ZM3.6397 11.4291C3.99319 9.46976 4.55416 8.02725 4.8207 7.44563L4.95973 7.58486V11.1492C4.95973 12.773 5.72405 14.683 7.0044 16.2586C7.27889 16.5964 7.56537 16.9048 7.85883 17.1814C7.85521 17.2026 7.85294 17.2243 7.85294 17.2466C7.85294 17.8039 7.85221 18.4272 7.61161 18.9064C7.50064 18.8987 7.38806 18.9139 7.28132 18.953L5.25339 19.6915C5.06574 19.7604 4.90998 19.8989 4.81755 20.0751C4.5459 20.0815 4.27972 20.1102 4.02052 20.159C3.03973 16.6626 3.26715 13.4942 3.6397 11.4291ZM0.777342 24.872C0.851377 22.6763 2.63111 20.9076 4.82835 20.8524C5.58621 22.696 6.31029 24.3102 6.9857 25.6612H1.62738C1.17898 25.6612 0.810304 25.3127 0.777342 24.872ZM20.6399 25.6612H15.25C16.0259 24.0642 16.7741 22.2861 17.3633 20.8505C19.5953 20.8663 21.4151 22.6511 21.49 24.872C21.4569 25.3127 21.0883 25.6612 20.6399 25.6612Z" transform="translate(33.7327 21.5625)" fill="#273D6A"/>
<path d="M22.2591 24.7277C22.1445 22.7327 20.8422 21.0513 19.0515 20.383C19.8654 17.4879 20.0046 14.3514 19.4525 11.2912C19.0087 8.83072 18.2536 7.15881 18.0657 6.82568L19.9245 4.96436C20.1658 4.72275 20.2955 4.38807 20.2803 4.04625C20.2653 3.70763 20.1084 3.3893 19.85 3.17294C17.4065 1.12682 14.311 0 11.1336 0C7.95626 0 4.86074 1.12682 2.41727 3.17289C2.1589 3.38925 2.00205 3.70753 1.98701 4.04619C1.97182 4.38802 2.1015 4.72265 2.34282 4.96431L4.2419 6.86603C4.02311 7.27796 3.30533 8.91748 2.87714 11.2912C2.3264 14.3442 2.46377 17.4729 3.27253 20.3622C1.4526 21.016 0.124046 22.7117 0.00821455 24.7278C0.00284145 24.7536 8.35636e-08 24.7802 8.35636e-08 24.8076V25.0146C8.35636e-08 25.0826 0.0174626 25.1466 0.0482029 25.2022C0.224792 25.9107 0.865843 26.4373 1.62738 26.4373H7.61326C7.61502 26.4373 7.61673 26.4376 7.61848 26.4376C7.6205 26.4376 7.62251 26.4373 7.62448 26.4373H14.619C14.6211 26.4373 14.6232 26.4376 14.6254 26.4376C14.6272 26.4376 14.6289 26.4373 14.6307 26.4373H20.6398C21.4014 26.4373 22.0424 25.9107 22.219 25.2021C22.2498 25.1465 22.2672 25.0825 22.2672 25.0145V24.8076C22.2673 24.7802 22.2645 24.7535 22.2591 24.7277ZM18.69 11.4291C19.0629 13.4964 19.2903 16.6694 18.3059 20.1702C18.0037 20.1095 17.6917 20.0767 17.3726 20.0742C17.2801 19.8984 17.1245 19.7602 16.9364 19.6912L14.9101 18.9533C14.8343 18.9255 14.7556 18.9103 14.6767 18.9061C14.4375 18.4273 14.4368 17.8045 14.4368 17.2475C14.4368 17.2186 14.4334 17.1904 14.4274 17.1633C14.7142 16.8913 14.9943 16.5891 15.2629 16.2586C16.5432 14.6831 17.3076 12.773 17.3076 11.1492C17.3076 9.90425 16.7729 9.2219 15.4008 8.71566C14.6228 8.42862 13.7273 8.38004 12.7793 8.32862C11.0051 8.23239 9.17213 8.13207 7.81894 6.48194C8.84928 5.99857 9.97701 5.74273 11.1336 5.74273C13.1225 5.74273 15.0266 6.49777 16.4953 7.86873C16.5698 7.93832 16.6647 7.97293 16.7595 7.97293C16.8588 7.97293 16.958 7.9349 17.0335 7.85927L17.4892 7.40295C17.7468 7.9541 18.3275 9.41984 18.69 11.4291ZM13.1464 25.6612C13.7341 23.4248 14.3461 20.9347 14.6094 19.701C14.6102 19.6977 14.612 19.6889 14.6222 19.6833C14.6321 19.6778 14.6401 19.6807 14.6444 19.6823L16.6706 20.4202C16.6809 20.4239 16.6859 20.4312 16.6883 20.4366C16.6919 20.4448 16.69 20.4495 16.6891 20.4517C16.0563 21.9958 15.2298 23.9641 14.3863 25.6612H13.1464ZM9.84573 25.6612C9.4242 24.0643 8.98475 22.3141 8.66711 20.9765C9.32155 21.4955 10.1969 21.8069 11.1336 21.8069C12.0262 21.8069 12.8632 21.5242 13.5064 21.0485C13.1902 22.3766 12.7589 24.0926 12.3449 25.6612H9.84573ZM7.85443 25.6612C7.12555 24.2354 6.33473 22.4848 5.50153 20.4517C5.5006 20.4495 5.49869 20.4448 5.50231 20.4366C5.50469 20.4312 5.5097 20.4239 5.51915 20.4205L7.54708 19.6819C7.55049 19.6807 7.5585 19.6778 7.56847 19.6833C7.5786 19.6889 7.58046 19.6977 7.58118 19.7009C7.84451 20.9346 8.45653 23.4248 9.04421 25.6612H7.85443ZM5.7347 7.899C5.74751 7.88969 5.76006 7.8798 5.77194 7.86873C6.18945 7.479 6.64223 7.1392 7.12209 6.85222C8.69956 8.88395 10.8443 9.00083 12.7373 9.10352C13.6254 9.15169 14.4643 9.19722 15.1328 9.44384C16.3231 9.88298 16.5326 10.3436 16.5326 11.1492C16.5326 12.6002 15.8332 14.3272 14.6618 15.7688C13.5413 17.1476 12.1894 18.0042 11.1336 18.0042C10.0779 18.0042 8.72596 17.1476 7.60546 15.7688C6.43408 14.3272 5.7347 12.6003 5.7347 11.1492V7.899ZM11.1336 18.7803C11.9272 18.7803 12.8102 18.4298 13.6694 17.7992C13.6872 18.2592 13.7485 18.7491 13.9549 19.1932C13.9189 19.2324 13.8901 19.2793 13.8722 19.3331C13.539 20.3327 12.4128 21.0308 11.1337 21.0308C9.85452 21.0308 8.72834 20.3327 8.39515 19.3331C8.3796 19.2865 8.35584 19.2451 8.32639 19.2094C8.53708 18.7661 8.60088 18.2762 8.61974 17.8152C9.47199 18.4358 10.3468 18.7803 11.1336 18.7803ZM2.7612 4.0807C2.76668 3.95731 2.82108 3.84634 2.91439 3.76822C5.21872 1.83871 8.13771 0.776045 11.1336 0.776045C14.1295 0.776045 17.0486 1.83871 19.3529 3.76822C19.4462 3.84634 19.5006 3.95731 19.5061 4.0807C19.5117 4.2073 19.4657 4.32624 19.3765 4.41554L16.7445 7.05119C15.1733 5.70419 13.1952 4.96669 11.1336 4.96669C9.07201 4.96669 7.09399 5.70419 5.52277 7.05125L2.89078 4.41554C2.80155 4.32624 2.75557 4.2073 2.7612 4.0807ZM3.6397 11.4291C3.99319 9.46976 4.55416 8.02725 4.8207 7.44563L4.95973 7.58486V11.1492C4.95973 12.773 5.72405 14.683 7.0044 16.2586C7.27889 16.5964 7.56537 16.9048 7.85883 17.1814C7.85521 17.2026 7.85294 17.2243 7.85294 17.2466C7.85294 17.8039 7.85221 18.4272 7.61161 18.9064C7.50064 18.8987 7.38806 18.9139 7.28132 18.953L5.25339 19.6915C5.06574 19.7604 4.90998 19.8989 4.81755 20.0751C4.5459 20.0815 4.27972 20.1102 4.02052 20.159C3.03973 16.6626 3.26715 13.4942 3.6397 11.4291ZM0.777342 24.872C0.851377 22.6763 2.63111 20.9076 4.82835 20.8524C5.58621 22.696 6.31029 24.3102 6.9857 25.6612H1.62738C1.17898 25.6612 0.810304 25.3127 0.777342 24.872ZM20.6399 25.6612H15.25C16.0259 24.0642 16.7741 22.2861 17.3633 20.8505C19.5953 20.8663 21.4151 22.6511 21.49 24.872C21.4569 25.3127 21.0883 25.6612 20.6399 25.6612Z" transform="translate(33.7327 21.5625)" stroke="#273D6A" stroke-width="0.4" mask="url(#path-1-outside-1)"/>
<path d="M0.387483 2.11772H1.13995V2.87137C1.13995 3.14075 1.35807 3.35939 1.62743 3.35939C1.89678 3.35939 2.11491 3.14075 2.11491 2.87137V2.11772H2.86737C3.13673 2.11772 3.35486 1.89908 3.35486 1.62969C3.35486 1.3603 3.13673 1.14167 2.86737 1.14167H2.11491V0.388022C2.11491 0.118633 1.89678 -0.1 1.62743 -0.1C1.35807 -0.1 1.13995 0.118633 1.13995 0.388022V1.14167H0.387483C0.11813 1.14167 -0.0999997 1.3603 -0.0999997 1.62969C-0.0999997 1.89908 0.11813 2.11772 0.387483 2.11772Z" transform="translate(43.2385 22.8027)" fill="#273D6A" stroke="#273D6A" stroke-width="0.2"/>
<mask id="path-3-outside-2" maskUnits="userSpaceOnUse" x="-1" y="-1" width="24" height="28" fill="black">
<rect fill="white" x="-1" y="-1" width="24" height="28"/>
<path d="M22.2591 24.7277C22.1445 22.7327 20.8422 21.0513 19.0515 20.383C19.8654 17.4879 20.0046 14.3514 19.4525 11.2912C19.0087 8.83072 18.2536 7.15881 18.0657 6.82568L19.9245 4.96436C20.1658 4.72275 20.2955 4.38807 20.2803 4.04625C20.2653 3.70763 20.1084 3.3893 19.85 3.17294C17.4065 1.12682 14.311 0 11.1336 0C7.95626 0 4.86074 1.12682 2.41727 3.17289C2.1589 3.38925 2.00205 3.70753 1.98701 4.04619C1.97182 4.38802 2.1015 4.72265 2.34282 4.96431L4.2419 6.86603C4.02311 7.27796 3.30533 8.91748 2.87714 11.2912C2.3264 14.3442 2.46377 17.4729 3.27253 20.3622C1.4526 21.016 0.124046 22.7117 0.00821455 24.7278C0.00284145 24.7536 8.35636e-08 24.7802 8.35636e-08 24.8076V25.0146C8.35636e-08 25.0826 0.0174626 25.1466 0.0482029 25.2022C0.224792 25.9107 0.865843 26.4373 1.62738 26.4373H7.61326C7.61502 26.4373 7.61673 26.4376 7.61848 26.4376C7.6205 26.4376 7.62251 26.4373 7.62448 26.4373H14.619C14.6211 26.4373 14.6232 26.4376 14.6254 26.4376C14.6272 26.4376 14.6289 26.4373 14.6307 26.4373H20.6398C21.4014 26.4373 22.0424 25.9107 22.219 25.2021C22.2498 25.1465 22.2672 25.0825 22.2672 25.0145V24.8076C22.2673 24.7802 22.2645 24.7535 22.2591 24.7277ZM18.69 11.4291C19.0629 13.4964 19.2903 16.6694 18.3059 20.1702C18.0037 20.1095 17.6917 20.0767 17.3726 20.0742C17.2801 19.8984 17.1245 19.7602 16.9364 19.6912L14.9101 18.9533C14.8343 18.9255 14.7556 18.9103 14.6767 18.9061C14.4375 18.4273 14.4368 17.8045 14.4368 17.2475C14.4368 17.2186 14.4334 17.1904 14.4274 17.1633C14.7142 16.8913 14.9943 16.5891 15.2629 16.2586C16.5432 14.6831 17.3076 12.773 17.3076 11.1492C17.3076 9.90425 16.7729 9.2219 15.4008 8.71566C14.6228 8.42862 13.7273 8.38004 12.7793 8.32862C11.0051 8.23239 9.17213 8.13207 7.81894 6.48194C8.84928 5.99857 9.97701 5.74273 11.1336 5.74273C13.1225 5.74273 15.0266 6.49777 16.4953 7.86873C16.5698 7.93832 16.6647 7.97293 16.7595 7.97293C16.8588 7.97293 16.958 7.9349 17.0335 7.85927L17.4892 7.40295C17.7468 7.9541 18.3275 9.41984 18.69 11.4291ZM13.1464 25.6612C13.7341 23.4248 14.3461 20.9347 14.6094 19.701C14.6102 19.6977 14.612 19.6889 14.6222 19.6833C14.6321 19.6778 14.6401 19.6807 14.6444 19.6823L16.6706 20.4202C16.6809 20.4239 16.6859 20.4312 16.6883 20.4366C16.6919 20.4448 16.69 20.4495 16.6891 20.4517C16.0563 21.9958 15.2298 23.9641 14.3863 25.6612H13.1464ZM9.84573 25.6612C9.4242 24.0643 8.98475 22.3141 8.66711 20.9765C9.32155 21.4955 10.1969 21.8069 11.1336 21.8069C12.0262 21.8069 12.8632 21.5242 13.5064 21.0485C13.1902 22.3766 12.7589 24.0926 12.3449 25.6612H9.84573ZM7.85443 25.6612C7.12555 24.2354 6.33473 22.4848 5.50153 20.4517C5.5006 20.4495 5.49869 20.4448 5.50231 20.4366C5.50469 20.4312 5.5097 20.4239 5.51915 20.4205L7.54708 19.6819C7.55049 19.6807 7.5585 19.6778 7.56847 19.6833C7.5786 19.6889 7.58046 19.6977 7.58118 19.7009C7.84451 20.9346 8.45653 23.4248 9.04421 25.6612H7.85443ZM5.7347 7.899C5.74751 7.88969 5.76006 7.8798 5.77194 7.86873C6.18945 7.479 6.64223 7.1392 7.12209 6.85222C8.69956 8.88395 10.8443 9.00083 12.7373 9.10352C13.6254 9.15169 14.4643 9.19722 15.1328 9.44384C16.3231 9.88298 16.5326 10.3436 16.5326 11.1492C16.5326 12.6002 15.8332 14.3272 14.6618 15.7688C13.5413 17.1476 12.1894 18.0042 11.1336 18.0042C10.0779 18.0042 8.72596 17.1476 7.60546 15.7688C6.43408 14.3272 5.7347 12.6003 5.7347 11.1492V7.899ZM11.1336 18.7803C11.9272 18.7803 12.8102 18.4298 13.6694 17.7992C13.6872 18.2592 13.7485 18.7491 13.9549 19.1932C13.9189 19.2324 13.8901 19.2793 13.8722 19.3331C13.539 20.3327 12.4128 21.0308 11.1337 21.0308C9.85452 21.0308 8.72834 20.3327 8.39515 19.3331C8.3796 19.2865 8.35584 19.2451 8.32639 19.2094C8.53708 18.7661 8.60088 18.2762 8.61974 17.8152C9.47199 18.4358 10.3468 18.7803 11.1336 18.7803ZM2.7612 4.0807C2.76668 3.95731 2.82108 3.84634 2.91439 3.76822C5.21872 1.83871 8.13771 0.776045 11.1336 0.776045C14.1295 0.776045 17.0486 1.83871 19.3529 3.76822C19.4462 3.84634 19.5006 3.95731 19.5061 4.0807C19.5117 4.2073 19.4657 4.32624 19.3765 4.41554L16.7445 7.05119C15.1733 5.70419 13.1952 4.96669 11.1336 4.96669C9.07201 4.96669 7.09399 5.70419 5.52277 7.05125L2.89078 4.41554C2.80155 4.32624 2.75557 4.2073 2.7612 4.0807ZM3.6397 11.4291C3.99319 9.46976 4.55416 8.02725 4.8207 7.44563L4.95973 7.58486V11.1492C4.95973 12.773 5.72405 14.683 7.0044 16.2586C7.27889 16.5964 7.56537 16.9048 7.85883 17.1814C7.85521 17.2026 7.85294 17.2243 7.85294 17.2466C7.85294 17.8039 7.85221 18.4272 7.61161 18.9064C7.50064 18.8987 7.38806 18.9139 7.28132 18.953L5.25339 19.6915C5.06574 19.7604 4.90998 19.8989 4.81755 20.0751C4.5459 20.0815 4.27972 20.1102 4.02052 20.159C3.03973 16.6626 3.26715 13.4942 3.6397 11.4291ZM0.777342 24.872C0.851377 22.6763 2.63111 20.9076 4.82835 20.8524C5.58621 22.696 6.31029 24.3102 6.9857 25.6612H1.62738C1.17898 25.6612 0.810304 25.3127 0.777342 24.872ZM20.6399 25.6612H15.25C16.0259 24.0642 16.7741 22.2861 17.3633 20.8505C19.5953 20.8663 21.4151 22.6511 21.49 24.872C21.4569 25.3127 21.0883 25.6612 20.6399 25.6612Z"/>
</mask>
<path d="M22.2591 24.7277C22.1445 22.7327 20.8422 21.0513 19.0515 20.383C19.8654 17.4879 20.0046 14.3514 19.4525 11.2912C19.0087 8.83072 18.2536 7.15881 18.0657 6.82568L19.9245 4.96436C20.1658 4.72275 20.2955 4.38807 20.2803 4.04625C20.2653 3.70763 20.1084 3.3893 19.85 3.17294C17.4065 1.12682 14.311 0 11.1336 0C7.95626 0 4.86074 1.12682 2.41727 3.17289C2.1589 3.38925 2.00205 3.70753 1.98701 4.04619C1.97182 4.38802 2.1015 4.72265 2.34282 4.96431L4.2419 6.86603C4.02311 7.27796 3.30533 8.91748 2.87714 11.2912C2.3264 14.3442 2.46377 17.4729 3.27253 20.3622C1.4526 21.016 0.124046 22.7117 0.00821455 24.7278C0.00284145 24.7536 8.35636e-08 24.7802 8.35636e-08 24.8076V25.0146C8.35636e-08 25.0826 0.0174626 25.1466 0.0482029 25.2022C0.224792 25.9107 0.865843 26.4373 1.62738 26.4373H7.61326C7.61502 26.4373 7.61673 26.4376 7.61848 26.4376C7.6205 26.4376 7.62251 26.4373 7.62448 26.4373H14.619C14.6211 26.4373 14.6232 26.4376 14.6254 26.4376C14.6272 26.4376 14.6289 26.4373 14.6307 26.4373H20.6398C21.4014 26.4373 22.0424 25.9107 22.219 25.2021C22.2498 25.1465 22.2672 25.0825 22.2672 25.0145V24.8076C22.2673 24.7802 22.2645 24.7535 22.2591 24.7277ZM18.69 11.4291C19.0629 13.4964 19.2903 16.6694 18.3059 20.1702C18.0037 20.1095 17.6917 20.0767 17.3726 20.0742C17.2801 19.8984 17.1245 19.7602 16.9364 19.6912L14.9101 18.9533C14.8343 18.9255 14.7556 18.9103 14.6767 18.9061C14.4375 18.4273 14.4368 17.8045 14.4368 17.2475C14.4368 17.2186 14.4334 17.1904 14.4274 17.1633C14.7142 16.8913 14.9943 16.5891 15.2629 16.2586C16.5432 14.6831 17.3076 12.773 17.3076 11.1492C17.3076 9.90425 16.7729 9.2219 15.4008 8.71566C14.6228 8.42862 13.7273 8.38004 12.7793 8.32862C11.0051 8.23239 9.17213 8.13207 7.81894 6.48194C8.84928 5.99857 9.97701 5.74273 11.1336 5.74273C13.1225 5.74273 15.0266 6.49777 16.4953 7.86873C16.5698 7.93832 16.6647 7.97293 16.7595 7.97293C16.8588 7.97293 16.958 7.9349 17.0335 7.85927L17.4892 7.40295C17.7468 7.9541 18.3275 9.41984 18.69 11.4291ZM13.1464 25.6612C13.7341 23.4248 14.3461 20.9347 14.6094 19.701C14.6102 19.6977 14.612 19.6889 14.6222 19.6833C14.6321 19.6778 14.6401 19.6807 14.6444 19.6823L16.6706 20.4202C16.6809 20.4239 16.6859 20.4312 16.6883 20.4366C16.6919 20.4448 16.69 20.4495 16.6891 20.4517C16.0563 21.9958 15.2298 23.9641 14.3863 25.6612H13.1464ZM9.84573 25.6612C9.4242 24.0643 8.98475 22.3141 8.66711 20.9765C9.32155 21.4955 10.1969 21.8069 11.1336 21.8069C12.0262 21.8069 12.8632 21.5242 13.5064 21.0485C13.1902 22.3766 12.7589 24.0926 12.3449 25.6612H9.84573ZM7.85443 25.6612C7.12555 24.2354 6.33473 22.4848 5.50153 20.4517C5.5006 20.4495 5.49869 20.4448 5.50231 20.4366C5.50469 20.4312 5.5097 20.4239 5.51915 20.4205L7.54708 19.6819C7.55049 19.6807 7.5585 19.6778 7.56847 19.6833C7.5786 19.6889 7.58046 19.6977 7.58118 19.7009C7.84451 20.9346 8.45653 23.4248 9.04421 25.6612H7.85443ZM5.7347 7.899C5.74751 7.88969 5.76006 7.8798 5.77194 7.86873C6.18945 7.479 6.64223 7.1392 7.12209 6.85222C8.69956 8.88395 10.8443 9.00083 12.7373 9.10352C13.6254 9.15169 14.4643 9.19722 15.1328 9.44384C16.3231 9.88298 16.5326 10.3436 16.5326 11.1492C16.5326 12.6002 15.8332 14.3272 14.6618 15.7688C13.5413 17.1476 12.1894 18.0042 11.1336 18.0042C10.0779 18.0042 8.72596 17.1476 7.60546 15.7688C6.43408 14.3272 5.7347 12.6003 5.7347 11.1492V7.899ZM11.1336 18.7803C11.9272 18.7803 12.8102 18.4298 13.6694 17.7992C13.6872 18.2592 13.7485 18.7491 13.9549 19.1932C13.9189 19.2324 13.8901 19.2793 13.8722 19.3331C13.539 20.3327 12.4128 21.0308 11.1337 21.0308C9.85452 21.0308 8.72834 20.3327 8.39515 19.3331C8.3796 19.2865 8.35584 19.2451 8.32639 19.2094C8.53708 18.7661 8.60088 18.2762 8.61974 17.8152C9.47199 18.4358 10.3468 18.7803 11.1336 18.7803ZM2.7612 4.0807C2.76668 3.95731 2.82108 3.84634 2.91439 3.76822C5.21872 1.83871 8.13771 0.776045 11.1336 0.776045C14.1295 0.776045 17.0486 1.83871 19.3529 3.76822C19.4462 3.84634 19.5006 3.95731 19.5061 4.0807C19.5117 4.2073 19.4657 4.32624 19.3765 4.41554L16.7445 7.05119C15.1733 5.70419 13.1952 4.96669 11.1336 4.96669C9.07201 4.96669 7.09399 5.70419 5.52277 7.05125L2.89078 4.41554C2.80155 4.32624 2.75557 4.2073 2.7612 4.0807ZM3.6397 11.4291C3.99319 9.46976 4.55416 8.02725 4.8207 7.44563L4.95973 7.58486V11.1492C4.95973 12.773 5.72405 14.683 7.0044 16.2586C7.27889 16.5964 7.56537 16.9048 7.85883 17.1814C7.85521 17.2026 7.85294 17.2243 7.85294 17.2466C7.85294 17.8039 7.85221 18.4272 7.61161 18.9064C7.50064 18.8987 7.38806 18.9139 7.28132 18.953L5.25339 19.6915C5.06574 19.7604 4.90998 19.8989 4.81755 20.0751C4.5459 20.0815 4.27972 20.1102 4.02052 20.159C3.03973 16.6626 3.26715 13.4942 3.6397 11.4291ZM0.777342 24.872C0.851377 22.6763 2.63111 20.9076 4.82835 20.8524C5.58621 22.696 6.31029 24.3102 6.9857 25.6612H1.62738C1.17898 25.6612 0.810304 25.3127 0.777342 24.872ZM20.6399 25.6612H15.25C16.0259 24.0642 16.7741 22.2861 17.3633 20.8505C19.5953 20.8663 21.4151 22.6511 21.49 24.872C21.4569 25.3127 21.0883 25.6612 20.6399 25.6612Z" transform="translate(1 1)" fill="#273D6A"/>
<path d="M22.2591 24.7277C22.1445 22.7327 20.8422 21.0513 19.0515 20.383C19.8654 17.4879 20.0046 14.3514 19.4525 11.2912C19.0087 8.83072 18.2536 7.15881 18.0657 6.82568L19.9245 4.96436C20.1658 4.72275 20.2955 4.38807 20.2803 4.04625C20.2653 3.70763 20.1084 3.3893 19.85 3.17294C17.4065 1.12682 14.311 0 11.1336 0C7.95626 0 4.86074 1.12682 2.41727 3.17289C2.1589 3.38925 2.00205 3.70753 1.98701 4.04619C1.97182 4.38802 2.1015 4.72265 2.34282 4.96431L4.2419 6.86603C4.02311 7.27796 3.30533 8.91748 2.87714 11.2912C2.3264 14.3442 2.46377 17.4729 3.27253 20.3622C1.4526 21.016 0.124046 22.7117 0.00821455 24.7278C0.00284145 24.7536 8.35636e-08 24.7802 8.35636e-08 24.8076V25.0146C8.35636e-08 25.0826 0.0174626 25.1466 0.0482029 25.2022C0.224792 25.9107 0.865843 26.4373 1.62738 26.4373H7.61326C7.61502 26.4373 7.61673 26.4376 7.61848 26.4376C7.6205 26.4376 7.62251 26.4373 7.62448 26.4373H14.619C14.6211 26.4373 14.6232 26.4376 14.6254 26.4376C14.6272 26.4376 14.6289 26.4373 14.6307 26.4373H20.6398C21.4014 26.4373 22.0424 25.9107 22.219 25.2021C22.2498 25.1465 22.2672 25.0825 22.2672 25.0145V24.8076C22.2673 24.7802 22.2645 24.7535 22.2591 24.7277ZM18.69 11.4291C19.0629 13.4964 19.2903 16.6694 18.3059 20.1702C18.0037 20.1095 17.6917 20.0767 17.3726 20.0742C17.2801 19.8984 17.1245 19.7602 16.9364 19.6912L14.9101 18.9533C14.8343 18.9255 14.7556 18.9103 14.6767 18.9061C14.4375 18.4273 14.4368 17.8045 14.4368 17.2475C14.4368 17.2186 14.4334 17.1904 14.4274 17.1633C14.7142 16.8913 14.9943 16.5891 15.2629 16.2586C16.5432 14.6831 17.3076 12.773 17.3076 11.1492C17.3076 9.90425 16.7729 9.2219 15.4008 8.71566C14.6228 8.42862 13.7273 8.38004 12.7793 8.32862C11.0051 8.23239 9.17213 8.13207 7.81894 6.48194C8.84928 5.99857 9.97701 5.74273 11.1336 5.74273C13.1225 5.74273 15.0266 6.49777 16.4953 7.86873C16.5698 7.93832 16.6647 7.97293 16.7595 7.97293C16.8588 7.97293 16.958 7.9349 17.0335 7.85927L17.4892 7.40295C17.7468 7.9541 18.3275 9.41984 18.69 11.4291ZM13.1464 25.6612C13.7341 23.4248 14.3461 20.9347 14.6094 19.701C14.6102 19.6977 14.612 19.6889 14.6222 19.6833C14.6321 19.6778 14.6401 19.6807 14.6444 19.6823L16.6706 20.4202C16.6809 20.4239 16.6859 20.4312 16.6883 20.4366C16.6919 20.4448 16.69 20.4495 16.6891 20.4517C16.0563 21.9958 15.2298 23.9641 14.3863 25.6612H13.1464ZM9.84573 25.6612C9.4242 24.0643 8.98475 22.3141 8.66711 20.9765C9.32155 21.4955 10.1969 21.8069 11.1336 21.8069C12.0262 21.8069 12.8632 21.5242 13.5064 21.0485C13.1902 22.3766 12.7589 24.0926 12.3449 25.6612H9.84573ZM7.85443 25.6612C7.12555 24.2354 6.33473 22.4848 5.50153 20.4517C5.5006 20.4495 5.49869 20.4448 5.50231 20.4366C5.50469 20.4312 5.5097 20.4239 5.51915 20.4205L7.54708 19.6819C7.55049 19.6807 7.5585 19.6778 7.56847 19.6833C7.5786 19.6889 7.58046 19.6977 7.58118 19.7009C7.84451 20.9346 8.45653 23.4248 9.04421 25.6612H7.85443ZM5.7347 7.899C5.74751 7.88969 5.76006 7.8798 5.77194 7.86873C6.18945 7.479 6.64223 7.1392 7.12209 6.85222C8.69956 8.88395 10.8443 9.00083 12.7373 9.10352C13.6254 9.15169 14.4643 9.19722 15.1328 9.44384C16.3231 9.88298 16.5326 10.3436 16.5326 11.1492C16.5326 12.6002 15.8332 14.3272 14.6618 15.7688C13.5413 17.1476 12.1894 18.0042 11.1336 18.0042C10.0779 18.0042 8.72596 17.1476 7.60546 15.7688C6.43408 14.3272 5.7347 12.6003 5.7347 11.1492V7.899ZM11.1336 18.7803C11.9272 18.7803 12.8102 18.4298 13.6694 17.7992C13.6872 18.2592 13.7485 18.7491 13.9549 19.1932C13.9189 19.2324 13.8901 19.2793 13.8722 19.3331C13.539 20.3327 12.4128 21.0308 11.1337 21.0308C9.85452 21.0308 8.72834 20.3327 8.39515 19.3331C8.3796 19.2865 8.35584 19.2451 8.32639 19.2094C8.53708 18.7661 8.60088 18.2762 8.61974 17.8152C9.47199 18.4358 10.3468 18.7803 11.1336 18.7803ZM2.7612 4.0807C2.76668 3.95731 2.82108 3.84634 2.91439 3.76822C5.21872 1.83871 8.13771 0.776045 11.1336 0.776045C14.1295 0.776045 17.0486 1.83871 19.3529 3.76822C19.4462 3.84634 19.5006 3.95731 19.5061 4.0807C19.5117 4.2073 19.4657 4.32624 19.3765 4.41554L16.7445 7.05119C15.1733 5.70419 13.1952 4.96669 11.1336 4.96669C9.07201 4.96669 7.09399 5.70419 5.52277 7.05125L2.89078 4.41554C2.80155 4.32624 2.75557 4.2073 2.7612 4.0807ZM3.6397 11.4291C3.99319 9.46976 4.55416 8.02725 4.8207 7.44563L4.95973 7.58486V11.1492C4.95973 12.773 5.72405 14.683 7.0044 16.2586C7.27889 16.5964 7.56537 16.9048 7.85883 17.1814C7.85521 17.2026 7.85294 17.2243 7.85294 17.2466C7.85294 17.8039 7.85221 18.4272 7.61161 18.9064C7.50064 18.8987 7.38806 18.9139 7.28132 18.953L5.25339 19.6915C5.06574 19.7604 4.90998 19.8989 4.81755 20.0751C4.5459 20.0815 4.27972 20.1102 4.02052 20.159C3.03973 16.6626 3.26715 13.4942 3.6397 11.4291ZM0.777342 24.872C0.851377 22.6763 2.63111 20.9076 4.82835 20.8524C5.58621 22.696 6.31029 24.3102 6.9857 25.6612H1.62738C1.17898 25.6612 0.810304 25.3127 0.777342 24.872ZM20.6399 25.6612H15.25C16.0259 24.0642 16.7741 22.2861 17.3633 20.8505C19.5953 20.8663 21.4151 22.6511 21.49 24.872C21.4569 25.3127 21.0883 25.6612 20.6399 25.6612Z" transform="translate(1 1)" stroke="#273D6A" stroke-width="0.4" mask="url(#path-3-outside-2)"/>
<path d="M0.387483 2.11772H1.13995V2.87137C1.13995 3.14075 1.35807 3.35939 1.62743 3.35939C1.89678 3.35939 2.11491 3.14075 2.11491 2.87137V2.11772H2.86737C3.13673 2.11772 3.35486 1.89908 3.35486 1.62969C3.35486 1.3603 3.13673 1.14167 2.86737 1.14167H2.11491V0.388022C2.11491 0.118633 1.89678 -0.1 1.62743 -0.1C1.35807 -0.1 1.13995 0.118633 1.13995 0.388022V1.14167H0.387483C0.11813 1.14167 -0.0999997 1.3603 -0.0999997 1.62969C-0.0999997 1.89908 0.11813 2.11772 0.387483 2.11772Z" transform="translate(10.5054 2.24023)" fill="#273D6A" stroke="#273D6A" stroke-width="0.2"/>
<path d="M-0.0991809 0.695432L-0.0991808 0.69543C-0.0787061 0.235146 0.318566 -0.120861 0.785052 -0.0990487C7.91411 0.204228 14.4417 3.8449 18.3533 9.66895L18.8351 8.26039C18.9844 7.82395 19.4654 7.59155 19.9074 7.73607L-0.0991809 0.695432ZM-0.0991809 0.695432C-0.119683 1.15656 0.245437 1.54268 0.711299 1.56249L0.711302 1.56249M-0.0991809 0.695432L0.711302 1.56249M0.711302 1.56249C7.37306 1.84569 13.4667 5.28271 17.0636 10.7701M0.711302 1.56249L17.2152 10.8197L17.0636 10.7701M13.9696 10.6333L13.9696 10.6333C14.1189 10.197 14.5998 9.9641 15.0419 10.109L13.9696 10.6333ZM13.9696 10.6333C13.8199 11.0709 14.0622 11.5415 14.5052 11.6864M13.9696 10.6333L14.5052 11.6864M17.0636 10.7701L15.042 10.109L17.0636 10.7701ZM14.5052 11.6864L18.1511 12.8788C18.2401 12.908 18.3307 12.9218 18.4197 12.9218C18.7729 12.9218 19.1043 12.7034 19.2236 12.3545C19.2236 12.3545 19.2236 12.3545 19.2236 12.3545L20.443 8.78908C20.5926 8.35152 20.3504 7.88085 19.9074 7.73608L14.5052 11.6864Z" transform="translate(25.6279 3.98438)" fill="#273D6A" stroke="#DBDBDB" stroke-width="0.2"/>
<path d="M1.59001 -0.0129421L1.59005 -0.0129615C1.79088 -0.110822 2.02323 -0.127069 2.23613 -0.0570977L2.23605 -0.0571251L2.20496 0.0379206L2.23619 -0.0570782L1.59001 -0.0129421ZM1.59001 -0.0129421C1.38903 0.0851057 1.23532 0.257509 1.16362 0.467186C1.16362 0.467187 1.16362 0.467189 1.16362 0.46719L-0.055787 4.03262L0.0388322 4.06498L1.59001 -0.0129421ZM1.55234 4.5614L1.55234 4.56141C1.43299 4.91032 1.10153 5.1287 0.748375 5.1287C0.659328 5.1287 0.568936 5.1149 0.479926 5.08572C0.479892 5.08571 0.479861 5.0857 0.479827 5.08569L0.510996 4.99067L1.55234 4.5614ZM1.55234 4.5614L2.03409 3.15284M1.55234 4.5614L2.03409 3.15284M2.03409 3.15284C5.94576 8.97672 12.4733 12.6175 19.6024 12.9207L2.03409 3.15284ZM3.32369 2.05156L5.34516 2.71269L19.6399 12.9215C20.0893 12.9215 20.4667 12.5747 20.4866 12.1263L20.4866 12.1262C20.507 11.6652 20.1419 11.2791 19.676 11.2592C13.0142 10.9759 6.92048 7.5389 3.32369 2.05156ZM5.88199 1.13531L5.85092 1.23036L5.88201 1.13532L5.88199 1.13531Z" transform="translate(8.09009 32.1963)" fill="#273D6A" stroke="#DBDBDB" stroke-width="0.2"/>
</svg>
